SplineFontDB: 3.0
FontName: Nobile-Bold
FullName: Nobile Bold
FamilyName: Nobile
Weight: Black
Copyright: Copyright (c) 2010 by vernon adams. All rights reserved.
Version: 001.000
ItalicAngle: 0
UnderlinePosition: -292
UnderlineWidth: 40
Ascent: 1638
Descent: 410
sfntRevision: 0x00010000
LayerCount: 2
Layer: 0 1 "Back"  1
Layer: 1 1 "Fore"  0
XUID: [1021 332 469972825 15110905]
FSType: 0
OS2Version: 2
OS2_WeightWidthSlopeOnly: 0
OS2_UseTypoMetrics: 1
CreationTime: 1289470427
ModificationTime: 1291305243
PfmFamily: 17
TTFWeight: 900
TTFWidth: 5
LineGap: 0
VLineGap: 0
Panose: 2 0 5 3 5 0 0 2 0 4
OS2TypoAscent: -24
OS2TypoAOffset: 1
OS2TypoDescent: -92
OS2TypoDOffset: 1
OS2TypoLinegap: 0
OS2WinAscent: -842
OS2WinAOffset: 1
OS2WinDescent: -118
OS2WinDOffset: 1
HheadAscent: -842
HheadAOffset: 1
HheadDescent: 118
HheadDOffset: 1
OS2SubXSize: 1331
OS2SubYSize: 1433
OS2SubXOff: 0
OS2SubYOff: 286
OS2SupXSize: 1331
OS2SupYSize: 1433
OS2SupXOff: 0
OS2SupYOff: 983
OS2StrikeYSize: 102
OS2StrikeYPos: 512
OS2Vendor: 'SIL '
OS2CodePages: 00000005.00000000
OS2UnicodeRanges: a000026f.4000000a.00000000.00000000
Lookup: 4 0 1 "'liga' Standard Ligatures in Latin lookup 0"  {"'liga' Standard Ligatures in Latin lookup 0 subtable"  } ['liga' ('latn' <'dflt' > ) ]
Lookup: 258 0 0 "'kern' Horizontal Kerning in Latin lookup 0"  {"'kern' Horizontal Kerning in Latin lookup 0 per glyph data 0"  "'kern' Horizontal Kerning in Latin lookup 0 per glyph data 1"  } ['kern' ('latn' <'dflt' > ) ]
MarkAttachClasses: 1
DEI: 91125
TtTable: prep
PUSHW_1
 511
SCANCTRL
PUSHB_1
 1
SCANTYPE
SVTCA[y-axis]
MPPEM
PUSHB_1
 8
LT
IF
PUSHB_2
 1
 1
INSTCTRL
EIF
PUSHB_2
 70
 6
CALL
IF
POP
PUSHB_1
 16
EIF
MPPEM
PUSHB_1
 20
GT
IF
POP
PUSHB_1
 128
EIF
SCVTCI
PUSHB_1
 6
CALL
NOT
IF
SVTCA[y-axis]
PUSHB_1
 6
DUP
RCVT
PUSHB_1
 3
CALL
WCVTP
PUSHB_1
 8
DUP
RCVT
PUSHB_3
 6
 192
 2
CALL
PUSHB_1
 3
CALL
WCVTP
PUSHB_1
 7
DUP
RCVT
PUSHB_3
 8
 13
 2
CALL
PUSHB_1
 3
CALL
WCVTP
PUSHB_1
 9
DUP
RCVT
PUSHB_3
 6
 44
 2
CALL
PUSHB_1
 3
CALL

StartChar: .notdef
Encoding: 65536 -1 0
Width: 772
Flags: W
HStem: 0 70<140 562> 1340 70<140 562>
VStem: 70 70<70 1340> 562 70<70 1340>
LayerCount: 2
Fore
SplineSet
562 70 m 1,0,-1
 562 1340 l 1,1,-1
 140 1340 l 1,2,-1
 140 70 l 1,3,-1
 562 70 l 1,0,-1
70 1410 m 1,4,-1
 632 1410 l 1,5,-1
 632 0 l 1,6,-1
 70 0 l 1,7,-1
 70 1410 l 1,4,-1
EndSplineSet
EndChar

StartChar: exclam
Encoding: 33 33 6
Width: 749
GlyphClass: 2
Flags: W
HStem: -13 418<258.938 507.353> 1610 20G<133 603>
VStem: 180 407<64.6641 324.228> 259 222<518 644.521>
LayerCount: 2
Fore
SplineSet
240 48 m 1,0,1
 180 105 180 105 180 194 c 0,2,3
 180 235 180 235 195 273 c 128,-1,4
 210 311 210 311 237 340.5 c 128,-1,5
 264 370 264 370 300.5 387.5 c 128,-1,6
 337 405 337 405 380 405 c 0,7,8
 424 405 424 405 462 388 c 128,-1,9
 500 371 500 371 527.5 342 c 128,-1,10
 555 313 555 313 571 274.5 c 128,-1,11
 587 236 587 236 587 194 c 0,12,13
 587 150 587 150 571 112.5 c 128,-1,14
 555 75 555 75 527 47 c 128,-1,15
 499 19 499 19 461 3 c 128,-1,16
 423 -13 423 -13 380 -13 c 0,17,18
 292 -13 292 -13 240 48 c 1,0,1
481 518 m 1,19,-1
 259 518 l 1,20,-1
 133 1630 l 1,21,-1
 603 1630 l 1,22,-1
 481 518 l 1,19,-1
EndSplineSet
EndChar

StartChar: quotedbl
Encoding: 34 34 7
Width: 1116
GlyphClass: 2
Flags: W
HStem: 1610 20G<84 542 642 1100>
LayerCount: 2
Fore
SplineSet
1100 1630 m 1,0,-1
 970 805 l 1,1,-1
 732 805 l 1,2,-1
 642 1630 l 1,3,-1
 1100 1630 l 1,0,-1
542 1630 m 1,4,-1
 412 805 l 1,5,-1
 174 805 l 1,6,-1
 101 1490 l 1,7,-1
 84 1630 l 1,8,-1
 542 1630 l 1,4,-1
EndSplineSet
EndChar

StartChar: numbersign
Encoding: 35 35 8
Width: 1314
GlyphClass: 2
Flags: W
HStem: 430 160<128 293 557 746 1009 1225> 849 160<125 344 609 795 1065 1222>
VStem: 223 245<-30 215> 430 241<1226 1467> 678 244<-30 214> 880 245<1223 1468>
DStem2: 223 -30 468 -30 0.136973 0.990575<33.5584 465.253 659.905 887.289 1082.08 1511.24> 678 -30 922 -30 0.134287 0.990943<32.7659 464.965 658.833 886.75 1081.56 1511.56>
LayerCount: 2
Fore
SplineSet
763 590 m 1,0,-1
 795 849 l 1,1,-1
 590 849 l 1,2,-1
 557 590 l 1,3,-1
 763 590 l 1,0,-1
537 430 m 1,4,-1
 468 -30 l 1,5,-1
 223 -30 l 1,6,-1
 293 430 l 1,7,-1
 128 430 l 1,8,-1
 128 590 l 1,9,-1
 310 590 l 1,10,-1
 344 849 l 1,11,-1
 125 849 l 1,12,-1
 125 1009 l 1,13,-1
 367 1009 l 1,14,-1
 430 1467 l 1,15,-1
 671 1467 l 1,16,-1
 609 1009 l 1,17,-1
 822 1009 l 1,18,-1
 880 1468 l 1,19,-1
 1125 1468 l 1,20,-1
 1065 1009 l 1,21,-1
 1222 1009 l 1,22,-1
 1222 849 l 1,23,-1
 1044 849 l 1,24,-1
 1009 590 l 1,25,-1
 1225 590 l 1,26,-1
 1225 430 l 1,27,-1
 988 430 l 1,28,-1
 922 -30 l 1,29,-1
 678 -30 l 1,30,-1
 746 430 l 1,31,-1
 537 430 l 1,4,-1
EndSplineSet
EndChar

StartChar: dollar
Encoding: 36 36 9
Width: 1445
GlyphClass: 2
Flags: W
HStem: -39 298<415.858 657> 1386 302<479.11 657 771 975.105> 1780 20G<657 771>
VStem: 77 360<1149.99 1343.56> 657 114<-148 -39 271 668 1072 1381 1688 1800> 944 367<341.574 589.785>
DStem2: 572 1103 359 841 0.921399 -0.388617<-158.241 90.3661 212.116 229.102 352.407 535.942> 502 279.5 474.5 -16.5 0.978881 -0.204433<-307.665 154.785>
LayerCount: 2
Fore
SplineSet
771 271 m 1,0,1
 849 291 849 291 896.5 337.5 c 128,-1,2
 944 384 944 384 944 462 c 0,3,4
 944 528 944 528 911.5 574.5 c 128,-1,5
 879 621 879 621 800 655 c 0,6,7
 792 659 792 659 785 661.5 c 128,-1,8
 778 664 778 664 771 668 c 1,9,-1
 771 271 l 1,0,1
657 1386 m 1,10,11
 612 1385 612 1385 572 1379 c 128,-1,12
 532 1373 532 1373 502 1357 c 128,-1,13
 472 1341 472 1341 454.5 1311.5 c 128,-1,14
 437 1282 437 1282 437 1233 c 0,15,16
 437 1218 437 1218 441 1202.5 c 128,-1,17
 445 1187 445 1187 459 1170.5 c 128,-1,18
 473 1154 473 1154 499.5 1137 c 128,-1,19
 526 1120 526 1120 572 1103 c 0,20,21
 595 1095 595 1095 616 1087.5 c 128,-1,22
 637 1080 637 1080 657 1072 c 1,23,-1
 657 1386 l 1,10,11
657 1800 m 1,24,-1
 771 1800 l 1,25,-1
 771 1681 l 1,26,27
 923 1667 923 1667 1039.5 1635.5 c 128,-1,28
 1156 1604 1156 1604 1238 1561 c 1,29,-1
 1146 1284 l 1,30,31
 1077 1311 1077 1311 1009 1332 c 0,32,33
 980 1341 980 1341 948.5 1350 c 128,-1,34
 917 1359 917 1359 886 1365.5 c 128,-1,35
 855 1372 855 1372 825.5 1376.5 c 128,-1,36
 796 1381 796 1381 771 1381 c 1,37,-1
 771 1029 l 1,38,39
 813 1014 813 1014 853.5 998.5 c 128,-1,40
 894 983 894 983 936 968 c 0,41,42
 1012 940 1012 940 1080.5 897.5 c 128,-1,43
 1149 855 1149 855 1200 798.5 c 128,-1,44
 1251 742 1251 742 1281 671 c 128,-1,45
 1311 600 1311 600 1311 516 c 0,46,47
 1311 387 1311 387 1275.5 288 c 128,-1,48
 1240 189 1240 189 1171 120 c 128,-1,49
 1102 51 1102 51 1001.5 12 c 128,-1,50
 901 -27 901 -27 771 -37 c 1,51,-1
 771 -148 l 1,52,-1
 657 -148 l 1,53,-1
 657 -39 l 1,54,55
 612 -39 612 -39 566 -33 c 128,-1,56
 520 -27 520 -27 474.5 -16.5 c 128,-1,57
 429 -6 429 -6 386 6.5 c 128,-1,58
 343 19 343 19 305 33 c 0,59,60
 215 65 215 65 131 105 c 1,61,-1
 200 391 l 1,62,63
 275 354 275 354 354 325 c 0,64,65
 387 313 387 313 425 301 c 128,-1,66
 463 289 463 289 502 279.5 c 128,-1,67
 541 270 541 270 580.5 264.5 c 128,-1,68
 620 259 620 259 657 259 c 1,69,-1
 657 715 l 1,70,71
 583 747 583 747 509 778.5 c 128,-1,72
 435 810 435 810 359 841 c 0,73,74
 219 898 219 898 148 993.5 c 128,-1,75
 77 1089 77 1089 77 1230 c 0,76,77
 77 1361 77 1361 124 1449 c 128,-1,78
 171 1537 171 1537 251 1590 c 128,-1,79
 331 1643 331 1643 436 1665.5 c 128,-1,80
 541 1688 541 1688 657 1688 c 1,81,-1
 657 1800 l 1,24,-1
EndSplineSet
EndChar

StartChar: percent
Encoding: 37 37 10
Width: 1724
GlyphClass: 2
Flags: W
HStem: 12 194<1297.38 1498.07> 642 195<272.197 471.556> 721 207<1304.23 1490.86> 1352 207<278.739 464.935>
VStem: 14 218<875.238 1288.04> 512 228<875.875 1288.04> 1039 218<245.238 657.559> 1538 227<245.196 657.559>
DStem2: 421 59 630 -42 0.431926 0.901909<0 1646.91>
LayerCount: 2
Fore
SplineSet
1398 206 m 256,0,1
 1432 206 1432 206 1458 217 c 128,-1,2
 1484 228 1484 228 1502 256.5 c 128,-1,3
 1520 285 1520 285 1529 334.5 c 128,-1,4
 1538 384 1538 384 1538 460 c 0,5,6
 1538 598 1538 598 1503 659.5 c 128,-1,7
 1468 721 1468 721 1398 721 c 0,8,9
 1327 721 1327 721 1292 659.5 c 128,-1,10
 1257 598 1257 598 1257 460 c 0,11,12
 1257 384 1257 384 1266 334.5 c 128,-1,13
 1275 285 1275 285 1293 256.5 c 128,-1,14
 1311 228 1311 228 1337.5 217 c 128,-1,15
 1364 206 1364 206 1398 206 c 256,0,1
1403 12 m 0,16,17
 1328 12 1328 12 1272.5 33 c 128,-1,18
 1217 54 1217 54 1176.5 89.5 c 128,-1,19
 1136 125 1136 125 1109.5 170.5 c 128,-1,20
 1083 216 1083 216 1067.5 265 c 128,-1,21
 1052 314 1052 314 1045.5 362 c 128,-1,22
 1039 410 1039 410 1039 451 c 0,23,24
 1039 575 1039 575 1064.5 665 c 128,-1,25
 1090 755 1090 755 1137.5 813.5 c 128,-1,26
 1185 872 1185 872 1252 900 c 128,-1,27
 1319 928 1319 928 1403 928 c 0,28,29
 1485 928 1485 928 1552 900 c 128,-1,30
 1619 872 1619 872 1666.5 813.5 c 128,-1,31
 1714 755 1714 755 1739.5 665 c 128,-1,32
 1765 575 1765 575 1765 451 c 0,33,34
 1765 412 1765 412 1759 364.5 c 128,-1,35
 1753 317 1753 317 1737.5 268 c 128,-1,36
 1722 219 1722 219 1696 173 c 128,-1,37
 1670 127 1670 127 1629.5 91 c 128,-1,38
 1589 55 1589 55 1533 33.5 c 128,-1,39
 1477 12 1477 12 1403 12 c 0,16,17
372 837 m 256,40,41
 406 837 406 837 432 848 c 128,-1,42
 458 859 458 859 476 887.5 c 128,-1,43
 494 916 494 916 503 965 c 128,-1,44
 512 1014 512 1014 512 1090 c 0,45,46
 512 1228 512 1228 477 1290 c 128,-1,47
 442 1352 442 1352 372 1352 c 0,48,49
 301 1352 301 1352 266.5 1290 c 128,-1,50
 232 1228 232 1228 232 1090 c 0,51,52
 232 1014 232 1014 241 965 c 128,-1,53
 250 916 250 916 268 887.5 c 128,-1,54
 286 859 286 859 312 848 c 128,-1,55
 338 837 338 837 372 837 c 256,40,41
377 642 m 0,56,57
 303 642 303 642 247 663 c 128,-1,58
 191 684 191 684 151 719.5 c 128,-1,59
 111 755 111 755 84.5 800.5 c 128,-1,60
 58 846 58 846 42.5 895 c 128,-1,61
 27 944 27 944 20.5 992 c 128,-1,62
 14 1040 14 1040 14 1081 c 0,63,64
 14 1205 14 1205 39.5 1295.5 c 128,-1,65
 65 1386 65 1386 112 1444.5 c 128,-1,66
 159 1503 159 1503 226.5 1531 c 128,-1,67
 294 1559 294 1559 377 1559 c 0,68,69
 459 1559 459 1559 526.5 1531 c 128,-1,70
 594 1503 594 1503 641 1444.5 c 128,-1,71
 688 1386 688 1386 714 1295.5 c 128,-1,72
 740 1205 740 1205 740 1081 c 0,73,74
 740 1042 740 1042 734 994.5 c 128,-1,75
 728 947 728 947 712.5 898.5 c 128,-1,76
 697 850 697 850 670.5 803.5 c 128,-1,77
 644 757 644 757 604 721.5 c 128,-1,78
 564 686 564 686 508 664 c 128,-1,79
 452 642 452 642 377 642 c 0,56,57
1136 1552 m 1,80,-1
 1344 1443 l 1,81,-1
 630 -42 l 1,82,-1
 421 59 l 1,83,-1
 1136 1552 l 1,80,-1
EndSplineSet
EndChar

StartChar: ampersand
Encoding: 38 38 11
Width: 1860
GlyphClass: 2
Flags: W
HStem: -41 288<608.99 1116.65> 1441 240<681.527 971.762>
VStem: 165 336<342.952 608.877> 320 322<1171.45 1401.76> 1017 281<1164.9 1400.03> 1326 304.5<583.547 941>
DStem2: 1013 858 771 729 0.754087 -0.656775<0 418.807 789.584 1110.08>
LayerCount: 2
Fore
SplineSet
501 478 m 0,0,1
 501 366 501 366 583.5 306.5 c 128,-1,2
 666 247 666 247 847 247 c 0,3,4
 938 247 938 247 1007.5 261.5 c 128,-1,5
 1077 276 1077 276 1124 294 c 0,6,7
 1170 312 1170 312 1194 326 c 2,8,-1
 1218 340 l 1,9,-1
 771 729 l 1,10,11
 716 715 716 715 667 694.5 c 128,-1,12
 618 674 618 674 581 644.5 c 128,-1,13
 544 615 544 615 522.5 574 c 128,-1,14
 501 533 501 533 501 478 c 0,0,1
847 -41 m 0,15,16
 706 -41 706 -41 582 -13.5 c 128,-1,17
 458 14 458 14 365.5 73 c 128,-1,18
 273 132 273 132 219 226 c 128,-1,19
 165 320 165 320 165 453 c 0,20,21
 165 560 165 560 197.5 636 c 128,-1,22
 230 712 230 712 283 767.5 c 128,-1,23
 336 823 336 823 403.5 862 c 128,-1,24
 471 901 471 901 542 934 c 1,25,-1
 542 933 l 1,26,27
 479 984 479 984 431 1046 c 0,28,29
 410 1072 410 1072 390 1103.5 c 128,-1,30
 370 1135 370 1135 354.5 1170.5 c 128,-1,31
 339 1206 339 1206 329.5 1245 c 128,-1,32
 320 1284 320 1284 320 1325 c 0,33,34
 320 1411 320 1411 360 1477.5 c 128,-1,35
 400 1544 400 1544 468.5 1589 c 128,-1,36
 537 1634 537 1634 627.5 1657.5 c 128,-1,37
 718 1681 718 1681 820 1681 c 0,38,39
 925 1681 925 1681 1013 1656 c 128,-1,40
 1101 1631 1101 1631 1164 1585 c 128,-1,41
 1227 1539 1227 1539 1262.5 1474.5 c 128,-1,42
 1298 1410 1298 1410 1298 1331 c 0,43,44
 1298 1256 1298 1256 1281.5 1183.5 c 128,-1,45
 1265 1111 1265 1111 1230 1048 c 128,-1,46
 1195 985 1195 985 1141 935.5 c 128,-1,47
 1087 886 1087 886 1013 858 c 1,48,-1
 1328 582 l 1,49,50
 1327 628 1327 628 1326.5 670.5 c 128,-1,51
 1326 713 1326 713 1326 756 c 128,-1,52
 1326 799 1326 799 1326 844.5 c 128,-1,53
 1326 890 1326 890 1326 941 c 1,54,-1
 1635 941 l 1,55,56
 1635 869 1635 869 1630.5 794.5 c 128,-1,57
 1626 720 1626 720 1620 654 c 128,-1,58
 1614 588 1614 588 1607 534 c 128,-1,59
 1600 480 1600 480 1594 449 c 2,60,-1
 1580 377 l 1,61,-1
 1858 138 l 1,62,-1
 1700 -61 l 1,63,-1
 1450 150 l 1,64,65
 1371 64 1371 64 1221.5 11.5 c 128,-1,66
 1072 -41 1072 -41 847 -41 c 0,15,16
1017 1287 m 0,67,68
 1017 1367 1017 1367 968.5 1404 c 128,-1,69
 920 1441 920 1441 831 1441 c 0,70,71
 642 1441 642 1441 642 1295 c 0,72,73
 642 1247 642 1247 661.5 1211.5 c 128,-1,74
 681 1176 681 1176 707 1146 c 1,75,76
 724 1129 724 1129 746 1106.5 c 128,-1,77
 768 1084 768 1084 794 1072 c 1,78,79
 840 1086 840 1086 880.5 1103 c 128,-1,80
 921 1120 921 1120 951.5 1144.5 c 128,-1,81
 982 1169 982 1169 999.5 1203.5 c 128,-1,82
 1017 1238 1017 1238 1017 1287 c 0,67,68
EndSplineSet
EndChar

StartChar: quotesingle
Encoding: 39 39 12
Width: 617
GlyphClass: 2
Flags: W
HStem: 1610 20G<78 535>
VStem: 78 457
LayerCount: 2
Fore
SplineSet
535 1630 m 1,0,-1
 406 805 l 1,1,-1
 167 805 l 1,2,-1
 78 1630 l 1,3,-1
 535 1630 l 1,0,-1
EndSplineSet
EndChar

StartChar: parenleft
Encoding: 40 40 13
Width: 855
GlyphClass: 2
Flags: W
HStem: 1722 20G<569.5 637.825>
VStem: 146 342<364.01 1043.79>
LayerCount: 2
Fore
SplineSet
146 700 m 0,0,1
 146 869 146 869 180.5 1023 c 128,-1,2
 215 1177 215 1177 277.5 1310 c 128,-1,3
 340 1443 340 1443 428 1552 c 128,-1,4
 516 1661 516 1661 623 1742 c 1,5,-1
 792 1514 l 1,6,7
 722 1447 722 1447 666 1358 c 128,-1,8
 610 1269 610 1269 570.5 1164 c 128,-1,9
 531 1059 531 1059 509.5 941.5 c 128,-1,10
 488 824 488 824 488 701 c 256,11,12
 488 578 488 578 509.5 464 c 128,-1,13
 531 350 531 350 571 248.5 c 128,-1,14
 611 147 611 147 668.5 59.5 c 128,-1,15
 726 -28 726 -28 798 -97 c 1,16,-1
 626 -325 l 1,17,18
 518 -244 518 -244 429.5 -136 c 128,-1,19
 341 -28 341 -28 278 102.5 c 128,-1,20
 215 233 215 233 180.5 383.5 c 128,-1,21
 146 534 146 534 146 700 c 0,0,1
EndSplineSet
EndChar

StartChar: parenright
Encoding: 41 41 14
Width: 851
GlyphClass: 2
Flags: W
HStem: 1722 20G<221.912 292>
VStem: 375 344<369.866 1052.31>
LayerCount: 2
Fore
SplineSet
719 715 m 0,0,1
 719 548 719 548 684 394.5 c 128,-1,2
 649 241 649 241 586 108 c 128,-1,3
 523 -25 523 -25 435.5 -135 c 128,-1,4
 348 -245 348 -245 242 -325 c 1,5,-1
 71 -97 l 1,6,7
 141 -30 141 -30 197.5 59.5 c 128,-1,8
 254 149 254 149 293.5 254 c 128,-1,9
 333 359 333 359 354 476.5 c 128,-1,10
 375 594 375 594 375 717 c 256,11,12
 375 840 375 840 353 954.5 c 128,-1,13
 331 1069 331 1069 290.5 1171 c 128,-1,14
 250 1273 250 1273 192.5 1359.5 c 128,-1,15
 135 1446 135 1446 65 1514 c 1,16,-1
 237 1742 l 1,17,18
 347 1659 347 1659 436 1550 c 128,-1,19
 525 1441 525 1441 588 1310 c 128,-1,20
 651 1179 651 1179 685 1029 c 128,-1,21
 719 879 719 879 719 715 c 0,0,1
EndSplineSet
EndChar

StartChar: asterisk
Encoding: 42 42 15
Width: 1053
GlyphClass: 2
Flags: W
HStem: 1125 211<60 333 740 991>
DStem2: 405 1699 197 1580 0.494649 -0.869093<0.535072 257.497 684.837 934.338> 197 892 409 765 0.49821 0.867056<0 249.031 672.394 930.853>
LayerCount: 2
Fore
SplineSet
665 1701 m 1,0,-1
 875 1576 l 1,1,-1
 737 1336 l 1,2,-1
 991 1336 l 1,3,-1
 991 1125 l 1,4,-1
 740 1125 l 1,5,-1
 876 892 l 1,6,-1
 662 763 l 1,7,-1
 535 985 l 1,8,-1
 409 765 l 1,9,-1
 197 892 l 1,10,-1
 333 1125 l 1,11,-1
 60 1125 l 1,12,-1
 60 1336 l 1,13,-1
 336 1336 l 1,14,-1
 197 1580 l 1,15,-1
 405 1699 l 1,16,-1
 532 1475 l 1,17,-1
 665 1701 l 1,0,-1
EndSplineSet
EndChar

StartChar: plus
Encoding: 43 43 16
Width: 1102
GlyphClass: 2
Flags: W
HStem: 457 293<113 396 708 993>
VStem: 396 312<93 457 750 1112>
LayerCount: 2
Fore
SplineSet
708 457 m 1,0,-1
 708 93 l 1,1,-1
 396 93 l 1,2,-1
 396 457 l 1,3,-1
 113 457 l 1,4,-1
 113 750 l 1,5,-1
 396 750 l 1,6,-1
 396 1112 l 1,7,-1
 708 1112 l 1,8,-1
 708 750 l 1,9,-1
 993 750 l 1,10,-1
 993 457 l 1,11,-1
 708 457 l 1,0,-1
EndSplineSet
EndChar

StartChar: comma
Encoding: 44 44 17
Width: 765
GlyphClass: 2
Flags: W
VStem: 170 447<1.82031 440> 359 258<-121.555 0>
LayerCount: 2
Fore
SplineSet
170 440 m 1,0,-1
 617 440 l 1,1,-1
 617 56 l 2,2,3
 617 -40 617 -40 582.5 -104 c 128,-1,4
 548 -168 548 -168 493.5 -209.5 c 128,-1,5
 439 -251 439 -251 372 -276.5 c 128,-1,6
 305 -302 305 -302 239 -322 c 1,7,-1
 171 -203 l 1,8,9
 221 -185 221 -185 257 -166 c 128,-1,10
 293 -147 293 -147 315.5 -123.5 c 128,-1,11
 338 -100 338 -100 348.5 -70 c 128,-1,12
 359 -40 359 -40 359 0 c 1,13,-1
 170 0 l 1,14,-1
 170 440 l 1,0,-1
EndSplineSet
EndChar

StartChar: hyphen
Encoding: 45 45 18
Width: 1190
GlyphClass: 2
Flags: W
HStem: 599 282<179 1011>
LayerCount: 2
Fore
SplineSet
179 599 m 1,0,-1
 179 881 l 1,1,-1
 1011 881 l 1,2,-1
 1011 599 l 1,3,-1
 179 599 l 1,0,-1
EndSplineSet
EndChar

StartChar: period
Encoding: 46 46 19
Width: 814
GlyphClass: 2
Flags: W
HStem: 0 440<165 612>
VStem: 165 447<0 440>
LayerCount: 2
Fore
SplineSet
165 440 m 1,0,-1
 612 440 l 1,1,-1
 612 0 l 1,2,-1
 165 0 l 1,3,-1
 165 440 l 1,0,-1
EndSplineSet
EndChar

StartChar: slash
Encoding: 47 47 20
Width: 932
GlyphClass: 2
Flags: W
HStem: 1696 20G<655.397 725.368>
DStem2: 77 -56 373 -148 0.313493 0.94959<5.43174 1866.07>
LayerCount: 2
Fore
SplineSet
662 1716 m 1,0,-1
 963 1621 l 1,1,-1
 373 -148 l 1,2,-1
 77 -56 l 1,3,-1
 662 1716 l 1,0,-1
EndSplineSet
EndChar

StartChar: zero
Encoding: 48 48 21
Width: 1515
GlyphClass: 2
Flags: W
HStem: -28 281<606.834 901.586> 964 281<611.391 903.882>
VStem: 149 355<368.454 841.791> 1010 352<376.647 846.673>
LayerCount: 2
Fore
SplineSet
754 253 m 0,0,1
 829 253 829 253 878.5 282 c 128,-1,2
 928 311 928 311 957.5 361 c 128,-1,3
 987 411 987 411 998.5 478.5 c 128,-1,4
 1010 546 1010 546 1010 623 c 0,5,6
 1010 696 1010 696 997 758.5 c 128,-1,7
 984 821 984 821 954 866.5 c 128,-1,8
 924 912 924 912 875 938 c 128,-1,9
 826 964 826 964 754 964 c 0,10,11
 680 964 680 964 632 934.5 c 128,-1,12
 584 905 584 905 555.5 855.5 c 128,-1,13
 527 806 527 806 515.5 742.5 c 128,-1,14
 504 679 504 679 504 612 c 0,15,16
 504 528 504 528 517 461 c 128,-1,17
 530 394 530 394 560 348 c 128,-1,18
 590 302 590 302 637.5 277.5 c 128,-1,19
 685 253 685 253 754 253 c 0,0,1
754 1245 m 0,20,21
 905 1245 905 1245 1019 1201 c 128,-1,22
 1133 1157 1133 1157 1209.5 1073.5 c 128,-1,23
 1286 990 1286 990 1324 869 c 128,-1,24
 1362 748 1362 748 1362 595 c 0,25,26
 1362 449 1362 449 1321 333.5 c 128,-1,27
 1280 218 1280 218 1202 137.5 c 128,-1,28
 1124 57 1124 57 1010.5 14.5 c 128,-1,29
 897 -28 897 -28 752 -28 c 0,30,31
 603 -28 603 -28 490.5 17.5 c 128,-1,32
 378 63 378 63 302 146 c 128,-1,33
 226 229 226 229 187.5 347 c 128,-1,34
 149 465 149 465 149 609 c 0,35,36
 149 760 149 760 188.5 878.5 c 128,-1,37
 228 997 228 997 305 1078.5 c 128,-1,38
 382 1160 382 1160 495 1202.5 c 128,-1,39
 608 1245 608 1245 754 1245 c 0,20,21
EndSplineSet
EndChar

StartChar: one
Encoding: 49 49 22
Width: 958
GlyphClass: 2
Flags: W
HStem: 0 21G<364 740> 1190 20G<342 509>
VStem: 364 376<0 905>
LayerCount: 2
Fore
SplineSet
364 905 m 1,0,-1
 208 839 l 1,1,-1
 107 1096 l 1,2,-1
 392 1210 l 1,3,-1
 509 1206 l 1,4,-1
 740 1206 l 1,5,-1
 740 0 l 1,6,-1
 364 0 l 1,7,-1
 364 905 l 1,0,-1
EndSplineSet
EndChar

StartChar: two
Encoding: 50 50 23
Width: 1219
GlyphClass: 2
Flags: W
HStem: 0 288<707 1069> 948 282<384.513 707.411>
VStem: 743 361<689.612 916.931>
LayerCount: 2
Fore
SplineSet
743 806 m 0,0,1
 743 878 743 878 708.5 913 c 128,-1,2
 674 948 674 948 596 948 c 0,3,4
 553 948 553 948 505 938 c 128,-1,5
 457 928 457 928 409.5 912 c 128,-1,6
 362 896 362 896 318 876 c 128,-1,7
 274 856 274 856 239 837 c 1,8,-1
 140 1095 l 1,9,10
 151 1100 151 1100 178.5 1112 c 128,-1,11
 206 1124 206 1124 243.5 1139 c 128,-1,12
 281 1154 281 1154 327.5 1170 c 128,-1,13
 374 1186 374 1186 423.5 1199.5 c 128,-1,14
 473 1213 473 1213 523 1221.5 c 128,-1,15
 573 1230 573 1230 619 1230 c 0,16,17
 673 1230 673 1230 729.5 1222.5 c 128,-1,18
 786 1215 786 1215 840 1198.5 c 128,-1,19
 894 1182 894 1182 942 1154 c 128,-1,20
 990 1126 990 1126 1026 1085 c 128,-1,21
 1062 1044 1062 1044 1083 988 c 128,-1,22
 1104 932 1104 932 1104 860 c 0,23,24
 1104 798 1104 798 1090.5 745.5 c 128,-1,25
 1077 693 1077 693 1046 640.5 c 128,-1,26
 1015 588 1015 588 965 532.5 c 128,-1,27
 915 477 915 477 842 411 c 2,28,-1
 707 288 l 1,29,-1
 1069 288 l 1,30,-1
 1069 0 l 1,31,-1
 178 0 l 1,32,-1
 178 232 l 1,33,-1
 618 604 l 2,34,35
 636 619 636 619 657.5 641 c 128,-1,36
 679 663 679 663 698 689.5 c 128,-1,37
 717 716 717 716 730 746 c 128,-1,38
 743 776 743 776 743 806 c 0,0,1
EndSplineSet
EndChar

StartChar: three
Encoding: 51 51 24
Width: 1222
GlyphClass: 2
Flags: W
HStem: -179 277<281.025 667.909> 434 264<418 622.491> 959 282<321.403 652.619>
VStem: 698 334<760.989 933.253> 720 349<137.664 351.44>
LayerCount: 2
Fore
SplineSet
698 855 m 0,0,1
 698 908 698 908 654 933.5 c 128,-1,2
 610 959 610 959 540 959 c 0,3,4
 492 959 492 959 441.5 948 c 128,-1,5
 391 937 391 937 349 923.5 c 128,-1,6
 307 910 307 910 278.5 898.5 c 128,-1,7
 250 887 250 887 246 886 c 1,8,-1
 122 1132 l 1,9,10
 138 1140 138 1140 173 1158 c 128,-1,11
 208 1176 208 1176 258.5 1194.5 c 128,-1,12
 309 1213 309 1213 373 1227 c 128,-1,13
 437 1241 437 1241 511 1241 c 0,14,15
 629 1241 629 1241 725 1220 c 128,-1,16
 821 1199 821 1199 889 1151.5 c 128,-1,17
 957 1104 957 1104 994.5 1027.5 c 128,-1,18
 1032 951 1032 951 1032 841 c 0,19,20
 1032 797 1032 797 1019 753.5 c 128,-1,21
 1006 710 1006 710 981 672 c 128,-1,22
 956 634 956 634 919 605.5 c 128,-1,23
 882 577 882 577 834 565 c 1,24,25
 886 551 886 551 929.5 519 c 128,-1,26
 973 487 973 487 1004 444.5 c 128,-1,27
 1035 402 1035 402 1052 352.5 c 128,-1,28
 1069 303 1069 303 1069 254 c 0,29,30
 1069 140 1069 140 1028.5 58 c 128,-1,31
 988 -24 988 -24 916 -76.5 c 128,-1,32
 844 -129 844 -129 745 -154 c 128,-1,33
 646 -179 646 -179 529 -179 c 0,34,35
 446 -179 446 -179 378.5 -169.5 c 128,-1,36
 311 -160 311 -160 262 -148 c 128,-1,37
 213 -136 213 -136 183 -125.5 c 128,-1,38
 153 -115 153 -115 146 -112 c 1,39,-1
 236 160 l 1,40,41
 244 157 244 157 270.5 146.5 c 128,-1,42
 297 136 297 136 335.5 125.5 c 128,-1,43
 374 115 374 115 421 106.5 c 128,-1,44
 468 98 468 98 517 98 c 0,45,46
 619 98 619 98 669.5 132 c 128,-1,47
 720 166 720 166 720 250 c 0,48,49
 720 298 720 298 693 332.5 c 128,-1,50
 666 367 666 367 622.5 389.5 c 128,-1,51
 579 412 579 412 525.5 423 c 128,-1,52
 472 434 472 434 418 434 c 1,53,-1
 418 698 l 1,54,55
 471 698 471 698 521.5 706.5 c 128,-1,56
 572 715 572 715 611 733.5 c 128,-1,57
 650 752 650 752 674 782 c 128,-1,58
 698 812 698 812 698 855 c 0,0,1
EndSplineSet
EndChar

StartChar: four
Encoding: 52 52 25
Width: 1331
GlyphClass: 2
Flags: W
HStem: 60 276<447 714 1024 1209>
VStem: 714 310<-220 60 339 737>
DStem2: 88 274 447 336 0.560123 0.82841<252.445 734.19>
LayerCount: 2
Fore
SplineSet
714 336 m 1,0,-1
 714 737 l 1,1,-1
 447 336 l 1,2,-1
 714 336 l 1,0,-1
1024 1188 m 1,3,-1
 1024 339 l 1,4,-1
 1209 339 l 1,5,-1
 1209 60 l 1,6,-1
 1024 60 l 1,7,-1
 1024 -220 l 1,8,-1
 714 -220 l 1,9,-1
 714 60 l 1,10,-1
 131 60 l 1,11,-1
 88 274 l 1,12,-1
 754 1259 l 1,13,-1
 1024 1188 l 1,3,-1
EndSplineSet
EndChar

StartChar: five
Encoding: 53 53 26
Width: 1223
GlyphClass: 2
Flags: W
HStem: -186 290<280.274 709.523> 518 251<472.796 706.555> 945 262<471 1005>
VStem: 168 303<730 945> 770 322<160.994 451.967>
LayerCount: 2
Fore
SplineSet
178 180 m 1,0,1
 205 169 205 169 246.5 156 c 128,-1,2
 288 143 288 143 337.5 131.5 c 128,-1,3
 387 120 387 120 441 112 c 128,-1,4
 495 104 495 104 548 104 c 0,5,6
 655 104 655 104 712.5 149 c 128,-1,7
 770 194 770 194 770 292 c 0,8,9
 770 398 770 398 721 458 c 128,-1,10
 672 518 672 518 573 518 c 0,11,12
 473 518 473 518 316 436 c 1,13,-1
 168 568 l 1,14,-1
 168 1207 l 1,15,-1
 1005 1207 l 1,16,-1
 1005 945 l 1,17,-1
 471 945 l 1,18,-1
 471 730 l 2,19,20
 471 731 471 731 482.5 737.5 c 128,-1,21
 494 744 494 744 513.5 751 c 128,-1,22
 533 758 533 758 558 763.5 c 128,-1,23
 583 769 583 769 610 769 c 0,24,25
 722 769 722 769 811.5 735.5 c 128,-1,26
 901 702 901 702 963 639.5 c 128,-1,27
 1025 577 1025 577 1058.5 488.5 c 128,-1,28
 1092 400 1092 400 1092 290 c 0,29,30
 1092 183 1092 183 1053 95.5 c 128,-1,31
 1014 8 1014 8 944.5 -54.5 c 128,-1,32
 875 -117 875 -117 780 -151.5 c 128,-1,33
 685 -186 685 -186 573 -186 c 0,34,35
 521 -186 521 -186 463.5 -178.5 c 128,-1,36
 406 -171 406 -171 349 -158.5 c 128,-1,37
 292 -146 292 -146 237 -128.5 c 128,-1,38
 182 -111 182 -111 136 -91 c 1,39,-1
 178 180 l 1,0,1
EndSplineSet
EndChar

StartChar: six
Encoding: 54 54 27
Width: 1273
GlyphClass: 2
Flags: W
HStem: -98 281<540.288 793.808> 638 273<570.062 813.676> 1387 20G<826 915.105>
VStem: 104 352<274.917 580.569> 857 339<248.557 593.782>
LayerCount: 2
Fore
SplineSet
1196 404 m 0,0,1
 1196 293 1196 293 1160.5 201 c 128,-1,2
 1125 109 1125 109 1058.5 42.5 c 128,-1,3
 992 -24 992 -24 895.5 -61 c 128,-1,4
 799 -98 799 -98 678 -98 c 0,5,6
 542 -98 542 -98 435.5 -53 c 128,-1,7
 329 -8 329 -8 255.5 70 c 128,-1,8
 182 148 182 148 143 252 c 128,-1,9
 104 356 104 356 104 474 c 0,10,11
 104 671 104 671 167.5 825 c 128,-1,12
 231 979 231 979 340.5 1094 c 128,-1,13
 450 1209 450 1209 596.5 1286 c 128,-1,14
 743 1363 743 1363 909 1407 c 1,15,-1
 996 1122 l 1,16,17
 844 1092 844 1092 741 1037 c 128,-1,18
 638 982 638 982 569 907 c 1,19,20
 603 909 603 909 633.5 910 c 128,-1,21
 664 911 664 911 689 911 c 0,22,23
 804 911 804 911 897.5 869.5 c 128,-1,24
 991 828 991 828 1057.5 758 c 128,-1,25
 1124 688 1124 688 1160 596 c 128,-1,26
 1196 504 1196 504 1196 404 c 0,0,1
456 478 m 0,27,28
 458 408 458 408 470.5 353.5 c 128,-1,29
 483 299 483 299 509 261 c 128,-1,30
 535 223 535 223 576 203 c 128,-1,31
 617 183 617 183 676 183 c 0,32,33
 731 183 731 183 766 204.5 c 128,-1,34
 801 226 801 226 821.5 263.5 c 128,-1,35
 842 301 842 301 849.5 351 c 128,-1,36
 857 401 857 401 857 457 c 0,37,38
 857 548 857 548 815 593 c 128,-1,39
 773 638 773 638 682 638 c 0,40,41
 619 638 619 638 564.5 616.5 c 128,-1,42
 510 595 510 595 455 544 c 1,43,44
 456 526 456 526 456 510 c 128,-1,45
 456 494 456 494 456 478 c 0,27,28
EndSplineSet
EndChar

StartChar: seven
Encoding: 55 55 28
Width: 1163
GlyphClass: 2
Flags: W
HStem: 924 277<133 703>
DStem2: 202 -108 522 -250 0.435169 0.900349<11.4044 1147.18>
LayerCount: 2
Fore
SplineSet
1131 1010 m 1,0,-1
 522 -250 l 1,1,-1
 202 -108 l 1,2,-1
 703 924 l 1,3,-1
 133 924 l 1,4,-1
 133 1201 l 1,5,-1
 1044 1201 l 1,6,-1
 1131 1010 l 1,0,-1
EndSplineSet
EndChar

StartChar: eight
Encoding: 56 56 29
Width: 1353
GlyphClass: 2
Flags: W
HStem: -129 285<531.016 822.853> 520 266<549.746 803.738> 1091 275<545.761 808.428>
VStem: 141 348<193.324 453.299> 172 337<821.775 1055.18> 845 336<821.789 1054.8> 864 348<192.726 453.272>
LayerCount: 2
Fore
SplineSet
845 949 m 0,0,1
 845 1018 845 1018 805 1054.5 c 128,-1,2
 765 1091 765 1091 677 1091 c 0,3,4
 588 1091 588 1091 548.5 1054.5 c 128,-1,5
 509 1018 509 1018 509 948 c 0,6,7
 509 860 509 860 548.5 823 c 128,-1,8
 588 786 588 786 677 786 c 0,9,10
 765 786 765 786 805 823 c 128,-1,11
 845 860 845 860 845 949 c 0,0,1
864 311 m 0,12,13
 864 407 864 407 817 463.5 c 128,-1,14
 770 520 770 520 677 520 c 0,15,16
 583 520 583 520 536 464 c 128,-1,17
 489 408 489 408 489 311 c 0,18,19
 489 224 489 224 536.5 190 c 128,-1,20
 584 156 584 156 677 156 c 0,21,22
 771 156 771 156 817.5 190 c 128,-1,23
 864 224 864 224 864 311 c 0,12,13
1181 964 m 0,24,25
 1181 901 1181 901 1161 845 c 128,-1,26
 1141 789 1141 789 1105 745 c 128,-1,27
 1069 701 1069 701 1019 670.5 c 128,-1,28
 969 640 969 640 909 630 c 1,29,30
 966 623 966 623 1020 594.5 c 128,-1,31
 1074 566 1074 566 1117 521 c 128,-1,32
 1160 476 1160 476 1186 416.5 c 128,-1,33
 1212 357 1212 357 1212 288 c 0,34,35
 1212 176 1212 176 1166.5 97 c 128,-1,36
 1121 18 1121 18 1046 -32.5 c 128,-1,37
 971 -83 971 -83 875 -106 c 128,-1,38
 779 -129 779 -129 677 -129 c 256,39,40
 575 -129 575 -129 478.5 -105.5 c 128,-1,41
 382 -82 382 -82 307 -32 c 128,-1,42
 232 18 232 18 186.5 97.5 c 128,-1,43
 141 177 141 177 141 290 c 0,44,45
 141 359 141 359 167.5 418 c 128,-1,46
 194 477 194 477 236.5 521.5 c 128,-1,47
 279 566 279 566 333.5 594 c 128,-1,48
 388 622 388 622 444 629 c 1,49,50
 385 640 385 640 335 670 c 128,-1,51
 285 700 285 700 249 744.5 c 128,-1,52
 213 789 213 789 192.5 845 c 128,-1,53
 172 901 172 901 172 964 c 0,54,55
 172 1063 172 1063 211.5 1138 c 128,-1,56
 251 1213 251 1213 319.5 1263.5 c 128,-1,57
 388 1314 388 1314 480 1340 c 128,-1,58
 572 1366 572 1366 677 1366 c 0,59,60
 783 1366 783 1366 875 1340 c 128,-1,61
 967 1314 967 1314 1035 1263 c 128,-1,62
 1103 1212 1103 1212 1142 1137 c 128,-1,63
 1181 1062 1181 1062 1181 964 c 0,24,25
EndSplineSet
EndChar

StartChar: nine
Encoding: 57 57 30
Width: 1317
GlyphClass: 2
Flags: W
HStem: 241 268<509.959 752.969> 934 281<507 785.278>
VStem: 119 340<559.653 885.099> 867 346<515.565 845.206>
LayerCount: 2
Fore
SplineSet
627 241 m 0,0,1
 511 241 511 241 417 273.5 c 128,-1,2
 323 306 323 306 257 367.5 c 128,-1,3
 191 429 191 429 155 517 c 128,-1,4
 119 605 119 605 119 717 c 0,5,6
 119 828 119 828 156.5 919.5 c 128,-1,7
 194 1011 194 1011 261 1077 c 128,-1,8
 328 1143 328 1143 420 1179 c 128,-1,9
 512 1215 512 1215 622 1215 c 0,10,11
 761 1215 761 1215 870.5 1176.5 c 128,-1,12
 980 1138 980 1138 1056 1064.5 c 128,-1,13
 1132 991 1132 991 1172.5 885 c 128,-1,14
 1213 779 1213 779 1213 644 c 0,15,16
 1213 507 1213 507 1177 390 c 128,-1,17
 1141 273 1141 273 1079.5 175 c 128,-1,18
 1018 77 1018 77 937 -1 c 128,-1,19
 856 -79 856 -79 766.5 -137 c 128,-1,20
 677 -195 677 -195 584 -233.5 c 128,-1,21
 491 -272 491 -272 406 -290 c 1,22,-1
 321 -3 l 1,23,24
 402 13 402 13 467.5 38.5 c 128,-1,25
 533 64 533 64 586 97 c 128,-1,26
 639 130 639 130 680.5 169 c 128,-1,27
 722 208 722 208 754 250 c 1,28,29
 721 245 721 245 689.5 243 c 128,-1,30
 658 241 658 241 627 241 c 0,0,1
459 693 m 0,31,32
 459 653 459 653 470.5 619 c 128,-1,33
 482 585 482 585 503 560.5 c 128,-1,34
 524 536 524 536 554.5 522.5 c 128,-1,35
 585 509 585 509 623 509 c 0,36,37
 641 509 641 509 671 510 c 128,-1,38
 701 511 701 511 732.5 511.5 c 128,-1,39
 764 512 764 512 792.5 513 c 128,-1,40
 821 514 821 514 838 514 c 2,41,-1
 851 514 l 1,42,43
 855 551 855 551 858.5 587 c 128,-1,44
 862 623 862 623 867 658 c 1,45,46
 866 721 866 721 853 772 c 128,-1,47
 840 823 840 823 814 859 c 128,-1,48
 788 895 788 895 747 914.5 c 128,-1,49
 706 934 706 934 648 934 c 0,50,51
 591 934 591 934 554.5 920 c 128,-1,52
 518 906 518 906 497 877 c 128,-1,53
 476 848 476 848 468 802.5 c 128,-1,54
 460 757 460 757 459 693 c 0,31,32
EndSplineSet
EndChar

StartChar: colon
Encoding: 58 58 31
Width: 788
GlyphClass: 2
Flags: W
HStem: 0 461<199 645> 775 462<199 645>
VStem: 199 446<0 461 775 1237>
LayerCount: 2
Fore
SplineSet
199 461 m 1,0,-1
 645 461 l 1,1,-1
 645 0 l 1,2,-1
 199 0 l 1,3,-1
 199 461 l 1,0,-1
199 1237 m 1,4,-1
 645 1237 l 1,5,-1
 645 775 l 1,6,-1
 199 775 l 1,7,-1
 199 1237 l 1,4,-1
EndSplineSet
EndChar

StartChar: semicolon
Encoding: 59 59 32
Width: 791
GlyphClass: 2
Flags: W
HStem: 775 462<200 646>
VStem: 200 446<1.82031 440 775 1237> 390 259<-121.555 0>
LayerCount: 2
Fore
SplineSet
200 1237 m 1,0,-1
 646 1237 l 1,1,-1
 646 775 l 1,2,-1
 200 775 l 1,3,-1
 200 1237 l 1,0,-1
202 440 m 1,4,-1
 649 440 l 1,5,-1
 649 56 l 2,6,7
 649 -40 649 -40 614.5 -104 c 128,-1,8
 580 -168 580 -168 525 -209.5 c 128,-1,9
 470 -251 470 -251 403 -276.5 c 128,-1,10
 336 -302 336 -302 270 -322 c 1,11,-1
 203 -203 l 1,12,13
 253 -185 253 -185 288.5 -166 c 128,-1,14
 324 -147 324 -147 346.5 -123.5 c 128,-1,15
 369 -100 369 -100 379.5 -70 c 128,-1,16
 390 -40 390 -40 390 0 c 1,17,-1
 202 0 l 1,18,-1
 202 440 l 1,4,-1
EndSplineSet
EndChar

StartChar: less
Encoding: 60 60 33
Width: 1228
GlyphClass: 2
Flags: W
LayerCount: 2
Fore
SplineSet
116 731 m 1,0,-1
 1001 1262 l 1,1,-1
 1001 897 l 1,2,-1
 439 607 l 1,3,-1
 1012 316 l 1,4,-1
 1012 -48 l 1,5,-1
 116 473 l 1,6,-1
 116 731 l 1,0,-1
EndSplineSet
EndChar

StartChar: equal
Encoding: 61 61 34
Width: 1252
GlyphClass: 2
Flags: W
HStem: 277 251<148 1105> 678 251<148 1105>
LayerCount: 2
Fore
SplineSet
148 277 m 1,0,-1
 148 528 l 1,1,-1
 1105 528 l 1,2,-1
 1105 277 l 1,3,-1
 148 277 l 1,0,-1
148 678 m 1,4,-1
 148 929 l 1,5,-1
 1105 929 l 1,6,-1
 1105 678 l 1,7,-1
 148 678 l 1,4,-1
EndSplineSet
EndChar

StartChar: greater
Encoding: 62 62 35
Width: 1157
GlyphClass: 2
Flags: W
LayerCount: 2
Fore
SplineSet
185 -48 m 1,0,-1
 185 327 l 1,1,-1
 739 607 l 1,2,-1
 174 886 l 1,3,-1
 174 1262 l 1,4,-1
 1061 730 l 1,5,-1
 1061 473 l 1,6,-1
 185 -48 l 1,0,-1
EndSplineSet
EndChar

StartChar: question
Encoding: 63 63 36
Width: 1104
GlyphClass: 2
Flags: W
HStem: -78 418<278.237 541.766> 1237 21G<81.6264 88> 1310 294<184.108 648.25>
VStem: 205 410<-4.90283 266.999> 219 345<447 708.709> 688 365<1054.56 1268.49>
LayerCount: 2
Fore
SplineSet
206 120 m 0,0,1
 206 124 206 124 205.5 127 c 128,-1,2
 205 130 205 130 205 134 c 0,3,4
 205 181 205 181 221 219 c 128,-1,5
 237 257 237 257 265 284 c 128,-1,6
 293 311 293 311 331 325.5 c 128,-1,7
 369 340 369 340 413 340 c 0,8,9
 460 340 460 340 497.5 323.5 c 128,-1,10
 535 307 535 307 561 278.5 c 128,-1,11
 587 250 587 250 601 211.5 c 128,-1,12
 615 173 615 173 615 130 c 0,13,14
 615 83 615 83 599 44.5 c 128,-1,15
 583 6 583 6 555.5 -21 c 128,-1,16
 528 -48 528 -48 490 -63 c 128,-1,17
 452 -78 452 -78 407 -78 c 0,18,19
 363 -78 363 -78 326 -62.5 c 128,-1,20
 289 -47 289 -47 262.5 -20 c 128,-1,21
 236 7 236 7 221 43 c 128,-1,22
 206 79 206 79 206 120 c 0,0,1
688 1163 m 0,23,24
 688 1216 688 1216 666.5 1245.5 c 128,-1,25
 645 1275 645 1275 610 1289.5 c 128,-1,26
 575 1304 575 1304 529.5 1307 c 128,-1,27
 484 1310 484 1310 435 1310 c 0,28,29
 410 1310 410 1310 375 1305 c 128,-1,30
 340 1300 340 1300 301 1292 c 128,-1,31
 262 1284 262 1284 224 1275 c 128,-1,32
 186 1266 186 1266 156 1258 c 128,-1,33
 126 1250 126 1250 107 1244 c 128,-1,34
 88 1238 88 1238 88 1237 c 2,35,-1
 1 1510 l 1,36,37
 57 1538 57 1538 111.5 1556.5 c 128,-1,38
 166 1575 166 1575 223 1585.5 c 128,-1,39
 280 1596 280 1596 340.5 1600 c 128,-1,40
 401 1604 401 1604 469 1604 c 0,41,42
 596 1604 596 1604 703 1581.5 c 128,-1,43
 810 1559 810 1559 888 1508 c 128,-1,44
 966 1457 966 1457 1009.5 1376 c 128,-1,45
 1053 1295 1053 1295 1053 1178 c 0,46,47
 1053 1155 1053 1155 1049.5 1119.5 c 128,-1,48
 1046 1084 1046 1084 1030.5 1041.5 c 128,-1,49
 1015 999 1015 999 984.5 952.5 c 128,-1,50
 954 906 954 906 899.5 860 c 128,-1,51
 845 814 845 814 763 771.5 c 128,-1,52
 681 729 681 729 564 696 c 1,53,-1
 564 447 l 1,54,-1
 219 447 l 1,55,-1
 219 862 l 1,56,57
 270 879 270 879 325 896 c 128,-1,58
 380 913 380 913 432 932.5 c 128,-1,59
 484 952 484 952 530.5 974.5 c 128,-1,60
 577 997 577 997 612 1025 c 128,-1,61
 647 1053 647 1053 667.5 1087 c 128,-1,62
 688 1121 688 1121 688 1163 c 0,23,24
EndSplineSet
EndChar

StartChar: at
Encoding: 64 64 37
Width: 2027
GlyphClass: 2
Flags: W
HStem: -135 241<778.329 1283.34> 272 209<860.033 1078.28> 1018 189<927.672 1243.8> 1332 258<819.241 1344.19>
VStem: 130 302<417.083 931.201> 554 262<524.503 892.547> 1647 287<615.043 1036.22>
DStem2: 1244 879 1483 973 0.191365 0.981519<-292.846 121.585>
LayerCount: 2
Fore
SplineSet
1002 -135 m 0,0,1
 808 -135 808 -135 648 -78.5 c 128,-1,2
 488 -22 488 -22 372.5 82.5 c 128,-1,3
 257 187 257 187 193.5 335.5 c 128,-1,4
 130 484 130 484 130 669 c 0,5,6
 130 781 130 781 155.5 893 c 128,-1,7
 181 1005 181 1005 232.5 1107.5 c 128,-1,8
 284 1210 284 1210 363.5 1298 c 128,-1,9
 443 1386 443 1386 550.5 1451 c 128,-1,10
 658 1516 658 1516 794.5 1553 c 128,-1,11
 931 1590 931 1590 1098 1590 c 0,12,13
 1207 1590 1207 1590 1311.5 1567 c 128,-1,14
 1416 1544 1416 1544 1509 1499.5 c 128,-1,15
 1602 1455 1602 1455 1680 1389.5 c 128,-1,16
 1758 1324 1758 1324 1814.5 1239.5 c 128,-1,17
 1871 1155 1871 1155 1902.5 1052.5 c 128,-1,18
 1934 950 1934 950 1934 831 c 0,19,20
 1934 749 1934 749 1914.5 670 c 128,-1,21
 1895 591 1895 591 1861 523.5 c 128,-1,22
 1827 456 1827 456 1780.5 402.5 c 128,-1,23
 1734 349 1734 349 1680 318 c 0,24,25
 1652 301 1652 301 1591.5 294 c 128,-1,26
 1531 287 1531 287 1435 287 c 0,27,28
 1344 287 1344 287 1297 343.5 c 128,-1,29
 1250 400 1250 400 1250 506 c 0,30,31
 1250 515 1250 515 1250.5 523.5 c 128,-1,32
 1251 532 1251 532 1255 542 c 1,33,34
 1228 470 1228 470 1200 418.5 c 128,-1,35
 1172 367 1172 367 1135.5 334.5 c 128,-1,36
 1099 302 1099 302 1051.5 287 c 128,-1,37
 1004 272 1004 272 939 272 c 0,38,39
 892 272 892 272 843.5 282 c 128,-1,40
 795 292 795 292 749.5 319 c 128,-1,41
 704 346 704 346 662.5 393.5 c 128,-1,42
 621 441 621 441 588 515 c 0,43,44
 554 589 554 589 554 688 c 0,45,46
 554 752 554 752 567.5 809 c 128,-1,47
 581 866 581 866 604 914 c 128,-1,48
 627 962 627 962 657.5 1002 c 128,-1,49
 688 1042 688 1042 721 1073 c 0,50,51
 793 1140 793 1140 884 1173.5 c 128,-1,52
 975 1207 975 1207 1082 1207 c 0,53,54
 1154 1207 1154 1207 1225.5 1193.5 c 128,-1,55
 1297 1180 1297 1180 1355 1153 c 128,-1,56
 1413 1126 1413 1126 1449 1085.5 c 128,-1,57
 1485 1045 1485 1045 1485 991 c 0,58,59
 1485 977 1485 977 1483 973 c 1,60,-1
 1390 496 l 1,61,62
 1527 521 1527 521 1587 594 c 128,-1,63
 1647 667 1647 667 1647 783 c 0,64,65
 1647 1048 1647 1048 1499.5 1190 c 128,-1,66
 1352 1332 1352 1332 1069 1332 c 0,67,68
 925 1332 925 1332 807 1282.5 c 128,-1,69
 689 1233 689 1233 606 1145 c 128,-1,70
 523 1057 523 1057 477.5 935 c 128,-1,71
 432 813 432 813 432 669 c 0,72,73
 432 517 432 517 479 410.5 c 128,-1,74
 526 304 526 304 613 236 c 128,-1,75
 700 168 700 168 823.5 137 c 128,-1,76
 947 106 947 106 1101 106 c 0,77,78
 1146 106 1146 106 1197.5 121 c 128,-1,79
 1249 136 1249 136 1297 156 c 1,80,-1
 1350 -70 l 1,81,82
 1285 -102 1285 -102 1193.5 -118.5 c 128,-1,83
 1102 -135 1102 -135 1002 -135 c 0,0,1
1087 1018 m 0,84,85
 1022 1018 1022 1018 971.5 997.5 c 128,-1,86
 921 977 921 977 886.5 933.5 c 128,-1,87
 852 890 852 890 834 822.5 c 128,-1,88
 816 755 816 755 816 662 c 0,89,90
 816 628 816 628 825 595.5 c 128,-1,91
 834 563 834 563 851 537.5 c 128,-1,92
 868 512 868 512 892 496.5 c 128,-1,93
 916 481 916 481 946 481 c 0,94,95
 1001 481 1001 481 1043 503 c 128,-1,96
 1085 525 1085 525 1117 563 c 128,-1,97
 1149 601 1149 601 1172 652 c 128,-1,98
 1195 703 1195 703 1213 760.5 c 128,-1,99
 1231 818 1231 818 1244 879 c 128,-1,100
 1257 940 1257 940 1269 998 c 1,101,102
 1224 1005 1224 1005 1180 1011.5 c 128,-1,103
 1136 1018 1136 1018 1087 1018 c 0,84,85
EndSplineSet
EndChar

StartChar: A
Encoding: 65 65 38
Width: 1558
GlyphClass: 2
Flags: W
HStem: 0 21G<27 431.313 1126.69 1531> 358 183<589 986> 1610 20G<557.411 992.687>
DStem2: 986 1630 786 1142 0.3171 -0.948392<399.395 1032.8>
LayerCount: 2
Fore
SplineSet
986 1630 m 1,0,-1
 1531 0 l 1,1,-1
 1133 0 l 1,2,-1
 1020 358 l 1,3,-1
 538 358 l 1,4,-1
 425 0 l 1,5,-1
 27 0 l 1,6,-1
 564 1630 l 1,7,-1
 986 1630 l 1,0,-1
589 541 m 1,8,-1
 986 541 l 1,9,-1
 786 1142 l 1,10,-1
 589 541 l 1,8,-1
EndSplineSet
EndChar

StartChar: B
Encoding: 66 66 39
Width: 1504
GlyphClass: 2
Flags: W
HStem: 0 251<557 965.612> 718 242<557 921.818> 1380 250<557 939.467>
VStem: 158 399<251 718 960 1380> 1020 354<1044.35 1306.78> 1035 394<317.601 637.564>
LayerCount: 2
Fore
SplineSet
595 1630 m 2,0,1
 746 1630 746 1630 852.5 1619 c 128,-1,2
 959 1608 959 1608 1033 1590 c 128,-1,3
 1107 1572 1107 1572 1154 1548.5 c 128,-1,4
 1201 1525 1201 1525 1234 1501 c 0,5,6
 1306 1447 1306 1447 1340 1370 c 128,-1,7
 1374 1293 1374 1293 1374 1192 c 0,8,9
 1374 1128 1374 1128 1347 1070.5 c 128,-1,10
 1320 1013 1320 1013 1272 968 c 128,-1,11
 1224 923 1224 923 1159 893.5 c 128,-1,12
 1094 864 1094 864 1018 856 c 1,13,14
 1130 839 1130 839 1208.5 807.5 c 128,-1,15
 1287 776 1287 776 1336 729 c 128,-1,16
 1385 682 1385 682 1407 620 c 128,-1,17
 1429 558 1429 558 1429 480 c 0,18,19
 1429 352 1429 352 1382 261 c 128,-1,20
 1335 170 1335 170 1245 112 c 128,-1,21
 1155 54 1155 54 1024.5 27 c 128,-1,22
 894 0 894 0 726 0 c 2,23,-1
 522 0 l 1,24,-1
 158 0 l 1,25,-1
 158 1630 l 1,26,-1
 595 1630 l 2,0,1
669 251 m 2,27,28
 760 251 760 251 828.5 255 c 128,-1,29
 897 259 897 259 943 281 c 128,-1,30
 989 303 989 303 1012 349.5 c 128,-1,31
 1035 396 1035 396 1035 481 c 0,32,33
 1035 552 1035 552 1015 598 c 128,-1,34
 995 644 995 644 953 670.5 c 128,-1,35
 911 697 911 697 845 707.5 c 128,-1,36
 779 718 779 718 686 718 c 2,37,-1
 557 718 l 1,38,-1
 557 251 l 1,39,-1
 669 251 l 2,27,28
557 960 m 1,40,-1
 688 960 l 2,41,42
 851 960 851 960 935.5 1011.5 c 128,-1,43
 1020 1063 1020 1063 1020 1165 c 0,44,45
 1020 1220 1020 1220 1004.5 1261 c 128,-1,46
 989 1302 989 1302 951.5 1328 c 128,-1,47
 914 1354 914 1354 852.5 1367 c 128,-1,48
 791 1380 791 1380 699 1380 c 2,49,-1
 557 1380 l 1,50,-1
 557 960 l 1,40,-1
EndSplineSet
EndChar

StartChar: C
Encoding: 67 67 40
Width: 1358
GlyphClass: 2
Flags: W
HStem: -28 287<689.482 1088.65> 1371 286<674.908 1074.97>
VStem: 106 396<488.147 1154.61>
LayerCount: 2
Fore
SplineSet
502 809 m 0,0,1
 502 531 502 531 592.5 395 c 128,-1,2
 683 259 683 259 863 259 c 0,3,4
 951 259 951 259 1036 284.5 c 128,-1,5
 1121 310 1121 310 1210 372 c 1,6,-1
 1317 92 l 1,7,8
 1287 66 1287 66 1237.5 44 c 128,-1,9
 1188 22 1188 22 1124.5 6 c 128,-1,10
 1061 -10 1061 -10 985 -19 c 128,-1,11
 909 -28 909 -28 825 -28 c 0,12,13
 658 -28 658 -28 525 28 c 128,-1,14
 392 84 392 84 299 192 c 128,-1,15
 206 300 206 300 156 458 c 128,-1,16
 106 616 106 616 106 820 c 0,17,18
 106 1028 106 1028 155.5 1185 c 128,-1,19
 205 1342 205 1342 298 1447 c 128,-1,20
 391 1552 391 1552 524 1604.5 c 128,-1,21
 657 1657 657 1657 824 1657 c 0,22,23
 882 1657 882 1657 947 1651.5 c 128,-1,24
 1012 1646 1012 1646 1077 1631.5 c 128,-1,25
 1142 1617 1142 1617 1204.5 1593 c 128,-1,26
 1267 1569 1267 1569 1320 1532 c 1,27,-1
 1211 1252 l 1,28,29
 1158 1286 1158 1286 1112 1309 c 128,-1,30
 1066 1332 1066 1332 1022.5 1345.5 c 128,-1,31
 979 1359 979 1359 937.5 1365 c 128,-1,32
 896 1371 896 1371 853 1371 c 0,33,34
 763 1371 763 1371 697 1339.5 c 128,-1,35
 631 1308 631 1308 587.5 1240 c 128,-1,36
 544 1172 544 1172 523 1065.5 c 128,-1,37
 502 959 502 959 502 809 c 0,0,1
EndSplineSet
EndChar

StartChar: D
Encoding: 68 68 41
Width: 1613
GlyphClass: 2
Flags: W
HStem: 0 251<557 860> 1379 251<557 869.831>
VStem: 158 399<251 1379> 1107 400<506.85 1137.84>
LayerCount: 2
Fore
SplineSet
1107 811 m 0,0,1
 1107 897 1107 897 1100 972.5 c 128,-1,2
 1093 1048 1093 1048 1074 1111 c 128,-1,3
 1055 1174 1055 1174 1020.5 1223.5 c 128,-1,4
 986 1273 986 1273 931 1307.5 c 128,-1,5
 876 1342 876 1342 797.5 1360.5 c 128,-1,6
 719 1379 719 1379 611 1379 c 2,7,-1
 557 1379 l 1,8,-1
 557 251 l 1,9,-1
 613 251 l 2,10,11
 760 251 760 251 855.5 292 c 128,-1,12
 951 333 951 333 1007 406.5 c 128,-1,13
 1063 480 1063 480 1085 583 c 128,-1,14
 1107 686 1107 686 1107 811 c 0,0,1
1507 806 m 0,15,16
 1507 609 1507 609 1455.5 458.5 c 128,-1,17
 1404 308 1404 308 1299 206 c 128,-1,18
 1194 104 1194 104 1034 52 c 128,-1,19
 874 0 874 0 658 0 c 2,20,-1
 158 0 l 1,21,-1
 158 1630 l 1,22,-1
 660 1630 l 2,23,24
 1083 1630 1083 1630 1295 1423 c 128,-1,25
 1507 1216 1507 1216 1507 806 c 0,15,16
EndSplineSet
EndChar

StartChar: E
Encoding: 69 69 42
Width: 1356
GlyphClass: 2
Flags: W
HStem: 0 245<556 1283> 719 245<556 1181> 1379 251<556 1274>
VStem: 158 398<245 719 964 1379>
LayerCount: 2
Fore
SplineSet
158 0 m 1,0,-1
 158 1630 l 1,1,-1
 1274 1630 l 1,2,-1
 1274 1379 l 1,3,-1
 556 1379 l 1,4,-1
 556 964 l 1,5,-1
 1181 964 l 1,6,-1
 1181 719 l 1,7,-1
 556 719 l 1,8,-1
 556 245 l 1,9,-1
 1283 245 l 1,10,-1
 1283 0 l 1,11,-1
 158 0 l 1,0,-1
EndSplineSet
EndChar

StartChar: F
Encoding: 70 70 43
Width: 1298
GlyphClass: 2
Flags: W
HStem: 0 21G<158 556> 719 245<556 1198> 1379 251<556 1290>
VStem: 158 398<0 719 964 1379>
LayerCount: 2
Fore
SplineSet
556 0 m 1,0,-1
 158 0 l 1,1,-1
 158 1630 l 1,2,-1
 1290 1630 l 1,3,-1
 1290 1379 l 1,4,-1
 556 1379 l 1,5,-1
 556 964 l 1,6,-1
 1198 964 l 1,7,-1
 1198 719 l 1,8,-1
 556 719 l 1,9,-1
 556 0 l 1,0,-1
EndSplineSet
EndChar

StartChar: G
Encoding: 71 71 44
Width: 1637
GlyphClass: 2
Flags: W
HStem: -28 286<687.75 1049.24> 0 21G<1216.97 1485> 674 240<771 1136> 1371 286<733.386 1135.47>
VStem: 106 398<493.687 1095.24> 1136 349<292.184 674>
DStem2: 1240 1608.5 1103.5 1337 0.918104 -0.39634<-197.452 180.638>
LayerCount: 2
Fore
SplineSet
1136 674 m 1,0,-1
 771 674 l 1,1,-1
 771 914 l 1,2,-1
 1485 914 l 1,3,-1
 1485 0 l 1,4,-1
 1225 0 l 1,5,-1
 1176 122 l 1,6,7
 1155 83 1155 83 1117 55 c 128,-1,8
 1079 27 1079 27 1029.5 8.5 c 128,-1,9
 980 -10 980 -10 922.5 -19 c 128,-1,10
 865 -28 865 -28 804 -28 c 0,11,12
 643 -28 643 -28 514 23 c 128,-1,13
 385 74 385 74 294.5 176.5 c 128,-1,14
 204 279 204 279 155 433.5 c 128,-1,15
 106 588 106 588 106 794 c 0,16,17
 106 992 106 992 159 1151.5 c 128,-1,18
 212 1311 212 1311 314.5 1423.5 c 128,-1,19
 417 1536 417 1536 567 1596.5 c 128,-1,20
 717 1657 717 1657 911 1657 c 0,21,22
 1017 1657 1017 1657 1098.5 1643 c 128,-1,23
 1180 1629 1180 1629 1240 1608.5 c 128,-1,24
 1300 1588 1300 1588 1339.5 1566 c 128,-1,25
 1379 1544 1379 1544 1402 1528 c 1,26,-1
 1288 1263 l 1,27,28
 1243 1283 1243 1283 1196.5 1302.5 c 128,-1,29
 1150 1322 1150 1322 1103.5 1337 c 128,-1,30
 1057 1352 1057 1352 1011.5 1361.5 c 128,-1,31
 966 1371 966 1371 921 1371 c 0,32,33
 822 1371 822 1371 744.5 1333 c 128,-1,34
 667 1295 667 1295 613.5 1221.5 c 128,-1,35
 560 1148 560 1148 532 1040 c 128,-1,36
 504 932 504 932 504 791 c 0,37,38
 504 682 504 682 523.5 585 c 128,-1,39
 543 488 543 488 584 415.5 c 128,-1,40
 625 343 625 343 688 300.5 c 128,-1,41
 751 258 751 258 837 258 c 256,42,43
 923 258 923 258 995.5 271 c 128,-1,44
 1068 284 1068 284 1136 304 c 1,45,-1
 1136 674 l 1,0,-1
EndSplineSet
EndChar

StartChar: H
Encoding: 72 72 45
Width: 1662
GlyphClass: 2
Flags: W
HStem: 0 21G<158 557 1105 1504> 721 245<557 1105> 1610 20G<158 557 1105 1504>
VStem: 158 399<0 721 966 1630> 1105 399<0 721 966 1630>
LayerCount: 2
Fore
SplineSet
1105 721 m 1,0,-1
 557 721 l 1,1,-1
 557 0 l 1,2,-1
 158 0 l 1,3,-1
 158 1630 l 1,4,-1
 557 1630 l 1,5,-1
 557 966 l 1,6,-1
 1105 966 l 1,7,-1
 1105 1630 l 1,8,-1
 1504 1630 l 1,9,-1
 1504 0 l 1,10,-1
 1105 0 l 1,11,-1
 1105 721 l 1,0,-1
EndSplineSet
EndChar

StartChar: I
Encoding: 73 73 46
Width: 901
GlyphClass: 2
Flags: W
HStem: 0 181<77 249 649 823> 1448 182<77 249 649 823>
VStem: 249 400<181 1448>
LayerCount: 2
Fore
SplineSet
249 181 m 1,0,-1
 249 1448 l 1,1,-1
 77 1448 l 1,2,-1
 77 1630 l 1,3,-1
 823 1630 l 1,4,-1
 823 1448 l 1,5,-1
 649 1448 l 1,6,-1
 649 181 l 1,7,-1
 823 181 l 1,8,-1
 823 0 l 1,9,-1
 77 0 l 1,10,-1
 77 181 l 1,11,-1
 249 181 l 1,0,-1
EndSplineSet
EndChar

StartChar: J
Encoding: 74 74 47
Width: 914
GlyphClass: 2
Flags: W
HStem: 1610 20G<356 756>
VStem: 356 400<294.975 1630>
LayerCount: 2
Fore
SplineSet
30 171 m 1,0,1
 123 183 123 183 185.5 202.5 c 128,-1,2
 248 222 248 222 286 261 c 128,-1,3
 324 300 324 300 340 363 c 128,-1,4
 356 426 356 426 356 525 c 2,5,-1
 356 1630 l 1,6,-1
 756 1630 l 1,7,-1
 756 523 l 2,8,9
 756 361 756 361 718.5 246.5 c 128,-1,10
 681 132 681 132 603.5 58.5 c 128,-1,11
 526 -15 526 -15 408.5 -50 c 128,-1,12
 291 -85 291 -85 132 -89 c 1,13,-1
 30 171 l 1,0,1
EndSplineSet
EndChar

StartChar: K
Encoding: 75 75 48
Width: 1535
GlyphClass: 2
Flags: W
HStem: 0 21G<158 557 1084.01 1546> 1610 20G<158 557 1060.26 1491>
VStem: 158 399<0 685 930 1630> 1073 418<1212 1630> 1098 448<0 448>
DStem2: 942 818 619 685 0.594004 -0.804462<0 750.715> 627 930 942 818 0.560103 0.828423<83.6493 829.702>
LayerCount: 2
Fore
SplineSet
557 0 m 1,0,-1
 158 0 l 1,1,-1
 158 1630 l 1,2,-1
 557 1630 l 1,3,-1
 557 930 l 1,4,-1
 627 930 l 1,5,-1
 1073 1630 l 1,6,-1
 1491 1630 l 1,7,-1
 942 818 l 1,8,-1
 1546 0 l 1,9,-1
 1098 0 l 1,10,-1
 619 685 l 1,11,-1
 557 685 l 1,12,-1
 557 0 l 1,0,-1
EndSplineSet
EndChar

StartChar: L
Encoding: 76 76 49
Width: 1246
GlyphClass: 2
Flags: W
HStem: 0 251<556 1255> 1610 20G<158 556>
VStem: 158 398<251 1630>
LayerCount: 2
Fore
SplineSet
158 0 m 1,0,-1
 158 1630 l 1,1,-1
 556 1630 l 1,2,-1
 556 251 l 1,3,-1
 1255 251 l 1,4,-1
 1255 0 l 1,5,-1
 158 0 l 1,0,-1
EndSplineSet
EndChar

StartChar: M
Encoding: 77 77 50
Width: 2046
GlyphClass: 2
Flags: W
HStem: 0 21G<158 486 833.469 1216.46 1560 1888> 1610 20G<158 624.661 1420.05 1888>
VStem: 158 328<0 1084> 1560 328<0 1084>
DStem2: 618 1630 486 1084 0.315988 -0.948763<476.314 1253.21> 1014 441 1210 0 0.32812 0.944636<0 786.555>
LayerCount: 2
Fore
SplineSet
486 1084 m 1,0,-1
 486 0 l 1,1,-1
 158 0 l 1,2,-1
 158 1630 l 1,3,-1
 618 1630 l 1,4,-1
 1014 441 l 1,5,-1
 1427 1630 l 1,6,-1
 1888 1630 l 1,7,-1
 1888 0 l 1,8,-1
 1560 0 l 1,9,-1
 1560 1084 l 1,10,-1
 1210 0 l 1,11,-1
 840 0 l 1,12,-1
 486 1084 l 1,0,-1
EndSplineSet
EndChar

StartChar: N
Encoding: 78 78 51
Width: 1696
GlyphClass: 2
Flags: W
HStem: 0 21G<158 511 1119.48 1539> 1610 20G<158 589.491 1187 1539>
VStem: 158 353<0 1076> 1187 352<570 1630>
DStem2: 578 1630 511 1076 0.499258 -0.866454<446.565 1222.49>
LayerCount: 2
Fore
SplineSet
1131 0 m 1,0,-1
 511 1076 l 1,1,-1
 511 0 l 1,2,-1
 158 0 l 1,3,-1
 158 1630 l 1,4,-1
 578 1630 l 1,5,-1
 1187 570 l 1,6,-1
 1187 1630 l 1,7,-1
 1539 1630 l 1,8,-1
 1539 0 l 1,9,-1
 1131 0 l 1,0,-1
EndSplineSet
EndChar

StartChar: O
Encoding: 79 79 52
Width: 1691
GlyphClass: 2
Flags: W
HStem: -28 286<674.251 1014.7> 1371 286<674.426 1014.69>
VStem: 106 398<474.461 1153.52> 1187 397<476.151 1153.11>
LayerCount: 2
Fore
SplineSet
1584 814 m 256,0,1
 1584 617 1584 617 1539 461 c 128,-1,2
 1494 305 1494 305 1402.5 196.5 c 128,-1,3
 1311 88 1311 88 1172 30 c 128,-1,4
 1033 -28 1033 -28 845 -28 c 256,5,6
 657 -28 657 -28 518.5 29.5 c 128,-1,7
 380 87 380 87 288 195.5 c 128,-1,8
 196 304 196 304 151 459.5 c 128,-1,9
 106 615 106 615 106 811 c 0,10,11
 106 1010 106 1010 151.5 1167.5 c 128,-1,12
 197 1325 197 1325 289 1433.5 c 128,-1,13
 381 1542 381 1542 520 1599.5 c 128,-1,14
 659 1657 659 1657 845 1657 c 0,15,16
 1032 1657 1032 1657 1171 1599 c 128,-1,17
 1310 1541 1310 1541 1401.5 1432.5 c 128,-1,18
 1493 1324 1493 1324 1538.5 1167.5 c 128,-1,19
 1584 1011 1584 1011 1584 814 c 256,0,1
504 817 m 0,20,21
 504 704 504 704 518 602.5 c 128,-1,22
 532 501 532 501 570 424.5 c 128,-1,23
 608 348 608 348 674 303 c 128,-1,24
 740 258 740 258 845 258 c 0,25,26
 951 258 951 258 1018 304.5 c 128,-1,27
 1085 351 1085 351 1122.5 428.5 c 128,-1,28
 1160 506 1160 506 1173.5 607 c 128,-1,29
 1187 708 1187 708 1187 817 c 0,30,31
 1187 929 1187 929 1172.5 1029.5 c 128,-1,32
 1158 1130 1158 1130 1119.5 1206 c 128,-1,33
 1081 1282 1081 1282 1014.5 1326.5 c 128,-1,34
 948 1371 948 1371 844 1371 c 0,35,36
 739 1371 739 1371 673 1326 c 128,-1,37
 607 1281 607 1281 569.5 1204.5 c 128,-1,38
 532 1128 532 1128 518 1028 c 128,-1,39
 504 928 504 928 504 817 c 0,20,21
EndSplineSet
EndChar

StartChar: P
Encoding: 80 80 53
Width: 1442
GlyphClass: 2
Flags: W
HStem: 0 21G<158 557> 562 234<557 869.204> 1380 250<557 886.358>
VStem: 158 399<0 562 796 1380> 1013 396<921.378 1260.39>
LayerCount: 2
Fore
SplineSet
1409 1081 m 1,0,1
 1409 925 1409 925 1351 824 c 128,-1,2
 1293 723 1293 723 1187.5 665 c 128,-1,3
 1082 607 1082 607 935 584.5 c 128,-1,4
 788 562 788 562 610 562 c 2,5,-1
 557 562 l 1,6,-1
 557 0 l 1,7,-1
 158 0 l 1,8,-1
 158 1630 l 1,9,-1
 638 1630 l 2,10,11
 818 1630 818 1630 960 1604.5 c 128,-1,12
 1102 1579 1102 1579 1200.5 1516 c 128,-1,13
 1299 1453 1299 1453 1352.5 1347 c 128,-1,14
 1406 1241 1406 1241 1409 1081 c 1,0,1
609 796 m 2,15,16
 692 796 692 796 765.5 808.5 c 128,-1,17
 839 821 839 821 894 853 c 128,-1,18
 949 885 949 885 981 939.5 c 128,-1,19
 1013 994 1013 994 1013 1078 c 0,20,21
 1013 1165 1013 1165 988.5 1223.5 c 128,-1,22
 964 1282 964 1282 916.5 1316.5 c 128,-1,23
 869 1351 869 1351 799.5 1365.5 c 128,-1,24
 730 1380 730 1380 639 1380 c 2,25,-1
 557 1380 l 1,26,-1
 557 796 l 1,27,-1
 609 796 l 2,15,16
EndSplineSet
EndChar

StartChar: Q
Encoding: 81 81 54
Width: 1689
GlyphClass: 2
Flags: W
HStem: -434 21G<1124.76 1165.79> 1371 286<677.075 1007.38>
VStem: 106 398<478.973 1150.72> 1185 398<476.275 1143.8>
LayerCount: 2
Fore
SplineSet
1583 817 m 0,0,1
 1583 650 1583 650 1550.5 510.5 c 128,-1,2
 1518 371 1518 371 1451 265.5 c 128,-1,3
 1384 160 1384 160 1283 90 c 128,-1,4
 1182 20 1182 20 1044 -8 c 1,5,-1
 1333 -236 l 1,6,-1
 1147 -434 l 1,7,-1
 680 -14 l 1,8,9
 536 9 536 9 428 75.5 c 128,-1,10
 320 142 320 142 248.5 248 c 128,-1,11
 177 354 177 354 141.5 496.5 c 128,-1,12
 106 639 106 639 106 815 c 0,13,14
 106 1017 106 1017 152.5 1173.5 c 128,-1,15
 199 1330 199 1330 291.5 1437.5 c 128,-1,16
 384 1545 384 1545 522.5 1601 c 128,-1,17
 661 1657 661 1657 846 1657 c 0,18,19
 1033 1657 1033 1657 1171.5 1599 c 128,-1,20
 1310 1541 1310 1541 1401.5 1432 c 128,-1,21
 1493 1323 1493 1323 1538 1167.5 c 128,-1,22
 1583 1012 1583 1012 1583 817 c 0,0,1
844 1371 m 0,23,24
 744 1371 744 1371 678.5 1328 c 128,-1,25
 613 1285 613 1285 574 1210 c 128,-1,26
 535 1135 535 1135 519.5 1033.5 c 128,-1,27
 504 932 504 932 504 816 c 0,28,29
 504 705 504 705 518.5 604 c 128,-1,30
 533 503 533 503 571 426 c 128,-1,31
 609 349 609 349 675 303.5 c 128,-1,32
 741 258 741 258 844 258 c 0,33,34
 945 258 945 258 1011 301 c 128,-1,35
 1077 344 1077 344 1115.5 419 c 128,-1,36
 1154 494 1154 494 1169.5 596 c 128,-1,37
 1185 698 1185 698 1185 816 c 0,38,39
 1185 877 1185 877 1180 942 c 128,-1,40
 1175 1007 1175 1007 1161.5 1068.5 c 128,-1,41
 1148 1130 1148 1130 1124.5 1185 c 128,-1,42
 1101 1240 1101 1240 1063 1281.5 c 128,-1,43
 1025 1323 1025 1323 971 1347 c 128,-1,44
 917 1371 917 1371 844 1371 c 0,23,24
EndSplineSet
EndChar

StartChar: R
Encoding: 82 82 55
Width: 1534
GlyphClass: 2
Flags: W
HStem: 0 21G<158 557 1042 1436> 692 240<557 918.822> 1380 250<557 942.85>
VStem: 158 399<0 692 932 1380> 1026 397<1023.62 1306.4> 1042 394<0 584.972>
LayerCount: 2
Fore
SplineSet
575 932 m 2,0,1
 686 932 686 932 770.5 940 c 128,-1,2
 855 948 855 948 911.5 973 c 128,-1,3
 968 998 968 998 997 1043.5 c 128,-1,4
 1026 1089 1026 1089 1026 1163 c 0,5,6
 1026 1229 1026 1229 1006 1271 c 128,-1,7
 986 1313 986 1313 940 1337 c 128,-1,8
 894 1361 894 1361 818.5 1370.5 c 128,-1,9
 743 1380 743 1380 632 1380 c 2,10,-1
 557 1380 l 1,11,-1
 557 932 l 1,12,-1
 575 932 l 2,0,1
935 811 m 1,13,14
 1043 800 1043 800 1135 774.5 c 128,-1,15
 1227 749 1227 749 1293.5 701 c 128,-1,16
 1360 653 1360 653 1398 578 c 128,-1,17
 1436 503 1436 503 1436 393 c 2,18,-1
 1436 0 l 1,19,-1
 1042 0 l 1,20,-1
 1042 420 l 2,21,22
 1042 498 1042 498 1018 550.5 c 128,-1,23
 994 603 994 603 947 634.5 c 128,-1,24
 900 666 900 666 831 679 c 128,-1,25
 762 692 762 692 672 692 c 2,26,-1
 557 692 l 1,27,-1
 557 0 l 1,28,-1
 158 0 l 1,29,-1
 158 1630 l 1,30,-1
 586 1630 l 2,31,32
 754 1630 754 1630 881.5 1618 c 128,-1,33
 1009 1606 1009 1606 1102 1582 c 128,-1,34
 1195 1558 1195 1558 1256.5 1522.5 c 128,-1,35
 1318 1487 1318 1487 1355 1440.5 c 128,-1,36
 1392 1394 1392 1394 1407.5 1336 c 128,-1,37
 1423 1278 1423 1278 1423 1210 c 0,38,39
 1423 1102 1423 1102 1387 1028.5 c 128,-1,40
 1351 955 1351 955 1286 909 c 128,-1,41
 1221 863 1221 863 1131.5 840.5 c 128,-1,42
 1042 818 1042 818 935 811 c 1,13,14
EndSplineSet
EndChar

StartChar: S
Encoding: 83 83 56
Width: 1375
GlyphClass: 2
Flags: W
HStem: -28 285<484.692 891.928> 1371 286<504.686 1001.46>
VStem: 90 360<1136.73 1318.94> 940 368<294.062 522.089>
DStem2: 568 1097 393 754 0.92109 -0.38935<-143.24 565.639> 990 1621.5 944 1342.5 0.950161 -0.31176<-160.721 283.424>
LayerCount: 2
Fore
SplineSet
1308 464 m 0,0,1
 1308 226 1308 226 1154.5 99 c 128,-1,2
 1001 -28 1001 -28 703 -28 c 0,3,4
 575 -28 575 -28 467.5 -3.5 c 128,-1,5
 360 21 360 21 280 51 c 0,6,7
 187 85 187 85 110 130 c 1,8,-1
 194 407 l 1,9,10
 221 396 l 0,11,12
 248 384 248 384 291.5 367.5 c 128,-1,13
 335 351 335 351 391.5 331.5 c 128,-1,14
 448 312 448 312 507 295.5 c 128,-1,15
 566 279 566 279 622.5 268 c 128,-1,16
 679 257 679 257 725 257 c 0,17,18
 834 257 834 257 887 288 c 128,-1,19
 940 319 940 319 940 396 c 0,20,21
 940 426 940 426 933.5 452 c 128,-1,22
 927 478 927 478 912 501 c 128,-1,23
 897 524 897 524 871.5 543 c 128,-1,24
 846 562 846 562 807 579 c 2,25,-1
 393 754 l 2,26,27
 242 817 242 817 166 927.5 c 128,-1,28
 90 1038 90 1038 90 1194 c 0,29,30
 90 1274 90 1274 115 1339.5 c 128,-1,31
 140 1405 140 1405 183.5 1456.5 c 128,-1,32
 227 1508 227 1508 285.5 1545.5 c 128,-1,33
 344 1583 344 1583 411.5 1608 c 128,-1,34
 479 1633 479 1633 552 1645 c 128,-1,35
 625 1657 625 1657 697 1657 c 0,36,37
 779 1657 779 1657 853 1647 c 128,-1,38
 927 1637 927 1637 990 1621.5 c 128,-1,39
 1053 1606 1053 1606 1103.5 1588 c 128,-1,40
 1154 1570 1154 1570 1189.5 1554.5 c 128,-1,41
 1225 1539 1225 1539 1244 1529 c 2,42,-1
 1262 1519 l 1,43,-1
 1170 1260 l 1,44,-1
 1152 1268 l 2,45,46
 1135 1276 1135 1276 1105 1288.5 c 128,-1,47
 1075 1301 1075 1301 1033.5 1315.5 c 128,-1,48
 992 1330 992 1330 944 1342.5 c 128,-1,49
 896 1355 896 1355 843 1363 c 128,-1,50
 790 1371 790 1371 737 1371 c 0,51,52
 692 1371 692 1371 641.5 1367 c 128,-1,53
 591 1363 591 1363 548.5 1348 c 128,-1,54
 506 1333 506 1333 478 1304 c 128,-1,55
 450 1275 450 1275 450 1225 c 0,56,57
 450 1213 450 1213 451.5 1198.5 c 128,-1,58
 453 1184 453 1184 464 1167.5 c 128,-1,59
 475 1151 475 1151 499 1133 c 128,-1,60
 523 1115 523 1115 568 1097 c 2,61,-1
 940 947 l 2,62,63
 1027 912 1027 912 1095.5 866 c 128,-1,64
 1164 820 1164 820 1211.5 761 c 128,-1,65
 1259 702 1259 702 1283.5 628.5 c 128,-1,66
 1308 555 1308 555 1308 464 c 0,0,1
EndSplineSet
EndChar

StartChar: T
Encoding: 84 84 57
Width: 1186
GlyphClass: 2
Flags: W
HStem: 0 21G<397 796> 1379 251<-20 397 796 1206>
VStem: 397 399<0 1379>
LayerCount: 2
Fore
SplineSet
796 1379 m 1,0,-1
 796 0 l 1,1,-1
 397 0 l 1,2,-1
 397 1379 l 1,3,-1
 -20 1379 l 1,4,-1
 -20 1630 l 1,5,-1
 1206 1630 l 1,6,-1
 1206 1379 l 1,7,-1
 796 1379 l 1,0,-1
EndSplineSet
EndChar

StartChar: U
Encoding: 85 85 58
Width: 1636
GlyphClass: 2
Flags: W
HStem: -28 286<644.366 992.083> 1610 20G<145 544 1094 1492>
VStem: 145 399<385.065 1630> 1094 398<380.931 1630>
LayerCount: 2
Fore
SplineSet
819 258 m 0,0,1
 889 258 889 258 937 274.5 c 128,-1,2
 985 291 985 291 1015.5 321.5 c 128,-1,3
 1046 352 1046 352 1062 395.5 c 128,-1,4
 1078 439 1078 439 1085 493 c 128,-1,5
 1092 547 1092 547 1093 610.5 c 128,-1,6
 1094 674 1094 674 1094 744 c 2,7,-1
 1094 1630 l 1,8,-1
 1492 1630 l 1,9,-1
 1492 748 l 2,10,11
 1492 553 1492 553 1454.5 407.5 c 128,-1,12
 1417 262 1417 262 1336 165.5 c 128,-1,13
 1255 69 1255 69 1127 20.5 c 128,-1,14
 999 -28 999 -28 818 -28 c 0,15,16
 638 -28 638 -28 510.5 20.5 c 128,-1,17
 383 69 383 69 302 165.5 c 128,-1,18
 221 262 221 262 183 407.5 c 128,-1,19
 145 553 145 553 145 748 c 2,20,-1
 145 1630 l 1,21,-1
 544 1630 l 1,22,-1
 544 744 l 2,23,24
 544 674 544 674 544.5 611 c 128,-1,25
 545 548 545 548 551.5 494 c 128,-1,26
 558 440 558 440 574 396 c 128,-1,27
 590 352 590 352 620.5 321.5 c 128,-1,28
 651 291 651 291 699 274.5 c 128,-1,29
 747 258 747 258 819 258 c 0,0,1
EndSplineSet
EndChar

StartChar: V
Encoding: 86 86 59
Width: 1457
GlyphClass: 2
Flags: W
HStem: 0 21G<526.791 929.221> 1610 20G<27 404.215 1048.04 1430>
VStem: 27 371<1259 1630> 1054 376<1254 1630>
DStem2: 398 1630 27 1630 0.296473 -0.955041<0 1128.85> 733 552 923 0 0.297007 0.954875<0 1124.69>
LayerCount: 2
Fore
SplineSet
733 552 m 1,0,-1
 1054 1630 l 1,1,-1
 1430 1630 l 1,2,-1
 923 0 l 1,3,-1
 533 0 l 1,4,-1
 27 1630 l 1,5,-1
 398 1630 l 1,6,-1
 733 552 l 1,0,-1
EndSplineSet
EndChar

StartChar: W
Encoding: 87 87 60
Width: 2084
GlyphClass: 2
Flags: W
HStem: 0 22G<372.73 811.809 1278.12 1713.3> 1610 20G<29 418.785 831.391 1256.61 1670.2 2059>
VStem: 29 386<1244 1630> 1674 385<1245 1630>
DStem2: 630 494 808 0 0.187076 0.982346<0 804.198>
LayerCount: 2
Fore
SplineSet
1253 1630 m 1,0,-1
 1458 494 l 1,1,-1
 1674 1630 l 1,2,-1
 2059 1630 l 1,3,-1
 1709 1 l 1,4,-1
 1282 1 l 1,5,-1
 1043 1234 l 1,6,-1
 808 0 l 1,7,-1
 377 0 l 1,8,-1
 29 1630 l 1,9,-1
 415 1630 l 1,10,-1
 630 494 l 1,11,-1
 835 1630 l 1,12,-1
 1253 1630 l 1,0,-1
EndSplineSet
EndChar

StartChar: X
Encoding: 88 88 61
Width: 1418
GlyphClass: 2
Flags: W
HStem: 0 21G<-11 422.032 995.008 1429> 1610 20G<-11 414.93 1003.07 1429>
VStem: -11 421<0 421 1209 1630> 1007 422<0 422 1208 1630>
DStem2: 403 1630 -11 1630 0.533954 -0.845513<-221.057 597.138 1121.36 1700.7> -11 0 410 0 0.530092 0.84794<223.169 803.093 1328.82 2143.79>
LayerCount: 2
Fore
SplineSet
1015 1630 m 1,0,-1
 1429 1630 l 1,1,-1
 932 825 l 1,2,-1
 1429 0 l 1,3,-1
 1007 0 l 1,4,-1
 709 497 l 1,5,-1
 410 0 l 1,6,-1
 -11 0 l 1,7,-1
 486 825 l 1,8,-1
 -11 1630 l 1,9,-1
 403 1630 l 1,10,-1
 709 1117 l 1,11,-1
 1015 1630 l 1,0,-1
EndSplineSet
EndChar

StartChar: Y
Encoding: 89 89 62
Width: 1268
GlyphClass: 2
Flags: W
HStem: 0 21G<444 820> 1610 20G<-75 331.183 932.758 1346>
VStem: 444 376<0 539>
DStem2: 322 1630 -75 1630 0.42958 -0.903029<0 740.479> 631 957 820 539 0.434287 0.900774<0 741.285>
LayerCount: 2
Fore
SplineSet
942 1630 m 1,0,-1
 1346 1630 l 1,1,-1
 820 539 l 1,2,-1
 820 0 l 1,3,-1
 444 0 l 1,4,-1
 444 539 l 1,5,-1
 -75 1630 l 1,6,-1
 322 1630 l 1,7,-1
 631 957 l 1,8,-1
 942 1630 l 1,0,-1
EndSplineSet
EndChar

StartChar: Z
Encoding: 90 90 63
Width: 1255
GlyphClass: 2
Flags: W
HStem: 0 251<497 1203> 1379 251<49 762>
DStem2: 49 243 497 251 0.524763 0.851249<241.904 1341.17>
LayerCount: 2
Fore
SplineSet
1201 1393 m 1,0,-1
 497 251 l 1,1,-1
 1203 251 l 1,2,-1
 1203 0 l 1,3,-1
 49 0 l 1,4,-1
 49 243 l 1,5,-1
 762 1379 l 1,6,-1
 49 1379 l 1,7,-1
 49 1630 l 1,8,-1
 1201 1630 l 1,9,-1
 1201 1393 l 1,0,-1
EndSplineSet
EndChar

StartChar: bracketleft
Encoding: 91 91 64
Width: 1206
GlyphClass: 2
Flags: W
HStem: 0 251<590 1016> 1380 250<590 1016>
VStem: 233 357<251 1380>
LayerCount: 2
Fore
SplineSet
1016 1630 m 1,0,-1
 1016 1380 l 1,1,-1
 590 1380 l 1,2,-1
 590 251 l 1,3,-1
 1016 251 l 1,4,-1
 1016 0 l 1,5,-1
 233 0 l 1,6,-1
 233 1630 l 1,7,-1
 1016 1630 l 1,0,-1
EndSplineSet
EndChar

StartChar: backslash
Encoding: 92 92 65
Width: 1234
GlyphClass: 2
Flags: W
HStem: 1715 20G<464.304 531.606>
DStem2: 525 1735 176 1620 0.314456 -0.949272<0 1861.96>
LayerCount: 2
Fore
SplineSet
1109 -33 m 1,0,-1
 762 -149 l 1,1,-1
 176 1620 l 1,2,-1
 525 1735 l 1,3,-1
 1109 -33 l 1,0,-1
EndSplineSet
EndChar

StartChar: bracketright
Encoding: 93 93 66
Width: 1200
GlyphClass: 2
Flags: W
HStem: 0 251<243 667> 1379 251<243 667>
VStem: 667 359<251 1379>
LayerCount: 2
Fore
SplineSet
1026 1630 m 1,0,-1
 1026 0 l 1,1,-1
 243 0 l 1,2,-1
 243 251 l 1,3,-1
 667 251 l 1,4,-1
 667 1379 l 1,5,-1
 243 1379 l 1,6,-1
 243 1630 l 1,7,-1
 1026 1630 l 1,0,-1
EndSplineSet
EndChar

StartChar: asciicircum
Encoding: 94 94 67
Width: 1250
GlyphClass: 2
Flags: W
HStem: 587 651
LayerCount: 2
Fore
SplineSet
763 1238 m 1,0,-1
 1026 595 l 1,1,-1
 729 595 l 1,2,-1
 623 992 l 1,3,-1
 517 587 l 1,4,-1
 222 587 l 1,5,-1
 486 1238 l 1,6,-1
 763 1238 l 1,0,-1
EndSplineSet
EndChar

StartChar: underscore
Encoding: 95 95 68
Width: 1154
GlyphClass: 2
Flags: W
HStem: -100 283<63 1098>
LayerCount: 2
Fore
SplineSet
63 -100 m 1,0,-1
 63 183 l 1,1,-1
 1098 183 l 1,2,-1
 1098 -100 l 1,3,-1
 63 -100 l 1,0,-1
EndSplineSet
EndChar

StartChar: grave
Encoding: 96 96 69
Width: 899
GlyphClass: 2
Flags: W
VStem: 175 544
LayerCount: 2
Fore
SplineSet
175 776 m 1,0,-1
 504 931 l 1,1,-1
 719 299 l 1,2,-1
 548 217 l 1,3,-1
 175 776 l 1,0,-1
EndSplineSet
EndChar

StartChar: a
Encoding: 97 97 70
Width: 1280
GlyphClass: 2
Flags: W
HStem: -27 254<490.453 679.422> 0 21G<846.289 1146> 560 195<490.504 771> 985 251<348.106 727.671>
VStem: 72 378<271.879 517.997> 771 375<277.11 557 746 940.305>
LayerCount: 2
Fore
SplineSet
622 985 m 0,0,1
 513 985 513 985 421.5 962 c 128,-1,2
 330 939 330 939 237 896 c 1,3,-1
 149 1119 l 1,4,5
 242 1177 242 1177 364.5 1206.5 c 128,-1,6
 487 1236 487 1236 635 1236 c 0,7,8
 770 1236 770 1236 866.5 1201.5 c 128,-1,9
 963 1167 963 1167 1025 1099 c 128,-1,10
 1087 1031 1087 1031 1116.5 931 c 128,-1,11
 1146 831 1146 831 1146 701 c 2,12,-1
 1146 0 l 1,13,-1
 853 0 l 1,14,-1
 802 152 l 1,15,16
 774 104 774 104 743 70.5 c 128,-1,17
 712 37 712 37 675 15 c 128,-1,18
 638 -7 638 -7 593.5 -17 c 128,-1,19
 549 -27 549 -27 494 -27 c 0,20,21
 395 -27 395 -27 317 -1 c 128,-1,22
 239 25 239 25 184.5 76 c 128,-1,23
 130 127 130 127 101 202 c 128,-1,24
 72 277 72 277 72 375 c 0,25,26
 72 474 72 474 110.5 545.5 c 128,-1,27
 149 617 149 617 223 663.5 c 128,-1,28
 297 710 297 710 405 732.5 c 128,-1,29
 513 755 513 755 653 755 c 0,30,31
 682 755 682 755 711.5 753 c 128,-1,32
 741 751 741 751 771 746 c 1,33,34
 771 786 771 786 767.5 828 c 128,-1,35
 764 870 764 870 749.5 905 c 128,-1,36
 735 940 735 940 705 962.5 c 128,-1,37
 675 985 675 985 622 985 c 0,0,1
593 227 m 0,38,39
 699 227 699 227 771 324 c 1,40,-1
 771 554 l 1,41,42
 738 556 738 556 714 558 c 128,-1,43
 690 560 690 560 686 560 c 0,44,45
 614 560 614 560 568 549.5 c 128,-1,46
 522 539 522 539 496 519.5 c 128,-1,47
 470 500 470 500 460 471.5 c 128,-1,48
 450 443 450 443 450 407 c 0,49,50
 450 324 450 324 486.5 275.5 c 128,-1,51
 523 227 523 227 593 227 c 0,38,39
EndSplineSet
EndChar

StartChar: b
Encoding: 98 98 71
Width: 1385
GlyphClass: 2
Flags: W
HStem: -27 254<623.911 847.241> 0 21G<162 434.765> 985 251<657.38 874.641> 1773 20G<388.8 540>
VStem: 162 378<267.875 918.648 1098 1743> 933 380<329.238 915.394>
LayerCount: 2
Fore
SplineSet
733 227 m 0,0,1
 782 227 782 227 819.5 249 c 128,-1,2
 857 271 857 271 882.5 317 c 128,-1,3
 908 363 908 363 920.5 434 c 128,-1,4
 933 505 933 505 933 603 c 0,5,6
 933 717 933 717 923.5 791 c 128,-1,7
 914 865 914 865 894 908 c 128,-1,8
 874 951 874 951 843 968 c 128,-1,9
 812 985 812 985 768 985 c 0,10,11
 711 985 711 985 655.5 961.5 c 128,-1,12
 600 938 600 938 540 880 c 1,13,-1
 540 308 l 1,14,15
 583 260 583 260 630 243.5 c 128,-1,16
 677 227 677 227 733 227 c 0,0,1
826 -27 m 0,17,18
 563 -27 563 -27 508 170 c 1,19,-1
 425 0 l 1,20,-1
 162 0 l 1,21,-1
 162 1743 l 1,22,-1
 540 1793 l 1,23,-1
 540 1098 l 1,24,25
 600 1167 600 1167 679.5 1201.5 c 128,-1,26
 759 1236 759 1236 865 1236 c 256,27,28
 971 1236 971 1236 1054.5 1190 c 128,-1,29
 1138 1144 1138 1144 1195.5 1062 c 128,-1,30
 1253 980 1253 980 1283 867 c 128,-1,31
 1313 754 1313 754 1313 620 c 0,32,33
 1313 465 1313 465 1284 344.5 c 128,-1,34
 1255 224 1255 224 1195 141.5 c 128,-1,35
 1135 59 1135 59 1043.5 16 c 128,-1,36
 952 -27 952 -27 826 -27 c 0,17,18
EndSplineSet
EndChar

StartChar: c
Encoding: 99 99 72
Width: 1131
GlyphClass: 2
Flags: W
HStem: -27 254<584.283 937.214> 985 251<575.33 926.073>
VStem: 72 381<370.875 847.554>
LayerCount: 2
Fore
SplineSet
690 -27 m 0,0,1
 564 -27 564 -27 469 2 c 128,-1,2
 374 31 374 31 305.5 79.5 c 128,-1,3
 237 128 237 128 192 191.5 c 128,-1,4
 147 255 147 255 120 323.5 c 128,-1,5
 93 392 93 392 82.5 461 c 128,-1,6
 72 530 72 530 72 590 c 0,7,8
 72 728 72 728 114.5 846 c 128,-1,9
 157 964 157 964 237 1051 c 128,-1,10
 317 1138 317 1138 432 1187 c 128,-1,11
 547 1236 547 1236 693 1236 c 0,12,13
 773 1236 773 1236 834.5 1226.5 c 128,-1,14
 896 1217 896 1217 942.5 1202 c 128,-1,15
 989 1187 989 1187 1021.5 1169 c 128,-1,16
 1054 1151 1054 1151 1076 1135 c 1,17,-1
 1008 893 l 1,18,19
 986 908 986 908 958 924 c 128,-1,20
 930 940 930 940 895.5 953.5 c 128,-1,21
 861 967 861 967 818.5 976 c 128,-1,22
 776 985 776 985 726 985 c 0,23,24
 665 985 665 985 614.5 964 c 128,-1,25
 564 943 564 943 528 897.5 c 128,-1,26
 492 852 492 852 472.5 780.5 c 128,-1,27
 453 709 453 709 453 607 c 0,28,29
 453 416 453 416 528 321.5 c 128,-1,30
 603 227 603 227 760 227 c 0,31,32
 832 227 832 227 897 253.5 c 128,-1,33
 962 280 962 280 1007 315 c 1,34,-1
 1075 74 l 1,35,36
 1051 56 1051 56 1016 38 c 128,-1,37
 981 20 981 20 934 5.5 c 128,-1,38
 887 -9 887 -9 826.5 -18 c 128,-1,39
 766 -27 766 -27 690 -27 c 0,0,1
EndSplineSet
EndChar

StartChar: d
Encoding: 100 100 73
Width: 1377
GlyphClass: 2
Flags: W
HStem: -27 254<536.537 735.589> 0 21G<949.235 1225> 985 251<514.285 723.388> 1774 20G<1076.76 1225>
VStem: 72 379<329.205 911.53> 847 378<264.087 916.492 1082 1743>
LayerCount: 2
Fore
SplineSet
451 606 m 0,0,1
 451 419 451 419 499 323 c 128,-1,2
 547 227 547 227 650 227 c 0,3,4
 723 227 723 227 771 247 c 128,-1,5
 819 267 819 267 847 308 c 1,6,-1
 847 880 l 1,7,8
 787 934 787 934 729.5 959.5 c 128,-1,9
 672 985 672 985 616 985 c 0,10,11
 569 985 569 985 537 962 c 128,-1,12
 505 939 505 939 486 891.5 c 128,-1,13
 467 844 467 844 459 773 c 128,-1,14
 451 702 451 702 451 606 c 0,0,1
535 1236 m 0,15,16
 735 1236 735 1236 847 1082 c 1,17,-1
 847 1743 l 1,18,-1
 1225 1794 l 1,19,-1
 1225 0 l 1,20,-1
 959 0 l 1,21,-1
 876 170 l 1,22,23
 863 126 863 126 831 90 c 128,-1,24
 799 54 799 54 754.5 28 c 128,-1,25
 710 2 710 2 658.5 -12.5 c 128,-1,26
 607 -27 607 -27 555 -27 c 0,27,28
 456 -27 456 -27 381.5 1.5 c 128,-1,29
 307 30 307 30 253.5 79 c 128,-1,30
 200 128 200 128 165 193.5 c 128,-1,31
 130 259 130 259 109.5 334 c 128,-1,32
 89 409 89 409 80.5 489 c 128,-1,33
 72 569 72 569 72 646 c 0,34,35
 72 767 72 767 103.5 874.5 c 128,-1,36
 135 982 135 982 194 1062 c 128,-1,37
 253 1142 253 1142 339 1189 c 128,-1,38
 425 1236 425 1236 535 1236 c 0,15,16
EndSplineSet
EndChar

StartChar: e
Encoding: 101 101 74
Width: 1253
GlyphClass: 2
Flags: W
HStem: -27 254<579.051 957.664> 694 3<460 866> 985 251<548.83 791.46>
VStem: 72 389<349.042 512 697 865.152>
LayerCount: 2
Fore
SplineSet
1111 69 m 1,0,1
 1012 20 1012 20 914 -3.5 c 128,-1,2
 816 -27 816 -27 707 -27 c 0,3,4
 564 -27 564 -27 447 12 c 128,-1,5
 330 51 330 51 247 126 c 128,-1,6
 164 201 164 201 118 310.5 c 128,-1,7
 72 420 72 420 72 560 c 0,8,9
 72 723 72 723 111.5 849.5 c 128,-1,10
 151 976 151 976 227.5 1061.5 c 128,-1,11
 304 1147 304 1147 416 1191.5 c 128,-1,12
 528 1236 528 1236 674 1236 c 0,13,14
 795 1236 795 1236 887.5 1195 c 128,-1,15
 980 1154 980 1154 1043 1081 c 128,-1,16
 1106 1008 1106 1008 1138.5 907 c 128,-1,17
 1171 806 1171 806 1171 686 c 0,18,19
 1171 643 1171 643 1171 599.5 c 128,-1,20
 1171 556 1171 556 1172 512 c 1,21,-1
 461 512 l 1,22,23
 463 449 463 449 482.5 396.5 c 128,-1,24
 502 344 502 344 537.5 306.5 c 128,-1,25
 573 269 573 269 623.5 248 c 128,-1,26
 674 227 674 227 737 227 c 0,27,28
 827 227 827 227 901.5 250 c 128,-1,29
 976 273 976 273 1042 321 c 1,30,-1
 1111 69 l 1,0,1
866 694 m 2,31,32
 866 843 866 843 817.5 912 c 128,-1,33
 769 981 769 981 665 985 c 1,34,35
 611 981 611 981 572 957 c 128,-1,36
 533 933 533 933 508 894.5 c 128,-1,37
 483 856 483 856 471.5 805 c 128,-1,38
 460 754 460 754 460 697 c 1,39,-1
 866 697 l 1,40,-1
 866 694 l 2,31,32
EndSplineSet
EndChar

StartChar: f
Encoding: 102 102 75
Width: 869
GlyphClass: 2
Flags: W
HStem: 0 21G<208 586> 1044 155<12 208 587 869> 1475 280<631.091 869.87>
VStem: 208 378<0 1044 1199 1429.47>
LayerCount: 2
Fore
SplineSet
727 1475 m 0,0,1
 694 1475 694 1475 668 1462.5 c 128,-1,2
 642 1450 642 1450 624 1419 c 128,-1,3
 606 1388 606 1388 596.5 1334.5 c 128,-1,4
 587 1281 587 1281 587 1199 c 1,5,-1
 869 1199 l 1,6,-1
 869 1044 l 1,7,-1
 586 1044 l 1,8,-1
 586 0 l 1,9,-1
 208 0 l 1,10,-1
 208 1044 l 1,11,-1
 12 1044 l 1,12,-1
 12 1199 l 1,13,-1
 208 1199 l 1,14,15
 208 1332 208 1332 233.5 1436 c 128,-1,16
 259 1540 259 1540 311.5 1610.5 c 128,-1,17
 364 1681 364 1681 445.5 1718 c 128,-1,18
 527 1755 527 1755 638 1755 c 0,19,20
 723 1755 723 1755 779 1746 c 128,-1,21
 835 1737 835 1737 871 1730 c 1,22,-1
 877 1453 l 1,23,24
 841 1459 841 1459 802 1467 c 128,-1,25
 763 1475 763 1475 727 1475 c 0,0,1
EndSplineSet
EndChar

StartChar: g
Encoding: 103 103 76
Width: 1299
GlyphClass: 2
Flags: W
HStem: -591 274<397.083 868.988> 984 252<501.372 786.461 1075.24 1331>
VStem: 67 298<-283.219 -85.9594> 128 337<670.445 946.558> 829 311<704.57 944.398> 934 331<-262.38 -65.0189>
LayerCount: 2
Fore
SplineSet
589 -317 m 0,0,1
 706 -317 706 -317 775 -304.5 c 128,-1,2
 844 -292 844 -292 879 -269.5 c 128,-1,3
 914 -247 914 -247 924 -216 c 128,-1,4
 934 -185 934 -185 934 -147 c 0,5,6
 934 -104 934 -104 919 -78 c 128,-1,7
 904 -52 904 -52 860.5 -35 c 128,-1,8
 817 -18 817 -18 739 -6 c 128,-1,9
 661 6 661 6 535 20 c 1,10,11
 510 12 510 12 480 -12 c 128,-1,12
 450 -36 450 -36 424.5 -66.5 c 128,-1,13
 399 -97 399 -97 382 -130 c 128,-1,14
 365 -163 365 -163 365 -189 c 0,15,16
 365 -237 365 -237 387 -263 c 128,-1,17
 409 -289 409 -289 442.5 -301 c 128,-1,18
 476 -313 476 -313 515.5 -315 c 128,-1,19
 555 -317 555 -317 589 -317 c 0,0,1
691 637 m 2,20,21
 712 639 712 639 736 656.5 c 128,-1,22
 760 674 760 674 781 700.5 c 128,-1,23
 802 727 802 727 815.5 760 c 128,-1,24
 829 793 829 793 829 825 c 0,25,26
 829 907 829 907 785 945.5 c 128,-1,27
 741 984 741 984 651 984 c 0,28,29
 603 984 603 984 567.5 975.5 c 128,-1,30
 532 967 532 967 509.5 947.5 c 128,-1,31
 487 928 487 928 476 895.5 c 128,-1,32
 465 863 465 863 465 814 c 0,33,34
 465 754 465 754 487 705.5 c 128,-1,35
 509 657 509 657 563 628 c 1,36,-1
 691 637 l 2,20,21
1075 994 m 1,37,38
 1140 895 1140 895 1140 840 c 0,39,40
 1140 799 1140 799 1132.5 755 c 128,-1,41
 1125 711 1125 711 1106 668 c 128,-1,42
 1087 625 1087 625 1055.5 585.5 c 128,-1,43
 1024 546 1024 546 976.5 514 c 128,-1,44
 929 482 929 482 864 460 c 128,-1,45
 799 438 799 438 713 430 c 2,46,-1
 404 404 l 1,47,-1
 422 282 l 1,48,-1
 697 260 l 1,49,50
 839 247 839 247 945.5 217.5 c 128,-1,51
 1052 188 1052 188 1123 138 c 128,-1,52
 1194 88 1194 88 1229.5 15 c 128,-1,53
 1265 -58 1265 -58 1265 -157 c 0,54,55
 1265 -369 1265 -369 1100.5 -480 c 128,-1,56
 936 -591 936 -591 599 -591 c 0,57,58
 452 -591 452 -591 350.5 -570 c 128,-1,59
 249 -549 249 -549 186 -504 c 128,-1,60
 123 -459 123 -459 95 -389 c 128,-1,61
 67 -319 67 -319 67 -222 c 0,62,63
 67 -178 67 -178 82.5 -136 c 128,-1,64
 98 -94 98 -94 126.5 -55.5 c 128,-1,65
 155 -17 155 -17 194.5 16.5 c 128,-1,66
 234 50 234 50 282 76 c 1,67,68
 188 84 188 84 141.5 146 c 128,-1,69
 95 208 95 208 95 319 c 0,70,71
 95 373 95 373 109.5 411 c 128,-1,72
 124 449 124 449 156 477.5 c 128,-1,73
 188 506 188 506 240.5 527.5 c 128,-1,74
 293 549 293 549 370 568 c 1,75,76
 316 569 316 569 271.5 584.5 c 128,-1,77
 227 600 227 600 195 631 c 128,-1,78
 163 662 163 662 145.5 707 c 128,-1,79
 128 752 128 752 128 811 c 0,80,81
 128 910 128 910 162.5 989 c 128,-1,82
 197 1068 197 1068 260.5 1123 c 128,-1,83
 324 1178 324 1178 413.5 1207 c 128,-1,84
 503 1236 503 1236 613 1236 c 0,85,86
 725 1236 725 1236 804.5 1220.5 c 128,-1,87
 884 1205 884 1205 933 1176 c 1,88,89
 1011 1211 1011 1211 1096.5 1223.5 c 128,-1,90
 1182 1236 1182 1236 1277 1236 c 2,91,-1
 1331 1236 l 1,92,-1
 1331 994 l 1,93,-1
 1075 994 l 1,37,38
EndSplineSet
EndChar

StartChar: h
Encoding: 104 104 77
Width: 1417
GlyphClass: 2
Flags: W
HStem: 0 21G<162 539 906 1284> 985 251<652.336 855> 1776 20G<421.188 539>
VStem: 162 377<0 951.687 1099 1732> 906 378<0 923.13>
LayerCount: 2
Fore
SplineSet
539 1099 m 1,0,1
 561 1130 561 1130 594.5 1155.5 c 128,-1,2
 628 1181 628 1181 668.5 1199 c 128,-1,3
 709 1217 709 1217 756.5 1226.5 c 128,-1,4
 804 1236 804 1236 855 1236 c 0,5,6
 957 1236 957 1236 1037 1204 c 128,-1,7
 1117 1172 1117 1172 1171.5 1111 c 128,-1,8
 1226 1050 1226 1050 1255 960.5 c 128,-1,9
 1284 871 1284 871 1284 757 c 2,10,-1
 1284 0 l 1,11,-1
 906 0 l 1,12,-1
 906 784 l 2,13,14
 906 830 906 830 892 867.5 c 128,-1,15
 878 905 878 905 855.5 931 c 128,-1,16
 833 957 833 957 803.5 971 c 128,-1,17
 774 985 774 985 744 985 c 0,18,19
 691 985 691 985 659.5 980 c 128,-1,20
 628 975 628 975 607.5 965.5 c 128,-1,21
 587 956 587 956 572.5 942.5 c 128,-1,22
 558 929 558 929 539 913 c 1,23,-1
 539 0 l 1,24,-1
 162 0 l 1,25,-1
 162 1732 l 1,26,-1
 539 1796 l 1,27,-1
 539 1099 l 1,0,1
EndSplineSet
EndChar

StartChar: i
Encoding: 105 105 78
Width: 694
GlyphClass: 2
Flags: W
HStem: 0 21G<159 536> 1178 20G<159 536> 1466 417<217.706 476.988>
VStem: 139 419<1545.45 1802.51> 159 377<0 1198 1591 1756>
LayerCount: 2
Fore
SplineSet
159 0 m 1,0,-1
 159 1198 l 1,1,-1
 536 1198 l 1,2,-1
 536 0 l 1,3,-1
 159 0 l 1,0,-1
139 1674 m 256,4,5
 139 1718 139 1718 155 1756 c 128,-1,6
 171 1794 171 1794 199.5 1822.5 c 128,-1,7
 228 1851 228 1851 265.5 1867 c 128,-1,8
 303 1883 303 1883 347 1883 c 0,9,10
 390 1883 390 1883 428 1867 c 128,-1,11
 466 1851 466 1851 495 1823 c 128,-1,12
 524 1795 524 1795 541 1756.5 c 128,-1,13
 558 1718 558 1718 558 1674 c 0,14,15
 558 1629 558 1629 541 1591 c 128,-1,16
 524 1553 524 1553 494.5 1525 c 128,-1,17
 465 1497 465 1497 427 1481.5 c 128,-1,18
 389 1466 389 1466 347 1466 c 0,19,20
 302 1466 302 1466 263.5 1482 c 128,-1,21
 225 1498 225 1498 197.5 1526 c 128,-1,22
 170 1554 170 1554 154.5 1592 c 128,-1,23
 139 1630 139 1630 139 1674 c 256,4,5
EndSplineSet
EndChar

StartChar: j
Encoding: 106 106 79
Width: 748
GlyphClass: 2
Flags: W
HStem: -357 21G<99.5098 157> 1178 20G<206 585> 1462 418<264.049 520.335>
VStem: 191 406<1536.8 1803.46> 206 379<41.4718 1198 1522.98 1817.35>
LayerCount: 2
Fore
SplineSet
191 1671 m 0,0,1
 191 1717 191 1717 206.5 1755 c 128,-1,2
 222 1793 222 1793 249 1821 c 128,-1,3
 276 1849 276 1849 313 1864.5 c 128,-1,4
 350 1880 350 1880 393 1880 c 256,5,6
 436 1880 436 1880 473 1864 c 128,-1,7
 510 1848 510 1848 537.5 1820 c 128,-1,8
 565 1792 565 1792 581 1754 c 128,-1,9
 597 1716 597 1716 597 1671 c 0,10,11
 597 1624 597 1624 581 1585.5 c 128,-1,12
 565 1547 565 1547 537 1519.5 c 128,-1,13
 509 1492 509 1492 472 1477 c 128,-1,14
 435 1462 435 1462 393 1462 c 0,15,16
 346 1462 346 1462 309 1479 c 128,-1,17
 272 1496 272 1496 245.5 1524.5 c 128,-1,18
 219 1553 219 1553 205 1591 c 128,-1,19
 191 1629 191 1629 191 1671 c 0,0,1
-12 -102 m 1,20,21
 36 -74 36 -74 76 -46 c 128,-1,22
 116 -18 116 -18 145 18 c 128,-1,23
 174 54 174 54 190 102.5 c 128,-1,24
 206 151 206 151 206 219 c 2,25,-1
 206 1198 l 1,26,-1
 585 1198 l 1,27,-1
 585 214 l 2,28,29
 585 103 585 103 546.5 8.5 c 128,-1,30
 508 -86 508 -86 442.5 -160 c 128,-1,31
 377 -234 377 -234 291 -284.5 c 128,-1,32
 205 -335 205 -335 109 -357 c 1,33,-1
 -12 -102 l 1,20,21
EndSplineSet
EndChar

StartChar: k
Encoding: 107 107 80
Width: 1403
GlyphClass: 2
Flags: W
HStem: 0 21G<162 540 960.548 1400> 1179 20G<961.346 1392> 1775 20G<394.615 540>
VStem: 162 378<0 417 771 1743> 982 410<789 1199>
DStem2: 540 771 866 670 0.705093 0.709115<158.24 615.152>
LayerCount: 2
Fore
SplineSet
540 0 m 1,0,-1
 162 0 l 1,1,-1
 162 1743 l 1,2,-1
 540 1795 l 1,3,-1
 540 771 l 1,4,-1
 982 1199 l 1,5,-1
 1392 1199 l 1,6,-1
 866 670 l 1,7,-1
 1400 0 l 1,8,-1
 974 0 l 1,9,-1
 633 507 l 1,10,-1
 540 417 l 1,11,-1
 540 0 l 1,0,-1
EndSplineSet
EndChar

StartChar: l
Encoding: 108 108 81
Width: 715
GlyphClass: 2
Flags: W
HStem: 0 21G<168 547> 1774 20G<398.373 547>
VStem: 168 379<0 1743>
LayerCount: 2
Fore
SplineSet
547 0 m 1,0,-1
 168 0 l 1,1,-1
 168 1743 l 1,2,-1
 547 1794 l 1,3,-1
 547 0 l 1,0,-1
EndSplineSet
EndChar

StartChar: m
Encoding: 109 109 82
Width: 2022
GlyphClass: 2
Flags: W
HStem: 0 21G<162 540 842 1220 1510 1889> 988 248<644.934 859.5 1293.22 1515> 1178 20G<162 437.341>
VStem: 162 378<0 920.125> 842 378<0 932.376> 1510 379<0 959.572>
LayerCount: 2
Fore
SplineSet
540 0 m 1,0,-1
 162 0 l 1,1,-1
 162 1198 l 1,2,-1
 428 1198 l 1,3,-1
 513 1016 l 1,4,5
 556 1136 556 1136 635.5 1186 c 128,-1,6
 715 1236 715 1236 831 1236 c 0,7,8
 888 1236 888 1236 936.5 1227 c 128,-1,9
 985 1218 985 1218 1025.5 1197.5 c 128,-1,10
 1066 1177 1066 1177 1098.5 1144 c 128,-1,11
 1131 1111 1131 1111 1155 1062 c 1,12,13
 1186 1107 1186 1107 1221 1140 c 128,-1,14
 1256 1173 1256 1173 1298.5 1194 c 128,-1,15
 1341 1215 1341 1215 1394 1225.5 c 128,-1,16
 1447 1236 1447 1236 1515 1236 c 0,17,18
 1608 1236 1608 1236 1678 1205.5 c 128,-1,19
 1748 1175 1748 1175 1795 1116.5 c 128,-1,20
 1842 1058 1842 1058 1865.5 973 c 128,-1,21
 1889 888 1889 888 1889 779 c 2,22,-1
 1889 0 l 1,23,-1
 1510 0 l 1,24,-1
 1510 809 l 2,25,26
 1510 987 1510 987 1391 987 c 0,27,28
 1366 987 1366 987 1344.5 980.5 c 128,-1,29
 1323 974 1323 974 1303 961.5 c 128,-1,30
 1283 949 1283 949 1262.5 931 c 128,-1,31
 1242 913 1242 913 1220 891 c 1,32,-1
 1220 0 l 1,33,-1
 842 0 l 1,34,-1
 842 821 l 2,35,36
 842 912 842 912 815 950 c 128,-1,37
 788 988 788 988 728 988 c 0,38,39
 696 988 696 988 665.5 975 c 128,-1,40
 635 962 635 962 610 942.5 c 128,-1,41
 585 923 585 923 566.5 900 c 128,-1,42
 548 877 548 877 540 856 c 1,43,-1
 540 0 l 1,0,-1
EndSplineSet
EndChar

StartChar: n
Encoding: 110 110 83
Width: 1386
GlyphClass: 2
Flags: W
HStem: 0 21G<162 540 874 1252> 985 251<642.171 833.523> 1178 20G<162 458.669>
VStem: 162 378<0 939.188> 874 378<0 944.375>
LayerCount: 2
Fore
SplineSet
522 1047 m 1,0,1
 567 1145 567 1145 640 1190.5 c 128,-1,2
 713 1236 713 1236 824 1236 c 0,3,4
 1047 1236 1047 1236 1149.5 1115 c 128,-1,5
 1252 994 1252 994 1252 745 c 2,6,-1
 1252 0 l 1,7,-1
 874 0 l 1,8,-1
 874 773 l 2,9,10
 874 835 874 835 864.5 876 c 128,-1,11
 855 917 855 917 835.5 941 c 128,-1,12
 816 965 816 965 786.5 975 c 128,-1,13
 757 985 757 985 718 985 c 0,14,15
 647 985 647 985 604.5 955 c 128,-1,16
 562 925 562 925 540 882 c 1,17,-1
 540 0 l 1,18,-1
 162 0 l 1,19,-1
 162 1198 l 1,20,-1
 449 1198 l 1,21,-1
 522 1047 l 1,0,1
EndSplineSet
EndChar

StartChar: o
Encoding: 111 111 84
Width: 1329
GlyphClass: 2
Flags: W
HStem: -25 254<532.751 783.923> 986 251<533.181 781.812>
VStem: 66 379<329.353 878.194> 873 376<335.52 877.706>
LayerCount: 2
Fore
SplineSet
658 229 m 1,0,1
 711 229 711 229 751 249.5 c 128,-1,2
 791 270 791 270 818 315 c 128,-1,3
 845 360 845 360 859 431.5 c 128,-1,4
 873 503 873 503 873 605 c 0,5,6
 873 706 873 706 859 778.5 c 128,-1,7
 845 851 845 851 818 897 c 128,-1,8
 791 943 791 943 751 964.5 c 128,-1,9
 711 986 711 986 658 986 c 256,10,11
 605 986 605 986 565 964.5 c 128,-1,12
 525 943 525 943 498.5 897 c 128,-1,13
 472 851 472 851 458.5 779 c 128,-1,14
 445 707 445 707 445 605 c 0,15,16
 445 563 445 563 447 519 c 128,-1,17
 449 475 449 475 456.5 433.5 c 128,-1,18
 464 392 464 392 478 355.5 c 128,-1,19
 492 319 492 319 515.5 291 c 128,-1,20
 539 263 539 263 574 246.5 c 128,-1,21
 609 230 609 230 658 229 c 1,0,1
1249 602 m 0,22,23
 1249 450 1249 450 1209.5 333 c 128,-1,24
 1170 216 1170 216 1094 136.5 c 128,-1,25
 1018 57 1018 57 908.5 16 c 128,-1,26
 799 -25 799 -25 658 -25 c 0,27,28
 518 -25 518 -25 408 16 c 128,-1,29
 298 57 298 57 222 136.5 c 128,-1,30
 146 216 146 216 106 333 c 128,-1,31
 66 450 66 450 66 602 c 0,32,33
 66 756 66 756 106.5 874.5 c 128,-1,34
 147 993 147 993 223 1073.5 c 128,-1,35
 299 1154 299 1154 409 1195.5 c 128,-1,36
 519 1237 519 1237 657 1237 c 256,37,38
 795 1237 795 1237 904.5 1195.5 c 128,-1,39
 1014 1154 1014 1154 1090.5 1073.5 c 128,-1,40
 1167 993 1167 993 1208 874.5 c 128,-1,41
 1249 756 1249 756 1249 602 c 0,22,23
EndSplineSet
EndChar

StartChar: p
Encoding: 112 112 85
Width: 1389
GlyphClass: 2
Flags: W
HStem: -411 21G<162 540> -27 254<646.567 864.007> 985 251<630.691 865.77> 1178 20G<162 459.342>
VStem: 162 378<-411 120 306.372 921.735> 936 381<315.023 916.932>
LayerCount: 2
Fore
SplineSet
766 985 m 0,0,1
 702 985 702 985 646.5 960 c 128,-1,2
 591 935 591 935 540 882 c 1,3,-1
 540 339 l 1,4,5
 616 279 616 279 671.5 253 c 128,-1,6
 727 227 727 227 772 227 c 0,7,8
 808 227 808 227 834.5 245 c 128,-1,9
 861 263 861 263 879.5 293 c 128,-1,10
 898 323 898 323 909 361 c 128,-1,11
 920 399 920 399 926 439.5 c 128,-1,12
 932 480 932 480 934 519.5 c 128,-1,13
 936 559 936 559 936 591 c 0,14,15
 936 673 936 673 932 745 c 128,-1,16
 928 817 928 817 911.5 870.5 c 128,-1,17
 895 924 895 924 860.5 954.5 c 128,-1,18
 826 985 826 985 766 985 c 0,0,1
814 -27 m 0,19,20
 729 -27 729 -27 661.5 9 c 128,-1,21
 594 45 594 45 540 120 c 1,22,-1
 540 -411 l 1,23,-1
 162 -411 l 1,24,-1
 162 1198 l 1,25,-1
 450 1198 l 1,26,-1
 521 1046 l 1,27,28
 548 1140 548 1140 625.5 1188 c 128,-1,29
 703 1236 703 1236 840 1236 c 0,30,31
 971 1236 971 1236 1062 1188.5 c 128,-1,32
 1153 1141 1153 1141 1209.5 1055 c 128,-1,33
 1266 969 1266 969 1291.5 849 c 128,-1,34
 1317 729 1317 729 1317 585 c 0,35,36
 1317 430 1317 430 1279.5 315 c 128,-1,37
 1242 200 1242 200 1175 124 c 128,-1,38
 1108 48 1108 48 1015.5 10.5 c 128,-1,39
 923 -27 923 -27 814 -27 c 0,19,20
EndSplineSet
EndChar

StartChar: q
Encoding: 113 113 86
Width: 1377
GlyphClass: 2
Flags: W
HStem: -410 21G<847 1225> -27 254<512.254 727.472> 985 251<541.119 736.241> 1178 20G<892.418 1225>
VStem: 72 378<296.362 876.932> 847 378<-410 121 302.547 917.084>
LayerCount: 2
Fore
SplineSet
612 227 m 0,0,1
 671 227 671 227 727.5 254 c 128,-1,2
 784 281 784 281 847 342 c 1,3,-1
 847 852 l 1,4,5
 823 890 823 890 803.5 915.5 c 128,-1,6
 784 941 784 941 763 956.5 c 128,-1,7
 742 972 742 972 717 978.5 c 128,-1,8
 692 985 692 985 658 985 c 0,9,10
 594 985 594 985 553.5 953 c 128,-1,11
 513 921 513 921 490 867 c 128,-1,12
 467 813 467 813 458.5 741.5 c 128,-1,13
 450 670 450 670 450 591 c 0,14,15
 450 560 450 560 450.5 521 c 128,-1,16
 451 482 451 482 455 441.5 c 128,-1,17
 459 401 459 401 468.5 362.5 c 128,-1,18
 478 324 478 324 496 294 c 128,-1,19
 514 264 514 264 542 245.5 c 128,-1,20
 570 227 570 227 612 227 c 0,0,1
572 1236 m 0,21,22
 614 1236 614 1236 652 1228.5 c 128,-1,23
 690 1221 690 1221 724.5 1199.5 c 128,-1,24
 759 1178 759 1178 789.5 1139.5 c 128,-1,25
 820 1101 820 1101 847 1040 c 1,26,-1
 899 1198 l 1,27,-1
 1225 1198 l 1,28,-1
 1225 -410 l 1,29,-1
 847 -410 l 1,30,-1
 847 121 l 1,31,32
 781 46 781 46 712.5 9.5 c 128,-1,33
 644 -27 644 -27 565 -27 c 0,34,35
 431 -27 431 -27 337.5 23.5 c 128,-1,36
 244 74 244 74 185 158.5 c 128,-1,37
 126 243 126 243 99 353 c 128,-1,38
 72 463 72 463 72 581 c 0,39,40
 72 901 72 901 196.5 1068.5 c 128,-1,41
 321 1236 321 1236 572 1236 c 0,21,22
EndSplineSet
EndChar

StartChar: r
Encoding: 114 114 87
Width: 893
GlyphClass: 2
Flags: W
HStem: 0 21G<162 540> 875 322<654.826 765.219 767.999 885> 895 302<655.266 884.094>
VStem: 162 378<0 844.855>
LayerCount: 2
Fore
SplineSet
530 1008 m 1,0,1
 552 1066 552 1066 588 1102.5 c 128,-1,2
 624 1139 624 1139 670.5 1159.5 c 128,-1,3
 717 1180 717 1180 771.5 1188 c 128,-1,4
 826 1196 826 1196 885 1197 c 1,5,-1
 885 875 l 1,6,7
 856 885 856 885 827.5 890 c 128,-1,8
 799 895 799 895 767 895 c 0,9,10
 710 895 710 895 653.5 876.5 c 128,-1,11
 597 858 597 858 540 815 c 1,12,-1
 540 0 l 1,13,-1
 162 0 l 1,14,-1
 162 1198 l 1,15,-1
 488 1198 l 1,16,-1
 530 1008 l 1,0,1
EndSplineSet
EndChar

StartChar: s
Encoding: 115 115 88
Width: 1121
GlyphClass: 2
Flags: W
HStem: -27 254<298.141 669.574> 985 251<434.766 825.875>
VStem: 79 342<813.569 966.113> 685 352<245.128 410.751>
DStem2: 169.5 315.5 142.5 52.5 0.945416 -0.325867<-6.34028 371.403> 368.5 252 311 1 0.979039 -0.203674<-229.091 165.01> 464.5 814 340 540 0.925547 -0.378633<-65.082 377.58> 879.5 1188.5 811 944.5 0.95884 -0.283948<-229.327 144.51>
LayerCount: 2
Fore
SplineSet
340 540 m 2,0,1
 288 561 288 561 241 586 c 128,-1,2
 194 611 194 611 158 650 c 128,-1,3
 122 689 122 689 100.5 746.5 c 128,-1,4
 79 804 79 804 79 891 c 0,5,6
 79 969 79 969 112.5 1033 c 128,-1,7
 146 1097 146 1097 209 1142 c 128,-1,8
 272 1187 272 1187 363 1211.5 c 128,-1,9
 454 1236 454 1236 570 1236 c 0,10,11
 626 1236 626 1236 681 1229 c 128,-1,12
 736 1222 736 1222 786.5 1211.5 c 128,-1,13
 837 1201 837 1201 879.5 1188.5 c 128,-1,14
 922 1176 922 1176 953 1166 c 128,-1,15
 984 1156 984 1156 1001 1149.5 c 128,-1,16
 1018 1143 1018 1143 1017 1144 c 1,17,-1
 949 905 l 1,18,-1
 949 904 l 1,19,20
 946 904 946 904 927.5 910 c 128,-1,21
 909 916 909 916 879 925 c 128,-1,22
 849 934 849 934 811 944.5 c 128,-1,23
 773 955 773 955 733 964 c 128,-1,24
 693 973 693 973 653 979 c 128,-1,25
 613 985 613 985 579 985 c 0,26,27
 532 985 532 985 501.5 978.5 c 128,-1,28
 471 972 471 972 453 959.5 c 128,-1,29
 435 947 435 947 428 927.5 c 128,-1,30
 421 908 421 908 421 882 c 0,31,32
 421 865 421 865 425 853 c 128,-1,33
 429 841 429 841 438.5 831.5 c 128,-1,34
 448 822 448 822 464.5 814 c 128,-1,35
 481 806 481 806 506 796 c 2,36,-1
 717 715 l 2,37,38
 796 685 796 685 855.5 649 c 128,-1,39
 915 613 915 613 955.5 570 c 128,-1,40
 996 527 996 527 1016.5 475.5 c 128,-1,41
 1037 424 1037 424 1037 361 c 0,42,43
 1037 248 1037 248 993.5 173.5 c 128,-1,44
 950 99 950 99 880 54.5 c 128,-1,45
 810 10 810 10 722 -8.5 c 128,-1,46
 634 -27 634 -27 544 -27 c 0,47,48
 481 -27 481 -27 422 -19 c 128,-1,49
 363 -11 363 -11 311 1 c 128,-1,50
 259 13 259 13 216 27 c 128,-1,51
 173 41 173 41 142.5 52.5 c 128,-1,52
 112 64 112 64 95.5 71.5 c 128,-1,53
 79 79 79 79 81 78 c 1,54,-1
 149 322 l 1,55,56
 151 322 151 322 169.5 315.5 c 128,-1,57
 188 309 188 309 218 298 c 128,-1,58
 248 287 248 287 287 275 c 128,-1,59
 326 263 326 263 368.5 252 c 128,-1,60
 411 241 411 241 453.5 234 c 128,-1,61
 496 227 496 227 533 227 c 0,62,63
 582 227 582 227 612 234 c 128,-1,64
 642 241 642 241 658 256.5 c 128,-1,65
 674 272 674 272 679.5 296 c 128,-1,66
 685 320 685 320 685 353 c 0,67,68
 685 374 685 374 660 396.5 c 128,-1,69
 635 419 635 419 582 441 c 2,70,-1
 340 540 l 2,0,1
EndSplineSet
EndChar

StartChar: t
Encoding: 116 116 89
Width: 946
GlyphClass: 2
Flags: W
HStem: -27 254<588 827.817> 1044 154<-20 199 575 912> 1722 20G<493 575>
VStem: 199 376<262.684 1044 1198 1652>
LayerCount: 2
Fore
SplineSet
588 -27 m 0,0,1
 498 -27 498 -27 426 0.5 c 128,-1,2
 354 28 354 28 303.5 87.5 c 128,-1,3
 253 147 253 147 226 241.5 c 128,-1,4
 199 336 199 336 199 470 c 2,5,-1
 199 1044 l 1,6,-1
 -20 1044 l 1,7,-1
 -20 1198 l 1,8,-1
 206 1198 l 1,9,-1
 206 1652 l 1,10,-1
 575 1742 l 1,11,-1
 575 1198 l 1,12,-1
 912 1198 l 1,13,-1
 912 1044 l 1,14,-1
 575 1044 l 1,15,-1
 575 445 l 2,16,17
 575 399 575 399 581.5 359.5 c 128,-1,18
 588 320 588 320 602 290.5 c 128,-1,19
 616 261 616 261 639.5 244 c 128,-1,20
 663 227 663 227 697 227 c 0,21,22
 718 227 718 227 740 233 c 128,-1,23
 762 239 762 239 783.5 248.5 c 128,-1,24
 805 258 805 258 824 269.5 c 128,-1,25
 843 281 843 281 857 291 c 1,26,-1
 943 65 l 1,27,28
 940 63 940 63 914 48.5 c 128,-1,29
 888 34 888 34 842.5 17 c 128,-1,30
 797 0 797 0 732.5 -13.5 c 128,-1,31
 668 -27 668 -27 588 -27 c 0,0,1
EndSplineSet
EndChar

StartChar: u
Encoding: 117 117 90
Width: 1370
GlyphClass: 2
Flags: W
HStem: -27 251<547.984 748.324> 0 21G<931.82 1208> 1178 20G<134 507 829 1208>
VStem: 134 373<267.616 1198> 829 379<270.281 1198>
LayerCount: 2
Fore
SplineSet
507 435 m 2,0,1
 507 389 507 389 513.5 350 c 128,-1,2
 520 311 520 311 537 283 c 128,-1,3
 554 255 554 255 583 239.5 c 128,-1,4
 612 224 612 224 657 224 c 0,5,6
 714 224 714 224 754.5 249 c 128,-1,7
 795 274 795 274 829 317 c 1,8,-1
 829 1198 l 1,9,-1
 1208 1198 l 1,10,-1
 1208 0 l 1,11,-1
 941 0 l 1,12,-1
 857 183 l 1,13,14
 844 127 844 127 818 87.5 c 128,-1,15
 792 48 792 48 755.5 22.5 c 128,-1,16
 719 -3 719 -3 673.5 -15 c 128,-1,17
 628 -27 628 -27 577 -27 c 0,18,19
 350 -27 350 -27 242 96.5 c 128,-1,20
 134 220 134 220 134 464 c 2,21,-1
 134 1198 l 1,22,-1
 507 1198 l 1,23,-1
 507 435 l 2,0,1
EndSplineSet
EndChar

StartChar: v
Encoding: 118 118 91
Width: 1214
GlyphClass: 2
Flags: W
HStem: 0 21G<370.706 845.344> 1178 20G<0 402.812 811.279 1219>
LayerCount: 2
Fore
SplineSet
377 0 m 1,0,-1
 0 1198 l 1,1,-1
 398 1198 l 1,2,-1
 609 321 l 1,3,-1
 816 1198 l 1,4,-1
 1219 1198 l 1,5,-1
 839 0 l 1,6,-1
 377 0 l 1,0,-1
EndSplineSet
EndChar

StartChar: w
Encoding: 119 119 92
Width: 1626
GlyphClass: 2
Flags: W
HStem: 0 21G<301.875 663.3 961.615 1328.14> 1178 20G<0 353.705 648.145 982.839 1285.06 1631>
DStem2: 1132 401 811 707 0.188527 -0.982068<-361.03 0>
LayerCount: 2
Fore
SplineSet
811 707 m 1,0,-1
 659 0 l 1,1,-1
 307 0 l 1,2,-1
 0 1198 l 1,3,-1
 350 1198 l 1,4,-1
 498 399 l 1,5,-1
 652 1198 l 1,6,-1
 979 1198 l 1,7,-1
 1132 401 l 1,8,-1
 1289 1198 l 1,9,-1
 1631 1198 l 1,10,-1
 1323 0 l 1,11,-1
 966 0 l 1,12,-1
 811 707 l 1,0,-1
EndSplineSet
EndChar

StartChar: x
Encoding: 120 120 93
Width: 1224
GlyphClass: 2
Flags: W
HStem: 0 21G<14 441.64 789.186 1213> 1178 20G<5 442.605 788.827 1219>
LayerCount: 2
Fore
SplineSet
431 0 m 1,0,-1
 14 0 l 1,1,-1
 421 604 l 1,2,-1
 5 1198 l 1,3,-1
 431 1198 l 1,4,-1
 619 874 l 1,5,-1
 800 1198 l 1,6,-1
 1219 1198 l 1,7,-1
 812 604 l 1,8,-1
 1213 0 l 1,9,-1
 800 0 l 1,10,-1
 614 344 l 1,11,-1
 431 0 l 1,0,-1
EndSplineSet
EndChar

StartChar: y
Encoding: 121 121 94
Width: 1230
GlyphClass: 2
Flags: W
HStem: -484 256<242 353.094> 1178 20G<0 394.909 847.294 1234>
LayerCount: 2
Fore
SplineSet
0 1198 m 1,0,-1
 388 1198 l 1,1,-1
 664 399 l 1,2,-1
 852 1198 l 1,3,-1
 1234 1198 l 1,4,-1
 829 -33 l 2,5,6
 793 -143 793 -143 744 -226.5 c 128,-1,7
 695 -310 695 -310 625.5 -367 c 128,-1,8
 556 -424 556 -424 462 -453.5 c 128,-1,9
 368 -483 368 -483 242 -484 c 1,10,-1
 136 -228 l 1,11,12
 236 -221 236 -221 298.5 -203.5 c 128,-1,13
 361 -186 361 -186 400 -153.5 c 128,-1,14
 439 -121 439 -121 461 -72 c 128,-1,15
 483 -23 483 -23 501 46 c 1,16,-1
 0 1198 l 1,0,-1
EndSplineSet
EndChar

StartChar: z
Encoding: 122 122 95
Width: 1091
GlyphClass: 2
Flags: W
HStem: 0 251<514 1009> 946 253<109 599>
DStem2: 99 247 514 251 0.581788 0.81334<244.696 859.419>
LayerCount: 2
Fore
SplineSet
109 946 m 1,0,-1
 109 1199 l 1,1,-1
 997 1199 l 1,2,-1
 997 954 l 1,3,-1
 514 251 l 1,4,-1
 1009 251 l 1,5,-1
 1009 0 l 1,6,-1
 99 0 l 1,7,-1
 99 247 l 1,8,-1
 599 946 l 1,9,-1
 109 946 l 1,0,-1
EndSplineSet
EndChar

StartChar: braceleft
Encoding: 123 123 96
Width: 883
GlyphClass: 2
Flags: W
HStem: 565 196<154 226.812>
VStem: 255 355<3.22412 543.483 782.969 1325.42>
LayerCount: 2
Fore
SplineSet
610 1002 m 0,0,1
 610 905 610 905 591 844 c 128,-1,2
 572 783 572 783 544 746 c 128,-1,3
 516 709 516 709 484.5 691.5 c 128,-1,4
 453 674 453 674 428 664 c 1,5,6
 519 629 519 629 565.5 543.5 c 128,-1,7
 612 458 612 458 612 324 c 0,8,9
 612 210 612 210 615.5 142 c 128,-1,10
 619 74 619 74 629.5 38 c 128,-1,11
 640 2 640 2 659 -9 c 128,-1,12
 678 -20 678 -20 710 -20 c 1,13,-1
 710 -217 l 1,14,15
 662 -217 662 -217 610 -211 c 128,-1,16
 558 -205 558 -205 507.5 -187.5 c 128,-1,17
 457 -170 457 -170 411.5 -138.5 c 128,-1,18
 366 -107 366 -107 332 -56.5 c 128,-1,19
 298 -6 298 -6 277.5 66 c 128,-1,20
 257 138 257 138 257 238 c 2,21,-1
 257 290 l 2,22,23
 257 371 257 371 251.5 424 c 128,-1,24
 246 477 246 477 233.5 508.5 c 128,-1,25
 221 540 221 540 201.5 552.5 c 128,-1,26
 182 565 182 565 154 565 c 1,27,-1
 154 761 l 1,28,29
 181 761 181 761 200.5 774 c 128,-1,30
 220 787 220 787 232 817.5 c 128,-1,31
 244 848 244 848 249.5 899.5 c 128,-1,32
 255 951 255 951 255 1028 c 2,33,-1
 255 1086 l 2,34,35
 255 1184 255 1184 275 1256.5 c 128,-1,36
 295 1329 295 1329 329.5 1379.5 c 128,-1,37
 364 1430 364 1430 409.5 1462 c 128,-1,38
 455 1494 455 1494 505.5 1512.5 c 128,-1,39
 556 1531 556 1531 608.5 1537.5 c 128,-1,40
 661 1544 661 1544 710 1544 c 1,41,-1
 710 1347 l 1,42,43
 680 1347 680 1347 661 1337.5 c 128,-1,44
 642 1328 642 1328 630.5 1292.5 c 128,-1,45
 619 1257 619 1257 614.5 1188.5 c 128,-1,46
 610 1120 610 1120 610 1002 c 0,0,1
EndSplineSet
EndChar

StartChar: bar
Encoding: 124 124 97
Width: 858
GlyphClass: 2
Flags: W
HStem: 1699 20G<264 594>
VStem: 264 330<-155 1719>
LayerCount: 2
Fore
SplineSet
264 1719 m 1,0,-1
 594 1719 l 1,1,-1
 594 -155 l 1,2,-1
 264 -155 l 1,3,-1
 264 1719 l 1,0,-1
EndSplineSet
EndChar

StartChar: braceright
Encoding: 125 125 98
Width: 883
GlyphClass: 2
Flags: W
HStem: 568 194<650.609 724>
VStem: 267 355<2.21594 540.739 782.93 1331.35>
LayerCount: 2
Fore
SplineSet
268 1004 m 0,0,1
 268 1125 268 1125 263 1194 c 128,-1,2
 258 1263 258 1263 246.5 1297 c 128,-1,3
 235 1331 235 1331 216 1339.5 c 128,-1,4
 197 1348 197 1348 169 1348 c 1,5,-1
 169 1546 l 1,6,7
 217 1546 217 1546 269.5 1540 c 128,-1,8
 322 1534 322 1534 372.5 1516 c 128,-1,9
 423 1498 423 1498 468.5 1466.5 c 128,-1,10
 514 1435 514 1435 548.5 1384 c 128,-1,11
 583 1333 583 1333 603.5 1260 c 128,-1,12
 624 1187 624 1187 624 1087 c 0,13,14
 624 1071 624 1071 623.5 1055 c 128,-1,15
 623 1039 623 1039 623 1025 c 0,16,17
 623 949 623 949 628 898.5 c 128,-1,18
 633 848 633 848 645 817.5 c 128,-1,19
 657 787 657 787 676.5 774.5 c 128,-1,20
 696 762 696 762 724 762 c 1,21,-1
 724 568 l 1,22,23
 696 568 696 568 676.5 555 c 128,-1,24
 657 542 657 542 645 510.5 c 128,-1,25
 633 479 633 479 627.5 426 c 128,-1,26
 622 373 622 373 622 293 c 2,27,-1
 622 240 l 2,28,29
 622 142 622 142 602 70.5 c 128,-1,30
 582 -1 582 -1 548 -52 c 128,-1,31
 514 -103 514 -103 469 -135 c 128,-1,32
 424 -167 424 -167 373.5 -185 c 128,-1,33
 323 -203 323 -203 270.5 -209.5 c 128,-1,34
 218 -216 218 -216 169 -216 c 1,35,-1
 169 -19 l 1,36,37
 196 -19 196 -19 214.5 -11 c 128,-1,38
 233 -3 233 -3 245 29.5 c 128,-1,39
 257 62 257 62 262 127.5 c 128,-1,40
 267 193 267 193 267 307 c 0,41,42
 267 449 267 449 310.5 538 c 128,-1,43
 354 627 354 627 451 665 c 1,44,45
 421 675 421 675 389 694.5 c 128,-1,46
 357 714 357 714 330 751.5 c 128,-1,47
 303 789 303 789 285.5 850 c 128,-1,48
 268 911 268 911 268 1004 c 0,0,1
EndSplineSet
EndChar

StartChar: asciitilde
Encoding: 126 126 99
Width: 1278
GlyphClass: 2
Flags: W
HStem: 200 237<704.273 879.367> 359 227<425.227 585.217>
VStem: 191 221<229 329.083> 883 234<439.287 543>
LayerCount: 2
Fore
SplineSet
874 200 m 0,0,1
 823 200 823 200 772.5 216.5 c 128,-1,2
 722 233 722 233 680 258 c 0,3,4
 655 273 655 273 626 290.5 c 128,-1,5
 597 308 597 308 568.5 323.5 c 128,-1,6
 540 339 540 339 515 349 c 128,-1,7
 490 359 490 359 472 359 c 0,8,9
 441 359 441 359 426.5 330 c 128,-1,10
 412 301 412 301 412 229 c 1,11,-1
 191 229 l 1,12,13
 191 406 191 406 250.5 496 c 128,-1,14
 310 586 310 586 431 586 c 0,15,16
 477 586 477 586 515 575 c 128,-1,17
 553 564 553 564 586 547.5 c 128,-1,18
 619 531 619 531 648.5 511.5 c 128,-1,19
 678 492 678 492 706 475.5 c 128,-1,20
 734 459 734 459 762.5 448 c 128,-1,21
 791 437 791 437 823 437 c 0,22,23
 841 437 841 437 852.5 441 c 128,-1,24
 864 445 864 445 871 456.5 c 128,-1,25
 878 468 878 468 880.5 488.5 c 128,-1,26
 883 509 883 509 883 543 c 1,27,-1
 1117 543 l 1,28,29
 1117 466 1117 466 1100 402.5 c 128,-1,30
 1083 339 1083 339 1051.5 294 c 128,-1,31
 1020 249 1020 249 975 224.5 c 128,-1,32
 930 200 930 200 874 200 c 0,0,1
EndSplineSet
EndChar

StartChar: exclamdown
Encoding: 161 161 101
Width: 819
GlyphClass: 2
Flags: W
HStem: -1 21G<171 642> 1169 419<289.698 539.353>
VStem: 211 408<1249.08 1508.52> 298 222<965.959 1089>
LayerCount: 2
Fore
SplineSet
642 -1 m 1,0,-1
 171 -1 l 1,1,-1
 298 1089 l 1,2,-1
 520 1089 l 1,3,-1
 642 -1 l 1,0,-1
211 1380 m 0,4,5
 211 1420 211 1420 226.5 1458 c 128,-1,6
 242 1496 242 1496 269 1524.5 c 128,-1,7
 296 1553 296 1553 333 1570.5 c 128,-1,8
 370 1588 370 1588 412 1588 c 256,9,10
 454 1588 454 1588 492 1571.5 c 128,-1,11
 530 1555 530 1555 558 1527 c 128,-1,12
 586 1499 586 1499 602.5 1461 c 128,-1,13
 619 1423 619 1423 619 1380 c 256,14,15
 619 1337 619 1337 603 1299 c 128,-1,16
 587 1261 587 1261 559.5 1232 c 128,-1,17
 532 1203 532 1203 494 1186 c 128,-1,18
 456 1169 456 1169 412 1169 c 256,19,20
 368 1169 368 1169 331.5 1186.5 c 128,-1,21
 295 1204 295 1204 268 1233 c 128,-1,22
 241 1262 241 1262 226 1300.5 c 128,-1,23
 211 1339 211 1339 211 1380 c 0,4,5
EndSplineSet
EndChar

StartChar: cent
Encoding: 162 162 102
Width: 1129
GlyphClass: 2
Flags: W
HStem: -4 248<815 943.146>
VStem: 74 380<380.179 858.025> 641 174<-150 -13 256 961 1224 1427>
LayerCount: 2
Fore
SplineSet
454 606 m 0,0,1
 454 319 454 319 641 256 c 1,2,-1
 641 963 l 1,3,4
 575 949 575 949 538 911 c 128,-1,5
 501 873 501 873 482.5 823 c 128,-1,6
 464 773 464 773 459 715.5 c 128,-1,7
 454 658 454 658 454 606 c 0,0,1
641 -13 m 1,8,9
 524 -9 524 -9 420.5 33 c 128,-1,10
 317 75 317 75 240 152.5 c 128,-1,11
 163 230 163 230 118.5 343.5 c 128,-1,12
 74 457 74 457 74 606 c 0,13,14
 74 754 74 754 122.5 868 c 128,-1,15
 171 982 171 982 251 1060.5 c 128,-1,16
 331 1139 331 1139 432.5 1180 c 128,-1,17
 534 1221 534 1221 641 1224 c 1,18,-1
 641 1427 l 1,19,-1
 815 1427 l 1,20,-1
 815 1215 l 1,21,22
 855 1207 855 1207 888.5 1198.5 c 128,-1,23
 922 1190 922 1190 952.5 1179 c 128,-1,24
 983 1168 983 1168 1013 1154.5 c 128,-1,25
 1043 1141 1043 1141 1077 1123 c 1,26,-1
 1009 881 l 1,27,28
 1002 890 1002 890 983 901 c 128,-1,29
 964 912 964 912 937.5 923 c 128,-1,30
 911 934 911 934 879.5 944.5 c 128,-1,31
 848 955 848 955 815 961 c 1,32,-1
 815 244 l 1,33,34
 843 244 843 244 876.5 257.5 c 128,-1,35
 910 271 910 271 939.5 287 c 128,-1,36
 969 303 969 303 988 316 c 2,37,-1
 1007 330 l 1,38,-1
 1077 91 l 1,39,40
 1052 76 l 0,41,42
 1028 61 1028 61 990 43 c 128,-1,43
 952 25 952 25 905.5 10.5 c 128,-1,44
 859 -4 859 -4 815 -4 c 1,45,-1
 815 -150 l 1,46,-1
 641 -150 l 1,47,-1
 641 -13 l 1,8,9
EndSplineSet
EndChar

StartChar: sterling
Encoding: 163 163 103
Width: 1250
GlyphClass: 2
Flags: W
HStem: 0 246<496 1103> 588 158<649 1044> 1084 282<583.656 922.935>
VStem: 202 347<824.446 1048.12> 342 307<412.985 588>
LayerCount: 2
Fore
SplineSet
196 239 m 1,0,1
 209 255 209 255 233.5 293 c 128,-1,2
 258 331 258 331 282 380 c 128,-1,3
 306 429 306 429 324 484 c 128,-1,4
 342 539 342 539 342 589 c 1,5,-1
 218 589 l 1,6,-1
 218 739 l 1,7,-1
 318 739 l 1,8,9
 318 737 318 737 299.5 754 c 128,-1,10
 281 771 281 771 259.5 803.5 c 128,-1,11
 238 836 238 836 220 882 c 128,-1,12
 202 928 202 928 202 984 c 0,13,14
 202 1064 202 1064 232.5 1133.5 c 128,-1,15
 263 1203 263 1203 323 1255 c 128,-1,16
 383 1307 383 1307 472 1336.5 c 128,-1,17
 561 1366 561 1366 679 1366 c 0,18,19
 781 1366 781 1366 860 1348.5 c 128,-1,20
 939 1331 939 1331 995.5 1308 c 128,-1,21
 1052 1285 1052 1285 1085.5 1263.5 c 128,-1,22
 1119 1242 1119 1242 1129 1233 c 1,23,-1
 993 991 l 1,24,25
 980 1003 980 1003 956.5 1019.5 c 128,-1,26
 933 1036 933 1036 899.5 1050 c 128,-1,27
 866 1064 866 1064 823 1074 c 128,-1,28
 780 1084 780 1084 728 1084 c 0,29,30
 665 1084 665 1084 629 1069 c 128,-1,31
 593 1054 593 1054 575.5 1031 c 128,-1,32
 558 1008 558 1008 553.5 981.5 c 128,-1,33
 549 955 549 955 549 932 c 0,34,35
 549 895 549 895 565 851 c 128,-1,36
 581 807 581 807 628 746 c 1,37,-1
 1044 746 l 1,38,-1
 1044 588 l 1,39,-1
 649 588 l 1,40,41
 649 532 649 532 637.5 485 c 128,-1,42
 626 438 626 438 609 399.5 c 128,-1,43
 592 361 592 361 572.5 332 c 128,-1,44
 553 303 553 303 536 283.5 c 128,-1,45
 519 264 519 264 507.5 254 c 128,-1,46
 496 244 496 244 496 245 c 2,47,-1
 496 246 l 1,48,-1
 1103 246 l 1,49,-1
 1103 0 l 1,50,-1
 196 0 l 1,51,-1
 196 239 l 1,0,1
EndSplineSet
EndChar

StartChar: currency
Encoding: 164 164 104
Width: 1445
GlyphClass: 2
Flags: W
HStem: 557 184<586.357 873.599> 1288 187<600.273 886.672>
VStem: 277 185<863.601 1150.56> 1009 186<877.512 1166.78>
DStem2: 282 1602 148 1468 0.707107 -0.707107<0 306.804 1164.8 1482.1> 148 554 282 419 0.707444 0.70677<0 295.963 1189.45 1482.19>
LayerCount: 2
Fore
SplineSet
350 755 m 1,0,1
 277 865 277 865 277 999 c 0,2,3
 277 1137 277 1137 358 1259 c 1,4,-1
 148 1468 l 1,5,-1
 282 1602 l 1,6,-1
 492 1392 l 1,7,8
 611 1475 611 1475 755 1475 c 0,9,10
 887 1475 887 1475 997 1403 c 1,11,-1
 1197 1602 l 1,12,-1
 1330 1468 l 1,13,-1
 1129 1266 l 1,14,15
 1195 1161 1195 1161 1195 1035 c 0,16,17
 1195 892 1195 892 1113 771 c 1,18,-1
 1330 554 l 1,19,-1
 1197 419 l 1,20,-1
 978 638 l 1,21,22
 858 557 858 557 718 557 c 0,23,24
 593 557 593 557 487 622 c 1,25,-1
 282 419 l 1,26,-1
 148 554 l 1,27,-1
 350 755 l 1,0,1
747 1288 m 0,28,29
 691 1288 691 1288 639.5 1265 c 128,-1,30
 588 1242 588 1242 548.5 1203.5 c 128,-1,31
 509 1165 509 1165 485.5 1114 c 128,-1,32
 462 1063 462 1063 462 1007 c 256,33,34
 462 951 462 951 484.5 902.5 c 128,-1,35
 507 854 507 854 545 818 c 128,-1,36
 583 782 583 782 632 761.5 c 128,-1,37
 681 741 681 741 735 741 c 256,38,39
 789 741 789 741 838.5 765 c 128,-1,40
 888 789 888 789 926 828.5 c 128,-1,41
 964 868 964 868 986.5 919 c 128,-1,42
 1009 970 1009 970 1009 1024 c 256,43,44
 1009 1078 1009 1078 987 1126 c 128,-1,45
 965 1174 965 1174 928.5 1210 c 128,-1,46
 892 1246 892 1246 845 1267 c 128,-1,47
 798 1288 798 1288 747 1288 c 0,28,29
EndSplineSet
EndChar

StartChar: yen
Encoding: 165 165 105
Width: 1319
GlyphClass: 2
Flags: W
HStem: 0 840<47 1262> 416 127<130 465 844 1180> 680 125<130 335 977 1180> 1608 20G<-51 364.563 945.437 1369>
VStem: 467 375<0 416>
LayerCount: 2
Fore
SplineSet
953 1628 m 1,0,-1
 1369 1628 l 1,1,-1
 977 805 l 1,2,-1
 1180 805 l 1,3,-1
 1180 680 l 1,4,-1
 914 680 l 1,5,-1
 844 543 l 1,6,-1
 1180 543 l 1,7,-1
 1180 416 l 1,8,-1
 842 416 l 1,9,-1
 842 0 l 1,10,-1
 467 0 l 1,11,-1
 467 416 l 1,12,-1
 130 416 l 1,13,-1
 130 543 l 1,14,-1
 465 543 l 1,15,-1
 396 680 l 1,16,-1
 130 680 l 1,17,-1
 130 805 l 1,18,-1
 335 805 l 1,19,-1
 -51 1628 l 1,20,-1
 357 1628 l 1,21,-1
 655 840 l 1,22,-1
 953 1628 l 1,0,-1
EndSplineSet
EndChar

StartChar: brokenbar
Encoding: 166 166 106
Width: 790
GlyphClass: 2
Flags: W
HStem: 1711 20G<230 561>
VStem: 230 331<-166 610 955 1731>
LayerCount: 2
Fore
SplineSet
230 1731 m 1,0,-1
 561 1731 l 1,1,-1
 561 955 l 1,2,-1
 230 955 l 1,3,-1
 230 1731 l 1,0,-1
230 610 m 1,4,-1
 561 610 l 1,5,-1
 561 -166 l 1,6,-1
 230 -166 l 1,7,-1
 230 610 l 1,4,-1
EndSplineSet
EndChar

StartChar: section
Encoding: 167 167 107
Width: 1153
GlyphClass: 2
Flags: W
HStem: -114 254<358.577 708.25> 1374 257<382.956 741.594>
VStem: 100 273<699.272 852.456 1232.14 1355.41> 741 289<176.206 347.372 697.862 853.813>
DStem2: 379 175.5 325.5 -72 0.949786 -0.3129<-203.637 154.376>
LayerCount: 2
Fore
SplineSet
558 674 m 0,0,1
 657 674 657 674 702.5 699 c 128,-1,2
 748 724 748 724 748 772 c 0,3,4
 748 792 748 792 741.5 810.5 c 128,-1,5
 735 829 735 829 715 843.5 c 128,-1,6
 695 858 695 858 658 866.5 c 128,-1,7
 621 875 621 875 559 875 c 0,8,9
 493 875 493 875 455.5 865.5 c 128,-1,10
 418 856 418 856 400 841.5 c 128,-1,11
 382 827 382 827 377.5 809 c 128,-1,12
 373 791 373 791 373 774 c 0,13,14
 373 723 373 723 415 698.5 c 128,-1,15
 457 674 457 674 558 674 c 0,0,1
892 1251 m 2,16,17
 891 1251 891 1251 876.5 1260 c 128,-1,18
 862 1269 862 1269 837.5 1283 c 128,-1,19
 813 1297 813 1297 780 1312.5 c 128,-1,20
 747 1328 747 1328 710 1342 c 128,-1,21
 673 1356 673 1356 633.5 1365 c 128,-1,22
 594 1374 594 1374 557 1374 c 0,23,24
 491 1374 491 1374 454 1366 c 128,-1,25
 417 1358 417 1358 399.5 1346.5 c 128,-1,26
 382 1335 382 1335 378.5 1321.5 c 128,-1,27
 375 1308 375 1308 375 1297 c 0,28,29
 375 1289 375 1289 376.5 1278.5 c 128,-1,30
 378 1268 378 1268 390 1254.5 c 128,-1,31
 402 1241 402 1241 429 1225 c 128,-1,32
 456 1209 456 1209 506 1191 c 0,33,34
 626 1150 626 1150 712 1115 c 128,-1,35
 798 1080 798 1080 856 1047.5 c 128,-1,36
 914 1015 914 1015 948 983.5 c 128,-1,37
 982 952 982 952 1000 918.5 c 128,-1,38
 1018 885 1018 885 1023 847.5 c 128,-1,39
 1028 810 1028 810 1028 766 c 0,40,41
 1028 728 1028 728 1016.5 690 c 128,-1,42
 1005 652 1005 652 982.5 619 c 128,-1,43
 960 586 960 586 925 560.5 c 128,-1,44
 890 535 890 535 844 521 c 1,45,46
 898 497 898 497 934 464 c 128,-1,47
 970 431 970 431 991.5 393 c 128,-1,48
 1013 355 1013 355 1021.5 315 c 128,-1,49
 1030 275 1030 275 1030 237 c 0,50,51
 1030 161 1030 161 1009 105.5 c 128,-1,52
 988 50 988 50 951.5 11 c 128,-1,53
 915 -28 915 -28 866.5 -52.5 c 128,-1,54
 818 -77 818 -77 763.5 -90.5 c 128,-1,55
 709 -104 709 -104 651.5 -109 c 128,-1,56
 594 -114 594 -114 540 -114 c 0,57,58
 485 -114 485 -114 430 -102 c 128,-1,59
 375 -90 375 -90 325.5 -72 c 128,-1,60
 276 -54 276 -54 233.5 -32.5 c 128,-1,61
 191 -11 191 -11 160 6.5 c 128,-1,62
 129 24 129 24 112 35.5 c 128,-1,63
 95 47 95 47 96 46 c 1,64,-1
 198 277 l 2,65,66
 199 277 199 277 213.5 267 c 128,-1,67
 228 257 228 257 252.5 241.5 c 128,-1,68
 277 226 277 226 309.5 208.5 c 128,-1,69
 342 191 342 191 379 175.5 c 128,-1,70
 416 160 416 160 455 150 c 128,-1,71
 494 140 494 140 531 140 c 0,72,73
 741 140 741 140 741 260 c 0,74,75
 741 286 741 286 733.5 304.5 c 128,-1,76
 726 323 726 323 709 338 c 128,-1,77
 692 353 692 353 663 365.5 c 128,-1,78
 634 378 634 378 592 393 c 2,79,-1
 428 449 l 2,80,81
 323 485 323 485 258.5 519.5 c 128,-1,82
 194 554 194 554 159 594 c 128,-1,83
 124 634 124 634 112 682.5 c 128,-1,84
 100 731 100 731 100 795 c 0,85,86
 100 823 100 823 109.5 859 c 128,-1,87
 119 895 119 895 141 929.5 c 128,-1,88
 163 964 163 964 199 993.5 c 128,-1,89
 235 1023 235 1023 289 1039 c 1,90,91
 196 1071 196 1071 148 1140.5 c 128,-1,92
 100 1210 100 1210 100 1314 c 0,93,94
 100 1366 100 1366 121.5 1422 c 128,-1,95
 143 1478 143 1478 194.5 1524.5 c 128,-1,96
 246 1571 246 1571 331.5 1601 c 128,-1,97
 417 1631 417 1631 545 1631 c 0,98,99
 604 1631 604 1631 660.5 1618.5 c 128,-1,100
 717 1606 717 1606 767 1587.5 c 128,-1,101
 817 1569 817 1569 858.5 1547.5 c 128,-1,102
 900 1526 900 1526 930 1508 c 128,-1,103
 960 1490 960 1490 975.5 1478 c 128,-1,104
 991 1466 991 1466 990 1467 c 1,105,-1
 892 1251 l 2,16,17
EndSplineSet
EndChar

StartChar: dieresis
Encoding: 168 168 108
Width: 1316
GlyphClass: 2
Flags: W
HStem: 205 417<176.506 437.697 887.215 1147.7>
VStem: 99 419<285.452 542.548> 809 419<285.452 542.548>
LayerCount: 2
Fore
SplineSet
99 414 m 256,0,1
 99 458 99 458 115 496 c 128,-1,2
 131 534 131 534 159 562 c 128,-1,3
 187 590 187 590 225 606 c 128,-1,4
 263 622 263 622 307 622 c 0,5,6
 350 622 350 622 388.5 606 c 128,-1,7
 427 590 427 590 455.5 562 c 128,-1,8
 484 534 484 534 501 496 c 128,-1,9
 518 458 518 458 518 414 c 256,10,11
 518 370 518 370 501 332 c 128,-1,12
 484 294 484 294 455.5 265.5 c 128,-1,13
 427 237 427 237 388.5 221 c 128,-1,14
 350 205 350 205 307 205 c 0,15,16
 262 205 262 205 223.5 221.5 c 128,-1,17
 185 238 185 238 157.5 266 c 128,-1,18
 130 294 130 294 114.5 332 c 128,-1,19
 99 370 99 370 99 414 c 256,0,1
809 414 m 256,20,21
 809 458 809 458 825 496 c 128,-1,22
 841 534 841 534 869.5 562 c 128,-1,23
 898 590 898 590 935.5 606 c 128,-1,24
 973 622 973 622 1017 622 c 0,25,26
 1060 622 1060 622 1098.5 606 c 128,-1,27
 1137 590 1137 590 1165.5 562 c 128,-1,28
 1194 534 1194 534 1211 496 c 128,-1,29
 1228 458 1228 458 1228 414 c 256,30,31
 1228 370 1228 370 1211 332 c 128,-1,32
 1194 294 1194 294 1165.5 265.5 c 128,-1,33
 1137 237 1137 237 1098.5 221 c 128,-1,34
 1060 205 1060 205 1017 205 c 0,35,36
 972 205 972 205 933.5 221.5 c 128,-1,37
 895 238 895 238 867.5 266 c 128,-1,38
 840 294 840 294 824.5 332 c 128,-1,39
 809 370 809 370 809 414 c 256,20,21
EndSplineSet
EndChar

StartChar: copyright
Encoding: 169 169 109
Width: 2146
GlyphClass: 2
Flags: W
HStem: -148 252<813.92 1330.27> 272 224<972.256 1306.9> 1114 224<972.195 1322.04> 1507 254<855.733 1326.3>
VStem: 136 276<527.105 1058.99> 633 251<592.184 1016.75> 1771 275<546.966 1058.86>
LayerCount: 2
Fore
SplineSet
1070 104 m 0,0,1
 1227 104 1227 104 1356 158.5 c 128,-1,2
 1485 213 1485 213 1577.5 308 c 128,-1,3
 1670 403 1670 403 1720.5 530.5 c 128,-1,4
 1771 658 1771 658 1771 804 c 0,5,6
 1771 913 1771 913 1743.5 1008 c 128,-1,7
 1716 1103 1716 1103 1668 1181 c 128,-1,8
 1620 1259 1620 1259 1554.5 1319.5 c 128,-1,9
 1489 1380 1489 1380 1413.5 1422 c 128,-1,10
 1338 1464 1338 1464 1256 1485.5 c 128,-1,11
 1174 1507 1174 1507 1092 1507 c 256,12,13
 1010 1507 1010 1507 927.5 1485.5 c 128,-1,14
 845 1464 845 1464 769.5 1422.5 c 128,-1,15
 694 1381 694 1381 628.5 1320 c 128,-1,16
 563 1259 563 1259 515 1181 c 128,-1,17
 467 1103 467 1103 439.5 1008.5 c 128,-1,18
 412 914 412 914 412 804 c 0,19,20
 412 658 412 658 455.5 530.5 c 128,-1,21
 499 403 499 403 583 308 c 128,-1,22
 667 213 667 213 789.5 158.5 c 128,-1,23
 912 104 912 104 1070 104 c 0,0,1
884 806 m 0,24,25
 884 717 884 717 901.5 657.5 c 128,-1,26
 919 598 919 598 949.5 562 c 128,-1,27
 980 526 980 526 1023 511 c 128,-1,28
 1066 496 1066 496 1117 496 c 0,29,30
 1144 496 1144 496 1173 500 c 128,-1,31
 1202 504 1202 504 1237.5 515 c 128,-1,32
 1273 526 1273 526 1318 545.5 c 128,-1,33
 1363 565 1363 565 1423 595 c 1,34,-1
 1423 360 l 1,35,36
 1376 336 1376 336 1335.5 319 c 128,-1,37
 1295 302 1295 302 1259 291.5 c 128,-1,38
 1223 281 1223 281 1191.5 276.5 c 128,-1,39
 1160 272 1160 272 1130 272 c 0,40,41
 1033 272 1033 272 958 294.5 c 128,-1,42
 883 317 883 317 828 356.5 c 128,-1,43
 773 396 773 396 735.5 448.5 c 128,-1,44
 698 501 698 501 675.5 561.5 c 128,-1,45
 653 622 653 622 643 687.5 c 128,-1,46
 633 753 633 753 633 817 c 0,47,48
 633 935 633 935 667.5 1031 c 128,-1,49
 702 1127 702 1127 765 1195.5 c 128,-1,50
 828 1264 828 1264 916 1301 c 128,-1,51
 1004 1338 1004 1338 1111 1338 c 0,52,53
 1145 1338 1145 1338 1187.5 1331 c 128,-1,54
 1230 1324 1230 1324 1271.5 1312.5 c 128,-1,55
 1313 1301 1313 1301 1350.5 1286 c 128,-1,56
 1388 1271 1388 1271 1414 1255 c 1,57,-1
 1414 1028 l 1,58,59
 1326 1073 1326 1073 1249 1093.5 c 128,-1,60
 1172 1114 1172 1114 1108 1114 c 0,61,62
 1038 1114 1038 1114 994.5 1086 c 128,-1,63
 951 1058 951 1058 926.5 1013.5 c 128,-1,64
 902 969 902 969 893 914 c 128,-1,65
 884 859 884 859 884 806 c 0,24,25
1079 -148 m 0,66,67
 950 -148 950 -148 830 -116.5 c 128,-1,68
 710 -85 710 -85 605 -26.5 c 128,-1,69
 500 32 500 32 414 116.5 c 128,-1,70
 328 201 328 201 266 307 c 128,-1,71
 204 413 204 413 170 539.5 c 128,-1,72
 136 666 136 666 136 808 c 0,73,74
 136 951 136 951 171.5 1077.5 c 128,-1,75
 207 1204 207 1204 270.5 1310 c 128,-1,76
 334 1416 334 1416 422.5 1499.5 c 128,-1,77
 511 1583 511 1583 617 1641 c 128,-1,78
 723 1699 723 1699 843.5 1730 c 128,-1,79
 964 1761 964 1761 1092 1761 c 0,80,81
 1215 1761 1215 1761 1333.5 1730 c 128,-1,82
 1452 1699 1452 1699 1558 1641 c 128,-1,83
 1664 1583 1664 1583 1753.5 1499.5 c 128,-1,84
 1843 1416 1843 1416 1908 1310 c 128,-1,85
 1973 1204 1973 1204 2009.5 1077.5 c 128,-1,86
 2046 951 2046 951 2046 808 c 0,87,88
 2046 666 2046 666 2010 539.5 c 128,-1,89
 1974 413 1974 413 1909.5 307 c 128,-1,90
 1845 201 1845 201 1755.5 116.5 c 128,-1,91
 1666 32 1666 32 1558.5 -27 c 128,-1,92
 1451 -86 1451 -86 1329 -117 c 128,-1,93
 1207 -148 1207 -148 1079 -148 c 0,66,67
EndSplineSet
EndChar

StartChar: ordfeminine
Encoding: 170 170 110
Width: 1296
GlyphClass: 2
Flags: W
HStem: 446 129<270 954> 668 113<407.339 701.412> 1158 100<435.062 797.408> 1513 125<375.453 752.234>
VStem: 206 161<821.783 1093.22> 799 161<855.555 1147.53 1218 1465.58> 844 116<686 761.397>
LayerCount: 2
Fore
SplineSet
817 828 m 2,0,1
 816 828 816 828 801 803 c 128,-1,2
 786 778 786 778 752 748 c 128,-1,3
 718 718 718 718 662 693 c 128,-1,4
 606 668 606 668 523 668 c 0,5,6
 449 668 449 668 390.5 687.5 c 128,-1,7
 332 707 332 707 291 744 c 128,-1,8
 250 781 250 781 228 835.5 c 128,-1,9
 206 890 206 890 206 960 c 0,10,11
 206 1032 206 1032 232 1087.5 c 128,-1,12
 258 1143 258 1143 305.5 1181 c 128,-1,13
 353 1219 353 1219 419 1238.5 c 128,-1,14
 485 1258 485 1258 565 1258 c 0,15,16
 608 1258 608 1258 649.5 1253 c 128,-1,17
 691 1248 691 1248 723.5 1241 c 128,-1,18
 756 1234 756 1234 776.5 1227.5 c 128,-1,19
 797 1221 797 1221 799 1218 c 1,20,-1
 799 1276 l 2,21,22
 799 1334 799 1334 792.5 1378.5 c 128,-1,23
 786 1423 786 1423 765.5 1453 c 128,-1,24
 745 1483 745 1483 707.5 1498 c 128,-1,25
 670 1513 670 1513 607 1513 c 0,26,27
 548 1513 548 1513 495.5 1502 c 128,-1,28
 443 1491 443 1491 403.5 1478 c 128,-1,29
 364 1465 364 1465 340.5 1454 c 128,-1,30
 317 1443 317 1443 316 1443 c 2,31,-1
 263 1552 l 2,32,33
 264 1552 264 1552 290 1565.5 c 128,-1,34
 316 1579 316 1579 361 1595 c 128,-1,35
 406 1611 406 1611 467 1624.5 c 128,-1,36
 528 1638 528 1638 599 1638 c 0,37,38
 701 1638 701 1638 770 1616 c 128,-1,39
 839 1594 839 1594 881.5 1545.5 c 128,-1,40
 924 1497 924 1497 942 1420.5 c 128,-1,41
 960 1344 960 1344 960 1235 c 2,42,-1
 960 686 l 1,43,-1
 844 686 l 1,44,-1
 817 828 l 2,0,1
799 1141 m 1,45,46
 748 1149 748 1149 704 1153.5 c 128,-1,47
 660 1158 660 1158 623 1158 c 0,48,49
 367 1158 367 1158 367 971 c 0,50,51
 367 918 367 918 377 882 c 128,-1,52
 387 846 387 846 409.5 823.5 c 128,-1,53
 432 801 432 801 469 791 c 128,-1,54
 506 781 506 781 561 781 c 256,55,56
 616 781 616 781 660 799.5 c 128,-1,57
 704 818 704 818 735 840.5 c 128,-1,58
 766 863 766 863 782.5 882 c 128,-1,59
 799 901 799 901 799 903 c 2,60,-1
 799 1141 l 1,45,46
270 575 m 1,61,-1
 954 575 l 1,62,-1
 954 446 l 1,63,-1
 270 446 l 1,64,-1
 270 575 l 1,61,-1
EndSplineSet
EndChar

StartChar: guillemotleft
Encoding: 171 171 111
Width: 1938
GlyphClass: 2
Flags: W
HStem: -68 361<587 948 1437 1798> 893 362<586 948 1436 1798>
DStem2: 96 722 457 598 0.847775 0.530357<240.282 812.995> 457 598 96 466 0.847327 -0.531071<0 578.014> 946 722 1307 598 0.847775 0.530357<240.282 812.995> 1307 598 946 466 0.847327 -0.531071<0 578.014>
LayerCount: 2
Fore
SplineSet
1307 598 m 1,0,-1
 1798 293 l 1,1,-1
 1798 -68 l 1,2,-1
 946 466 l 1,3,-1
 946 722 l 1,4,-1
 1798 1255 l 1,5,-1
 1798 893 l 1,6,-1
 1307 598 l 1,0,-1
457 598 m 1,7,-1
 948 293 l 1,8,-1
 948 -68 l 1,9,-1
 96 466 l 1,10,-1
 96 722 l 1,11,-1
 948 1255 l 1,12,-1
 948 893 l 1,13,-1
 457 598 l 1,7,-1
EndSplineSet
EndChar

StartChar: logicalnot
Encoding: 172 172 112
Width: 1108
GlyphClass: 2
Flags: W
HStem: 560 281<62 855>
VStem: 855 200<226 560>
LayerCount: 2
Fore
SplineSet
62 560 m 1,0,-1
 62 841 l 1,1,-1
 1055 841 l 1,2,-1
 1055 226 l 1,3,-1
 855 226 l 1,4,-1
 855 560 l 1,5,-1
 62 560 l 1,0,-1
EndSplineSet
EndChar

StartChar: uni00AD
Encoding: 173 173 113
Width: 1183
GlyphClass: 2
Flags: W
HStem: 599 284<162 1014>
LayerCount: 2
Fore
SplineSet
162 599 m 1,0,-1
 162 883 l 1,1,-1
 1014 883 l 1,2,-1
 1014 599 l 1,3,-1
 162 599 l 1,0,-1
EndSplineSet
EndChar

StartChar: registered
Encoding: 174 174 114
Width: 1414
GlyphClass: 2
Flags: W
HStem: 598 144<481.226 936.489> 1210 118<636 671> 1510 116<636 825.058> 1799 146<483.776 936.296>
VStem: 6 164<1047.72 1487.44> 491 139<928 1210 1328 1510> 834 139<1339.3 1495.15> 1250 166<1053.73 1487.67>
LayerCount: 2
Fore
SplineSet
6 1272 m 0,0,1
 6 1361 6 1361 29.5 1446 c 128,-1,2
 53 1531 53 1531 97 1605.5 c 128,-1,3
 141 1680 141 1680 203.5 1742.5 c 128,-1,4
 266 1805 266 1805 344.5 1850 c 128,-1,5
 423 1895 423 1895 515 1920 c 128,-1,6
 607 1945 607 1945 711 1945 c 0,7,8
 807 1945 807 1945 897 1922 c 128,-1,9
 987 1899 987 1899 1065.5 1856 c 128,-1,10
 1144 1813 1144 1813 1208.5 1752.5 c 128,-1,11
 1273 1692 1273 1692 1319 1617.5 c 128,-1,12
 1365 1543 1365 1543 1390.5 1455.5 c 128,-1,13
 1416 1368 1416 1368 1416 1272 c 0,14,15
 1416 1181 1416 1181 1392 1095.5 c 128,-1,16
 1368 1010 1368 1010 1324 935 c 128,-1,17
 1280 860 1280 860 1216.5 798 c 128,-1,18
 1153 736 1153 736 1075 691.5 c 128,-1,19
 997 647 997 647 905 622.5 c 128,-1,20
 813 598 813 598 711 598 c 0,21,22
 564 598 564 598 435.5 649.5 c 128,-1,23
 307 701 307 701 211.5 791.5 c 128,-1,24
 116 882 116 882 61 1005 c 128,-1,25
 6 1128 6 1128 6 1272 c 0,0,1
710 742 m 0,26,27
 828 742 828 742 927.5 783 c 128,-1,28
 1027 824 1027 824 1098.5 895.5 c 128,-1,29
 1170 967 1170 967 1210 1063 c 128,-1,30
 1250 1159 1250 1159 1250 1270 c 0,31,32
 1250 1382 1250 1382 1210 1478.5 c 128,-1,33
 1170 1575 1170 1575 1098.5 1646.5 c 128,-1,34
 1027 1718 1027 1718 927.5 1758.5 c 128,-1,35
 828 1799 828 1799 710 1799 c 256,36,37
 592 1799 592 1799 493 1758.5 c 128,-1,38
 394 1718 394 1718 322 1646.5 c 128,-1,39
 250 1575 250 1575 210 1478 c 128,-1,40
 170 1381 170 1381 170 1269 c 0,41,42
 170 1156 170 1156 209.5 1059.5 c 128,-1,43
 249 963 249 963 320.5 892.5 c 128,-1,44
 392 822 392 822 491.5 782 c 128,-1,45
 591 742 591 742 710 742 c 0,26,27
672 1319 m 1,46,47
 753 1319 753 1319 793.5 1340 c 128,-1,48
 834 1361 834 1361 834 1423 c 0,49,50
 834 1448 834 1448 826.5 1465 c 128,-1,51
 819 1482 819 1482 797.5 1492 c 128,-1,52
 776 1502 776 1502 737.5 1506 c 128,-1,53
 699 1510 699 1510 636 1510 c 1,54,-1
 636 1328 l 1,55,-1
 683 1328 l 2,56,57
 672 1328 672 1328 672 1319 c 1,46,47
862 899 m 1,58,-1
 671 1210 l 1,59,-1
 630 1210 l 1,60,-1
 630 928 l 1,61,-1
 491 928 l 1,62,-1
 491 1626 l 1,63,-1
 631 1626 l 2,64,65
 706 1626 706 1626 768.5 1617 c 128,-1,66
 831 1608 831 1608 876.5 1586 c 128,-1,67
 922 1564 922 1564 947.5 1527 c 128,-1,68
 973 1490 973 1490 973 1433 c 0,69,70
 973 1392 973 1392 964.5 1362 c 128,-1,71
 956 1332 956 1332 936 1309 c 128,-1,72
 916 1286 916 1286 883 1269 c 128,-1,73
 850 1252 850 1252 802 1237 c 1,74,-1
 998 966 l 1,75,-1
 862 899 l 1,58,-1
EndSplineSet
EndChar

StartChar: macron
Encoding: 175 175 115
Width: 1003
GlyphClass: 2
Flags: W
HStem: 98 117<98 780>
LayerCount: 2
Fore
SplineSet
98 215 m 1,0,-1
 780 215 l 1,1,-1
 780 98 l 1,2,-1
 98 98 l 1,3,-1
 98 215 l 1,0,-1
EndSplineSet
EndChar

StartChar: degree
Encoding: 176 176 116
Width: 851
GlyphClass: 2
Flags: W
HStem: 695 194<305.121 543.701> 1241 194<305.246 543.396>
VStem: 25 220<948.469 1179.9> 605 219<948.653 1179.85>
LayerCount: 2
Fore
SplineSet
245 1065 m 0,0,1
 245 1027 245 1027 259.5 995 c 128,-1,2
 274 963 274 963 298.5 939.5 c 128,-1,3
 323 916 323 916 355.5 902.5 c 128,-1,4
 388 889 388 889 424 889 c 256,5,6
 460 889 460 889 493 902.5 c 128,-1,7
 526 916 526 916 551 939.5 c 128,-1,8
 576 963 576 963 590.5 995 c 128,-1,9
 605 1027 605 1027 605 1065 c 256,10,11
 605 1103 605 1103 590 1135 c 128,-1,12
 575 1167 575 1167 550 1190.5 c 128,-1,13
 525 1214 525 1214 492.5 1227.5 c 128,-1,14
 460 1241 460 1241 424 1241 c 0,15,16
 387 1241 387 1241 354.5 1227 c 128,-1,17
 322 1213 322 1213 297.5 1189 c 128,-1,18
 273 1165 273 1165 259 1133 c 128,-1,19
 245 1101 245 1101 245 1065 c 0,0,1
426 1435 m 0,20,21
 505 1435 505 1435 577.5 1407 c 128,-1,22
 650 1379 650 1379 704.5 1329 c 128,-1,23
 759 1279 759 1279 791.5 1210.5 c 128,-1,24
 824 1142 824 1142 824 1060 c 0,25,26
 824 977 824 977 789.5 909.5 c 128,-1,27
 755 842 755 842 697.5 794.5 c 128,-1,28
 640 747 640 747 566 721 c 128,-1,29
 492 695 492 695 414 695 c 256,30,31
 336 695 336 695 265 724.5 c 128,-1,32
 194 754 194 754 141 805 c 128,-1,33
 88 856 88 856 56.5 924.5 c 128,-1,34
 25 993 25 993 25 1071 c 0,35,36
 25 1151 25 1151 59 1218 c 128,-1,37
 93 1285 93 1285 149.5 1333 c 128,-1,38
 206 1381 206 1381 278 1408 c 128,-1,39
 350 1435 350 1435 426 1435 c 0,20,21
EndSplineSet
EndChar

StartChar: plusminus
Encoding: 177 177 117
Width: 1170
GlyphClass: 2
Flags: W
HStem: 6 245<207 1037> 815 291<182 465 777 1062>
VStem: 465 312<450 815 1106 1469>
LayerCount: 2
Fore
SplineSet
207 6 m 1,0,-1
 207 251 l 1,1,-1
 1037 251 l 1,2,-1
 1037 6 l 1,3,-1
 207 6 l 1,0,-1
777 815 m 1,4,-1
 777 450 l 1,5,-1
 465 450 l 1,6,-1
 465 815 l 1,7,-1
 182 815 l 1,8,-1
 182 1106 l 1,9,-1
 465 1106 l 1,10,-1
 465 1469 l 1,11,-1
 777 1469 l 1,12,-1
 777 1106 l 1,13,-1
 1062 1106 l 1,14,-1
 1062 815 l 1,15,-1
 777 815 l 1,4,-1
EndSplineSet
EndChar

StartChar: uni00B2
Encoding: 178 178 118
Width: 1126
GlyphClass: 2
Flags: W
HStem: 668 152<485 891> 1500 138<295.062 697.491>
VStem: 747 172<1223.75 1459.24>
DStem2: 354 1612 371 1474 0.978716 0.205218<-86.3479 183.034> 524 1045 485 820 0.744503 0.667619<-179.25 329.827>
LayerCount: 2
Fore
SplineSet
253 805 m 1,0,-1
 524 1045 l 2,1,2
 592 1105 592 1105 635.5 1148 c 128,-1,3
 679 1191 679 1191 703.5 1225 c 128,-1,4
 728 1259 728 1259 737.5 1289 c 128,-1,5
 747 1319 747 1319 747 1354 c 0,6,7
 747 1424 747 1424 699 1462 c 128,-1,8
 651 1500 651 1500 566 1500 c 0,9,10
 518 1500 518 1500 466.5 1492 c 128,-1,11
 415 1484 415 1484 371 1474 c 0,12,13
 320 1463 320 1463 270 1448 c 1,14,-1
 270 1586 l 1,15,16
 306 1601 306 1601 354 1612 c 0,17,18
 395 1622 395 1622 451 1630 c 128,-1,19
 507 1638 507 1638 576 1638 c 0,20,21
 676 1638 676 1638 742 1610 c 128,-1,22
 808 1582 808 1582 847.5 1540 c 128,-1,23
 887 1498 887 1498 903 1448.5 c 128,-1,24
 919 1399 919 1399 919 1357 c 0,25,26
 919 1309 919 1309 907 1266.5 c 128,-1,27
 895 1224 895 1224 867 1180.5 c 128,-1,28
 839 1137 839 1137 792.5 1089 c 128,-1,29
 746 1041 746 1041 676 982 c 2,30,-1
 485 820 l 1,31,-1
 891 820 l 1,32,-1
 891 668 l 1,33,-1
 253 668 l 1,34,-1
 253 805 l 1,0,-1
EndSplineSet
EndChar

StartChar: uni00B3
Encoding: 179 179 119
Width: 1208
GlyphClass: 2
Flags: W
HStem: 540 132<414.711 782.79> 1142 65<679 811> 1541 136<402.424 775.782>
VStem: 832 154<1274.25 1491.54> 851 166<737.132 983.917>
DStem2: 352.5 1622.5 426.5 1505.5 0.945934 0.324359<-23.7642 214.393>
LayerCount: 2
Fore
SplineSet
351 745 m 1,0,1
 376 733 376 733 406.5 720 c 128,-1,2
 437 707 437 707 472.5 696.5 c 128,-1,3
 508 686 508 686 548 679 c 128,-1,4
 588 672 588 672 631 672 c 0,5,6
 679 672 679 672 719.5 685 c 128,-1,7
 760 698 760 698 789.5 721.5 c 128,-1,8
 819 745 819 745 835 778.5 c 128,-1,9
 851 812 851 812 851 853 c 0,10,11
 851 947 851 947 788 1002 c 128,-1,12
 725 1057 725 1057 589 1072 c 1,13,-1
 589 1207 l 1,14,15
 635 1207 635 1207 679 1217.5 c 128,-1,16
 723 1228 723 1228 757 1249.5 c 128,-1,17
 791 1271 791 1271 811.5 1304.5 c 128,-1,18
 832 1338 832 1338 832 1383 c 0,19,20
 832 1458 832 1458 777.5 1499.5 c 128,-1,21
 723 1541 723 1541 608 1541 c 0,22,23
 579 1541 579 1541 548 1536.5 c 128,-1,24
 517 1532 517 1532 486 1524 c 128,-1,25
 455 1516 455 1516 426.5 1505.5 c 128,-1,26
 398 1495 398 1495 374 1484 c 1,27,-1
 327 1611 l 1,28,29
 329 1612 329 1612 352.5 1622.5 c 128,-1,30
 376 1633 376 1633 415 1645 c 128,-1,31
 454 1657 454 1657 505 1667 c 128,-1,32
 556 1677 556 1677 613 1677 c 0,33,34
 650 1677 650 1677 692 1671.5 c 128,-1,35
 734 1666 734 1666 775.5 1653.5 c 128,-1,36
 817 1641 817 1641 855 1620 c 128,-1,37
 893 1599 893 1599 922 1567.5 c 128,-1,38
 951 1536 951 1536 968.5 1493 c 128,-1,39
 986 1450 986 1450 986 1394 c 0,40,41
 986 1324 986 1324 958.5 1276 c 128,-1,42
 931 1228 931 1228 892 1198 c 128,-1,43
 853 1168 853 1168 811 1155 c 128,-1,44
 769 1142 769 1142 741 1142 c 1,45,46
 766 1137 766 1137 796.5 1127.5 c 128,-1,47
 827 1118 827 1118 857.5 1102.5 c 128,-1,48
 888 1087 888 1087 917 1063.5 c 128,-1,49
 946 1040 946 1040 968 1007.5 c 128,-1,50
 990 975 990 975 1003.5 932.5 c 128,-1,51
 1017 890 1017 890 1017 835 c 0,52,53
 1017 758 1017 758 982 702 c 128,-1,54
 947 646 947 646 891 610 c 128,-1,55
 835 574 835 574 765.5 557 c 128,-1,56
 696 540 696 540 628 540 c 0,57,58
 537 540 537 540 455.5 559 c 128,-1,59
 374 578 374 578 300 618 c 1,60,-1
 351 745 l 1,0,1
EndSplineSet
EndChar

StartChar: acute
Encoding: 180 180 120
Width: 1133
GlyphClass: 2
Flags: W
VStem: 416 545
LayerCount: 2
Fore
SplineSet
416 295 m 1,0,-1
 630 929 l 1,1,-1
 961 773 l 1,2,-1
 589 214 l 1,3,-1
 416 295 l 1,0,-1
EndSplineSet
EndChar

StartChar: uni00B5
Encoding: 181 181 121
Width: 1320
GlyphClass: 2
Flags: W
HStem: -20 143<457.493 805.168>
VStem: 185 174<-291 113 229.619 1169> 958 208<232.308 1169> 1020 146<16 107.989>
LayerCount: 2
Fore
SplineSet
185 1169 m 1,0,-1
 359 1169 l 1,1,-1
 359 442 l 2,2,3
 359 123 359 123 611 123 c 0,4,5
 681 123 681 123 740 142 c 128,-1,6
 799 161 799 161 844.5 186.5 c 128,-1,7
 890 212 890 212 919 237 c 128,-1,8
 948 262 948 262 958 274 c 1,9,-1
 958 1169 l 1,10,-1
 1166 1169 l 1,11,-1
 1166 16 l 1,12,-1
 1020 16 l 1,13,-1
 996 170 l 1,14,15
 825 -20 825 -20 599 -20 c 0,16,17
 553 -20 553 -20 515 -6.5 c 128,-1,18
 477 7 477 7 447 27.5 c 128,-1,19
 417 48 417 48 395 71 c 128,-1,20
 373 94 373 94 359 113 c 1,21,-1
 359 -291 l 1,22,-1
 185 -291 l 1,23,-1
 185 1169 l 1,0,-1
EndSplineSet
EndChar

StartChar: paragraph
Encoding: 182 182 122
Width: 1503
GlyphClass: 2
Flags: W
HStem: 0 21G<661 936 1075 1347> 1474 155<936 1075>
VStem: 76 860<963.354 1389.5> 661 275<0 715> 1075 272<0 1474>
LayerCount: 2
Fore
SplineSet
1347 0 m 1,0,-1
 1075 0 l 1,1,-1
 1075 1474 l 1,2,-1
 936 1474 l 1,3,-1
 936 0 l 1,4,-1
 661 0 l 1,5,-1
 661 715 l 1,6,7
 584 715 584 715 510.5 724.5 c 128,-1,8
 437 734 437 734 372 755.5 c 128,-1,9
 307 777 307 777 252.5 812 c 128,-1,10
 198 847 198 847 159 899 c 128,-1,11
 120 951 120 951 98 1021.5 c 128,-1,12
 76 1092 76 1092 76 1184 c 0,13,14
 76 1281 76 1281 103.5 1351.5 c 128,-1,15
 131 1422 131 1422 177.5 1471.5 c 128,-1,16
 224 1521 224 1521 286.5 1552 c 128,-1,17
 349 1583 349 1583 419 1600 c 128,-1,18
 489 1617 489 1617 562.5 1623 c 128,-1,19
 636 1629 636 1629 706 1629 c 2,20,-1
 1347 1629 l 1,21,-1
 1347 0 l 1,0,-1
EndSplineSet
EndChar

StartChar: periodcentered
Encoding: 183 183 123
Width: 652
GlyphClass: 2
Flags: W
HStem: 506 455<192.097 462.365>
VStem: 100 456<599.92 868.179>
LayerCount: 2
Fore
SplineSet
100 734 m 0,0,1
 100 780 100 780 118 821.5 c 128,-1,2
 136 863 136 863 166.5 894 c 128,-1,3
 197 925 197 925 238 943 c 128,-1,4
 279 961 279 961 326 961 c 0,5,6
 374 961 374 961 415.5 943 c 128,-1,7
 457 925 457 925 488.5 894 c 128,-1,8
 520 863 520 863 538 821.5 c 128,-1,9
 556 780 556 780 556 734 c 0,10,11
 556 687 556 687 538 646 c 128,-1,12
 520 605 520 605 488.5 573.5 c 128,-1,13
 457 542 457 542 415.5 524 c 128,-1,14
 374 506 374 506 326 506 c 0,15,16
 279 506 279 506 237.5 524 c 128,-1,17
 196 542 196 542 165.5 573 c 128,-1,18
 135 604 135 604 117.5 645.5 c 128,-1,19
 100 687 100 687 100 734 c 0,0,1
EndSplineSet
EndChar

StartChar: cedilla
Encoding: 184 184 124
Width: 689
GlyphClass: 2
Flags: W
HStem: -696 156<95.95 380.172> -287 120<260 344.32>
VStem: 149 124<-105 19> 396 206<-523.898 -336.072>
DStem2: 127 -287 260 -167 0.0717103 0.997426<129.229 306.79>
LayerCount: 2
Fore
SplineSet
74 -495 m 1,0,1
 104 -508 104 -508 137 -518 c 0,2,3
 165 -526 165 -526 199.5 -533 c 128,-1,4
 234 -540 234 -540 269 -540 c 0,5,6
 294 -540 294 -540 317 -536 c 128,-1,7
 340 -532 340 -532 357.5 -520 c 128,-1,8
 375 -508 375 -508 385.5 -487.5 c 128,-1,9
 396 -467 396 -467 396 -434 c 0,10,11
 396 -356 396 -356 328.5 -321.5 c 128,-1,12
 261 -287 261 -287 127 -287 c 1,13,-1
 149 19 l 1,14,-1
 273 19 l 1,15,-1
 260 -167 l 1,16,17
 289 -167 289 -167 325.5 -172.5 c 128,-1,18
 362 -178 362 -178 400 -191 c 128,-1,19
 438 -204 438 -204 474 -224 c 128,-1,20
 510 -244 510 -244 538.5 -274 c 128,-1,21
 567 -304 567 -304 584.5 -343.5 c 128,-1,22
 602 -383 602 -383 602 -434 c 0,23,24
 602 -494 602 -494 580.5 -542.5 c 128,-1,25
 559 -591 559 -591 519.5 -625 c 128,-1,26
 480 -659 480 -659 424 -677.5 c 128,-1,27
 368 -696 368 -696 299 -696 c 0,28,29
 245 -696 245 -696 203 -687 c 128,-1,30
 161 -678 161 -678 132 -667 c 128,-1,31
 103 -656 103 -656 88 -647 c 128,-1,32
 73 -638 73 -638 74 -638 c 1,33,-1
 74 -495 l 1,0,1
EndSplineSet
EndChar

StartChar: uni00B9
Encoding: 185 185 125
Width: 740
GlyphClass: 2
Flags: W
HStem: 1232 21G<149.451 203.5>
VStem: 327 169<478 1304>
DStem2: 119 1345 156 1232 0.928206 0.372066<0 177.812>
LayerCount: 2
Fore
SplineSet
327 1304 m 1,0,-1
 156 1232 l 1,1,-1
 119 1345 l 1,2,-1
 356 1440 l 1,3,-1
 496 1414 l 1,4,-1
 496 478 l 1,5,-1
 327 478 l 1,6,-1
 327 1304 l 1,0,-1
EndSplineSet
EndChar

StartChar: ordmasculine
Encoding: 186 186 126
Width: 1255
GlyphClass: 2
Flags: W
HStem: 446 129<300 984> 670 127<488.239 788.38> 1512 126<487.766 787.675>
VStem: 214 157<928.244 1379.51> 905 158<927.281 1379.01>
LayerCount: 2
Fore
SplineSet
638 670 m 0,0,1
 530 670 530 670 450.5 707.5 c 128,-1,2
 371 745 371 745 318.5 810 c 128,-1,3
 266 875 266 875 240 963 c 128,-1,4
 214 1051 214 1051 214 1152 c 0,5,6
 214 1251 214 1251 239.5 1339 c 128,-1,7
 265 1427 265 1427 317.5 1493.5 c 128,-1,8
 370 1560 370 1560 449.5 1599 c 128,-1,9
 529 1638 529 1638 638 1638 c 256,10,11
 747 1638 747 1638 827 1599 c 128,-1,12
 907 1560 907 1560 959.5 1493.5 c 128,-1,13
 1012 1427 1012 1427 1037.5 1339 c 128,-1,14
 1063 1251 1063 1251 1063 1152 c 0,15,16
 1063 1052 1063 1052 1037.5 964.5 c 128,-1,17
 1012 877 1012 877 959.5 811.5 c 128,-1,18
 907 746 907 746 827 708 c 128,-1,19
 747 670 747 670 638 670 c 0,0,1
638 797 m 256,20,21
 710 797 710 797 760.5 823.5 c 128,-1,22
 811 850 811 850 843 897.5 c 128,-1,23
 875 945 875 945 890 1010.5 c 128,-1,24
 905 1076 905 1076 905 1154 c 0,25,26
 905 1230 905 1230 890 1295.5 c 128,-1,27
 875 1361 875 1361 843 1409 c 128,-1,28
 811 1457 811 1457 760.5 1484.5 c 128,-1,29
 710 1512 710 1512 638 1512 c 256,30,31
 566 1512 566 1512 515.5 1485 c 128,-1,32
 465 1458 465 1458 433 1410 c 128,-1,33
 401 1362 401 1362 386 1296.5 c 128,-1,34
 371 1231 371 1231 371 1154 c 256,35,36
 371 1077 371 1077 386 1011.5 c 128,-1,37
 401 946 401 946 433 898.5 c 128,-1,38
 465 851 465 851 515.5 824 c 128,-1,39
 566 797 566 797 638 797 c 256,20,21
300 575 m 1,40,-1
 984 575 l 1,41,-1
 984 446 l 1,42,-1
 300 446 l 1,43,-1
 300 575 l 1,40,-1
EndSplineSet
EndChar

StartChar: guillemotright
Encoding: 187 187 127
Width: 1986
GlyphClass: 2
Flags: W
HStem: -68 361<176 537 1026 1387> 893 362<176 538 1026 1388>
DStem2: 176 293 176 -68 0.847327 0.531071<0 586.488> 1026 293 1026 -68 0.847327 0.531071<0 586.488>
LayerCount: 2
Fore
SplineSet
176 1255 m 1,0,-1
 1028 722 l 1,1,-1
 1028 466 l 1,2,-1
 176 -68 l 1,3,-1
 176 293 l 1,4,-1
 677 598 l 1,5,-1
 176 893 l 1,6,-1
 176 1255 l 1,0,-1
1026 1255 m 1,7,-1
 1878 722 l 1,8,-1
 1878 466 l 1,9,-1
 1026 -68 l 1,10,-1
 1026 293 l 1,11,-1
 1527 598 l 1,12,-1
 1026 893 l 1,13,-1
 1026 1255 l 1,7,-1
EndSplineSet
EndChar

StartChar: onequarter
Encoding: 188 188 128
Width: 2056
GlyphClass: 2
Flags: W
HStem: 105 222<1387 1548 1810 1953> 1382 20G<300.718 442>
VStem: 258 283<408 1134> 1548 262<-117 105 329 607>
DStem2: 483 -30 719 -109 0.391343 0.920245<19.6575 1781.05>
LayerCount: 2
Fore
SplineSet
1548 327 m 1,0,-1
 1548 607 l 1,1,-1
 1387 327 l 1,2,-1
 1548 327 l 1,0,-1
1810 1007 m 1,3,-1
 1810 329 l 1,4,-1
 1953 329 l 1,5,-1
 1953 105 l 1,6,-1
 1810 105 l 1,7,-1
 1810 -117 l 1,8,-1
 1549 -117 l 1,9,-1
 1549 105 l 1,10,-1
 1092 105 l 1,11,-1
 1057 277 l 1,12,-1
 1589 1065 l 1,13,-1
 1810 1007 l 1,3,-1
1180 1609 m 1,14,-1
 1423 1525 l 1,15,-1
 719 -109 l 1,16,-1
 483 -30 l 1,17,-1
 1180 1609 l 1,14,-1
258 1134 m 1,18,-1
 133 1079 l 1,19,-1
 52 1285 l 1,20,-1
 352 1402 l 1,21,-1
 541 1360 l 1,22,-1
 541 408 l 1,23,-1
 258 408 l 1,24,-1
 258 1134 l 1,18,-1
EndSplineSet
EndChar

StartChar: onehalf
Encoding: 189 189 129
Width: 2161
GlyphClass: 2
Flags: W
HStem: 126 227<1751 2048> 886 222<1493.42 1759.63> 1382 20G<294.889 436.476>
VStem: 252 284<408 1134> 1788 284<664.655 863.507>
DStem2: 480 -30 716 -109 0.391343 0.920245<19.6575 1781.05>
LayerCount: 2
Fore
SplineSet
1788 770 m 0,0,1
 1788 829 1788 829 1760.5 857.5 c 128,-1,2
 1733 886 1733 886 1666 886 c 0,3,4
 1644 886 1644 886 1613 879 c 128,-1,5
 1582 872 1582 872 1545.5 860 c 128,-1,6
 1509 848 1509 848 1468.5 831.5 c 128,-1,7
 1428 815 1428 815 1388 797 c 1,8,-1
 1307 998 l 1,9,10
 1355 1017 1355 1017 1401.5 1037 c 128,-1,11
 1448 1057 1448 1057 1494.5 1072.5 c 128,-1,12
 1541 1088 1541 1088 1588.5 1098 c 128,-1,13
 1636 1108 1636 1108 1685 1108 c 0,14,15
 1754 1108 1754 1108 1823 1093.5 c 128,-1,16
 1892 1079 1892 1079 1947.5 1045 c 128,-1,17
 2003 1011 2003 1011 2037.5 954.5 c 128,-1,18
 2072 898 2072 898 2072 813 c 0,19,20
 2072 763 2072 763 2061.5 720.5 c 128,-1,21
 2051 678 2051 678 2026 636 c 128,-1,22
 2001 594 2001 594 1961 550 c 128,-1,23
 1921 506 1921 506 1862 453 c 2,24,-1
 1751 353 l 1,25,-1
 2048 353 l 1,26,-1
 2048 126 l 1,27,-1
 1333 126 l 1,28,-1
 1333 309 l 1,29,30
 1404 369 1404 369 1473.5 428 c 128,-1,31
 1543 487 1543 487 1614 547 c 0,32,33
 1630 560 1630 560 1659 582.5 c 128,-1,34
 1688 605 1688 605 1716.5 634 c 128,-1,35
 1745 663 1745 663 1766.5 697.5 c 128,-1,36
 1788 732 1788 732 1788 770 c 0,0,1
252 1134 m 1,37,-1
 128 1079 l 1,38,-1
 47 1285 l 1,39,-1
 346 1402 l 1,40,-1
 536 1360 l 1,41,-1
 536 408 l 1,42,-1
 252 408 l 1,43,-1
 252 1134 l 1,37,-1
1177 1609 m 1,44,-1
 1420 1525 l 1,45,-1
 716 -109 l 1,46,-1
 480 -30 l 1,47,-1
 1177 1609 l 1,44,-1
EndSplineSet
EndChar

StartChar: threequarters
Encoding: 190 190 130
Width: 2193
GlyphClass: 2
Flags: W
HStem: 105 222<1532 1725 1966 2108> 409 220<172.424 509.224> 900 210<307 487.289> 1321 223<204.715 495.385>
VStem: 532 266<1152.79 1302.66> 551 276<655.132 840.694> 1725 241<-117 105 327 618>
DStem2: 638 -30 875 -109 0.390867 0.920447<19.9202 1780.66> 1212 277 1532 327 0.559545 0.8288<220.494 569.667>
LayerCount: 2
Fore
SplineSet
1725 327 m 1,0,-1
 1725 618 l 1,1,-1
 1532 327 l 1,2,-1
 1725 327 l 1,0,-1
1966 1007 m 1,3,-1
 1966 326 l 1,4,-1
 2108 326 l 1,5,-1
 2108 105 l 1,6,-1
 1966 105 l 1,7,-1
 1966 -117 l 1,8,-1
 1726 -117 l 1,9,-1
 1726 105 l 1,10,-1
 1247 105 l 1,11,-1
 1212 277 l 1,12,-1
 1744 1065 l 1,13,-1
 1966 1007 l 1,3,-1
1334 1609 m 1,14,-1
 1578 1525 l 1,15,-1
 875 -109 l 1,16,-1
 638 -30 l 1,17,-1
 1334 1609 l 1,14,-1
532 1236 m 1,18,19
 532 1280 532 1280 496.5 1300.5 c 128,-1,20
 461 1321 461 1321 404 1321 c 0,21,22
 383 1321 383 1321 355.5 1316.5 c 128,-1,23
 328 1312 328 1312 297 1304 c 128,-1,24
 266 1296 266 1296 233 1285.5 c 128,-1,25
 200 1275 200 1275 169 1263 c 1,26,-1
 71 1458 l 1,27,28
 94 1471 94 1471 126.5 1486.5 c 128,-1,29
 159 1502 159 1502 198.5 1514.5 c 128,-1,30
 238 1527 238 1527 284.5 1535.5 c 128,-1,31
 331 1544 331 1544 381 1544 c 0,32,33
 475 1544 475 1544 552 1528 c 128,-1,34
 629 1512 629 1512 683.5 1475 c 128,-1,35
 738 1438 738 1438 768 1377.5 c 128,-1,36
 798 1317 798 1317 798 1229 c 0,37,38
 798 1194 798 1194 788 1158.5 c 128,-1,39
 778 1123 778 1123 758 1092.5 c 128,-1,40
 738 1062 738 1062 708.5 1038.5 c 128,-1,41
 679 1015 679 1015 640 1004 c 1,42,43
 682 993 682 993 716.5 967.5 c 128,-1,44
 751 942 751 942 775.5 908 c 128,-1,45
 800 874 800 874 813.5 834.5 c 128,-1,46
 827 795 827 795 827 756 c 0,47,48
 827 661 827 661 793.5 595 c 128,-1,49
 760 529 760 529 700 487.5 c 128,-1,50
 640 446 640 446 557.5 427.5 c 128,-1,51
 475 409 475 409 378 409 c 0,52,53
 350 409 350 409 309.5 412.5 c 128,-1,54
 269 416 269 416 227.5 423 c 128,-1,55
 186 430 186 430 149 440 c 128,-1,56
 112 450 112 450 91 463 c 1,57,-1
 161 679 l 2,58,59
 160 679 160 679 179.5 671 c 128,-1,60
 199 663 199 663 231.5 654 c 128,-1,61
 264 645 264 645 305 637 c 128,-1,62
 346 629 346 629 388 629 c 0,63,64
 470 629 470 629 510.5 656 c 128,-1,65
 551 683 551 683 551 751 c 0,66,67
 551 787 551 787 530.5 815 c 128,-1,68
 510 843 510 843 476 862 c 128,-1,69
 442 881 442 881 398 890.5 c 128,-1,70
 354 900 354 900 307 900 c 1,71,-1
 307 1110 l 1,72,73
 351 1110 351 1110 391 1116.5 c 128,-1,74
 431 1123 431 1123 462 1137.5 c 128,-1,75
 493 1152 493 1152 511.5 1176 c 128,-1,76
 530 1200 530 1200 532 1236 c 1,18,19
EndSplineSet
EndChar

StartChar: questiondown
Encoding: 191 191 131
Width: 1190
GlyphClass: 2
Flags: W
HStem: -119 293<507.761 980.817> 1144 420<616.173 880.021>
VStem: 106 363<213.94 428.885> 543 410<1215.56 1490.91> 595 345<775.291 1039>
LayerCount: 2
Fore
SplineSet
953 1350 m 2,0,1
 953 1303 953 1303 937.5 1265 c 128,-1,2
 922 1227 922 1227 894 1200 c 128,-1,3
 866 1173 866 1173 827.5 1158.5 c 128,-1,4
 789 1144 789 1144 744 1144 c 0,5,6
 697 1144 697 1144 659.5 1160 c 128,-1,7
 622 1176 622 1176 596 1204.5 c 128,-1,8
 570 1233 570 1233 556.5 1272 c 128,-1,9
 543 1311 543 1311 543 1358 c 256,10,11
 543 1405 543 1405 559 1443 c 128,-1,12
 575 1481 575 1481 603 1508 c 128,-1,13
 631 1535 631 1535 669 1549.5 c 128,-1,14
 707 1564 707 1564 751 1564 c 256,15,16
 795 1564 795 1564 832 1548 c 128,-1,17
 869 1532 869 1532 896 1505 c 128,-1,18
 923 1478 923 1478 938 1441.5 c 128,-1,19
 953 1405 953 1405 953 1365 c 2,20,-1
 953 1350 l 2,0,1
469 322 m 0,21,22
 469 268 469 268 490.5 238 c 128,-1,23
 512 208 512 208 547.5 193.5 c 128,-1,24
 583 179 583 179 629 176.5 c 128,-1,25
 675 174 675 174 724 174 c 0,26,27
 757 174 757 174 796 179 c 128,-1,28
 835 184 835 184 873.5 192 c 128,-1,29
 912 200 912 200 947.5 209.5 c 128,-1,30
 983 219 983 219 1010.5 227 c 128,-1,31
 1038 235 1038 235 1054.5 240.5 c 128,-1,32
 1071 246 1071 246 1071 247 c 2,33,-1
 1156 -25 l 1,34,35
 1100 -53 1100 -53 1046 -71.5 c 128,-1,36
 992 -90 992 -90 935 -100.5 c 128,-1,37
 878 -111 878 -111 817.5 -115 c 128,-1,38
 757 -119 757 -119 690 -119 c 0,39,40
 563 -119 563 -119 456 -96.5 c 128,-1,41
 349 -74 349 -74 271 -23.5 c 128,-1,42
 193 27 193 27 149.5 108.5 c 128,-1,43
 106 190 106 190 106 307 c 0,44,45
 106 330 106 330 109.5 365.5 c 128,-1,46
 113 401 113 401 128.5 443 c 128,-1,47
 144 485 144 485 174.5 532 c 128,-1,48
 205 579 205 579 259.5 624.5 c 128,-1,49
 314 670 314 670 396 712.5 c 128,-1,50
 478 755 478 755 595 788 c 1,51,-1
 595 1039 l 1,52,-1
 940 1039 l 1,53,-1
 940 624 l 1,54,55
 901 610 901 610 851 595 c 128,-1,56
 801 580 801 580 749 561 c 128,-1,57
 697 542 697 542 646.5 519.5 c 128,-1,58
 596 497 596 497 556.5 468 c 128,-1,59
 517 439 517 439 493 403 c 128,-1,60
 469 367 469 367 469 322 c 0,21,22
EndSplineSet
EndChar

StartChar: AE
Encoding: 198 198 138
Width: 2026
GlyphClass: 2
Flags: W
HStem: 0 245<1255 1957> 359 181<579 863> 764 211<1255 1851> 1384 246<1255 1948>
VStem: 863 392<245 359 540 764 975 1375>
DStem2: 27 0 531 359 0.355017 0.93486<137.037 514.543 700.794 827.588>
LayerCount: 2
Fore
SplineSet
863 1375 m 1,0,-1
 579 540 l 1,1,-1
 863 540 l 1,2,-1
 863 1375 l 1,0,-1
1948 1384 m 1,3,-1
 1255 1384 l 1,4,-1
 1255 975 l 1,5,-1
 1851 975 l 1,6,-1
 1851 764 l 1,7,-1
 1255 764 l 1,8,-1
 1255 245 l 1,9,-1
 1957 245 l 1,10,-1
 1957 0 l 1,11,-1
 863 0 l 1,12,-1
 863 359 l 1,13,-1
 531 359 l 1,14,-1
 413 0 l 1,15,-1
 27 0 l 1,16,-1
 646 1630 l 1,17,-1
 1948 1630 l 1,18,-1
 1948 1384 l 1,3,-1
EndSplineSet
EndChar

StartChar: Eth
Encoding: 208 208 148
Width: 1632
GlyphClass: 2
Flags: W
HStem: 0 245<563 902.898> 699 249<1 165 563 838> 1395 235<563 896.882>
VStem: 165 398<245 699 948 1395> 1126 399<478.192 1141.65>
LayerCount: 2
Fore
SplineSet
1126 810 m 256,0,1
 1126 891 1126 891 1121 966 c 128,-1,2
 1116 1041 1116 1041 1099 1106 c 128,-1,3
 1082 1171 1082 1171 1050 1224 c 128,-1,4
 1018 1277 1018 1277 964.5 1315 c 128,-1,5
 911 1353 911 1353 832.5 1374 c 128,-1,6
 754 1395 754 1395 644 1395 c 2,7,-1
 563 1395 l 1,8,-1
 563 948 l 1,9,-1
 838 948 l 1,10,-1
 838 699 l 1,11,-1
 563 699 l 1,12,-1
 563 245 l 1,13,-1
 644 245 l 2,14,15
 751 245 751 245 828.5 264.5 c 128,-1,16
 906 284 906 284 959.5 319.5 c 128,-1,17
 1013 355 1013 355 1046 406 c 128,-1,18
 1079 457 1079 457 1096.5 519.5 c 128,-1,19
 1114 582 1114 582 1120 655.5 c 128,-1,20
 1126 729 1126 729 1126 810 c 256,0,1
1525 807 m 0,21,22
 1525 610 1525 610 1474 459.5 c 128,-1,23
 1423 309 1423 309 1318.5 207 c 128,-1,24
 1214 105 1214 105 1054 52.5 c 128,-1,25
 894 0 894 0 676 0 c 2,26,-1
 165 0 l 1,27,-1
 165 699 l 1,28,-1
 1 699 l 1,29,-1
 1 948 l 1,30,-1
 165 948 l 1,31,-1
 165 1630 l 1,32,-1
 676 1630 l 2,33,34
 1098 1630 1098 1630 1311.5 1426 c 128,-1,35
 1525 1222 1525 1222 1525 807 c 0,21,22
EndSplineSet
EndChar

StartChar: multiply
Encoding: 215 215 155
Width: 1357
GlyphClass: 2
Flags: W
DStem2: 404 1050 208 834 0.728904 -0.684616<5.01191 389.203 697.53 1083.82> 208 308 404 93 0.729364 0.684125<0 385.561 694.082 1079>
LayerCount: 2
Fore
SplineSet
404 1050 m 1,0,-1
 700 771 l 1,1,-1
 997 1050 l 1,2,-1
 1194 834 l 1,3,-1
 912 572 l 1,4,-1
 1194 308 l 1,5,-1
 997 93 l 1,6,-1
 700 371 l 1,7,-1
 404 93 l 1,8,-1
 208 308 l 1,9,-1
 489 572 l 1,10,-1
 208 834 l 1,11,-1
 404 1050 l 1,0,-1
EndSplineSet
EndChar

StartChar: Oslash
Encoding: 216 216 156
Width: 1691
GlyphClass: 2
Flags: W
HStem: -28 286<749.103 1012.45> 1371 286<676.07 1008.44> 1779 20G<1192.04 1260.43>
VStem: 106 398<461.028 1152.05> 1187 397<478.26 1152.62>
DStem2: 426 -128 570 -174 0.372719 0.927944<10.9861 184.436 502.701 1496.92 1876.53 2076.63>
LayerCount: 2
Fore
SplineSet
493 40 m 1,0,1
 392 86 392 86 319 160.5 c 128,-1,2
 246 235 246 235 198.5 334.5 c 128,-1,3
 151 434 151 434 128.5 555.5 c 128,-1,4
 106 677 106 677 106 816 c 0,5,6
 106 1006 106 1006 149 1161 c 128,-1,7
 192 1316 192 1316 282.5 1426.5 c 128,-1,8
 373 1537 373 1537 513 1597 c 128,-1,9
 653 1657 653 1657 846 1657 c 0,10,11
 994 1657 994 1657 1128 1618 c 1,12,-1
 1200 1799 l 1,13,-1
 1339 1753 l 1,14,-1
 1260 1557 l 1,15,16
 1422 1457 1422 1457 1503 1269 c 128,-1,17
 1584 1081 1584 1081 1584 816 c 0,18,19
 1584 621 1584 621 1539.5 464.5 c 128,-1,20
 1495 308 1495 308 1404 198.5 c 128,-1,21
 1313 89 1313 89 1174 30.5 c 128,-1,22
 1035 -28 1035 -28 845 -28 c 0,23,24
 718 -28 718 -28 636 -7 c 1,25,-1
 570 -174 l 1,26,-1
 426 -128 l 1,27,-1
 493 40 l 1,0,1
748 271 m 1,28,29
 779 263 779 263 802.5 260.5 c 128,-1,30
 826 258 826 258 845 258 c 0,31,32
 947 258 947 258 1013 302 c 128,-1,33
 1079 346 1079 346 1118 422 c 128,-1,34
 1157 498 1157 498 1172 599.5 c 128,-1,35
 1187 701 1187 701 1187 816 c 256,36,37
 1187 931 1187 931 1174 1026 c 128,-1,38
 1161 1121 1161 1121 1121 1206 c 1,39,-1
 748 271 l 1,28,29
622 311 m 1,40,41
 626 321 626 321 626 333 c 0,42,43
 626 346 626 346 619 352 c 1,44,-1
 1010 1328 l 1,45,46
 972 1348 972 1348 933.5 1359.5 c 128,-1,47
 895 1371 895 1371 844 1371 c 0,48,49
 745 1371 745 1371 679.5 1329 c 128,-1,50
 614 1287 614 1287 575 1212.5 c 128,-1,51
 536 1138 536 1138 520 1036.5 c 128,-1,52
 504 935 504 935 504 816 c 0,53,54
 504 739 504 739 510 666.5 c 128,-1,55
 516 594 516 594 529.5 529.5 c 128,-1,56
 543 465 543 465 565.5 409.5 c 128,-1,57
 588 354 588 354 622 311 c 1,40,41
EndSplineSet
EndChar

StartChar: Thorn
Encoding: 222 222 162
Width: 1375
GlyphClass: 2
Flags: W
HStem: 137 246<641.695 855.851> 1144 253<642.287 840.258> 1610 20G<158 515>
VStem: 158 378<-249 280 445.324 1108.37> 158 357<1216 1630> 926 383<465.953 1039.58>
LayerCount: 2
Fore
SplineSet
926 776 m 0,0,1
 926 959 926 959 876 1051.5 c 128,-1,2
 826 1144 826 1144 730 1144 c 0,3,4
 677 1144 677 1144 643 1135.5 c 128,-1,5
 609 1127 609 1127 588 1113.5 c 128,-1,6
 567 1100 567 1100 556 1084.5 c 128,-1,7
 545 1069 545 1069 536 1055 c 1,8,-1
 536 496 l 1,9,10
 573 441 573 441 626.5 413.5 c 128,-1,11
 680 386 680 386 751 383 c 1,12,13
 795 383 795 383 824.5 401.5 c 128,-1,14
 854 420 854 420 873.5 450.5 c 128,-1,15
 893 481 893 481 903.5 521 c 128,-1,16
 914 561 914 561 919 604.5 c 128,-1,17
 924 648 924 648 925 692.5 c 128,-1,18
 926 737 926 737 926 776 c 0,0,1
829 137 m 0,19,20
 631 137 631 137 536 280 c 1,21,-1
 536 -249 l 1,22,-1
 158 -249 l 1,23,-1
 158 1630 l 1,24,-1
 515 1630 l 1,25,-1
 515 1216 l 1,26,27
 533 1259 533 1259 564.5 1292 c 128,-1,28
 596 1325 596 1325 636 1348.5 c 128,-1,29
 676 1372 676 1372 722 1384 c 128,-1,30
 768 1396 768 1396 815 1397 c 1,31,32
 937 1397 937 1397 1028.5 1350.5 c 128,-1,33
 1120 1304 1120 1304 1182 1220 c 128,-1,34
 1244 1136 1244 1136 1275.5 1019 c 128,-1,35
 1307 902 1307 902 1309 761 c 1,36,37
 1309 611 1309 611 1274.5 494.5 c 128,-1,38
 1240 378 1240 378 1177 298.5 c 128,-1,39
 1114 219 1114 219 1025.5 178 c 128,-1,40
 937 137 937 137 829 137 c 0,19,20
EndSplineSet
EndChar

StartChar: germandbls
Encoding: 223 223 163
Width: 1648
GlyphClass: 2
Flags: W
HStem: -210 303<677 968.681> 0 21G<158 559> 704 233<712 970.05> 1372 259<648.367 1014.36>
VStem: 158 401<0 1275.11> 1078 349<1030.96 1311.54> 1193 397<233.191 543.084>
LayerCount: 2
Fore
SplineSet
714 704 m 1,0,1
 713 708 713 708 712.5 716 c 128,-1,2
 712 724 712 724 712 747 c 128,-1,3
 712 770 712 770 712 814.5 c 128,-1,4
 712 859 712 859 712 937 c 1,5,6
 903 937 903 937 990.5 992.5 c 128,-1,7
 1078 1048 1078 1048 1078 1166 c 0,8,9
 1078 1209 1078 1209 1069.5 1246.5 c 128,-1,10
 1061 1284 1061 1284 1033.5 1312 c 128,-1,11
 1006 1340 1006 1340 955 1356 c 128,-1,12
 904 1372 904 1372 819 1372 c 0,13,14
 743 1372 743 1372 693 1352.5 c 128,-1,15
 643 1333 643 1333 613 1290.5 c 128,-1,16
 583 1248 583 1248 571 1179 c 128,-1,17
 559 1110 559 1110 559 1011 c 2,18,-1
 559 0 l 1,19,-1
 158 0 l 1,20,-1
 158 1011 l 2,21,22
 158 1163 158 1163 196.5 1279 c 128,-1,23
 235 1395 235 1395 315.5 1473 c 128,-1,24
 396 1551 396 1551 521 1591 c 128,-1,25
 646 1631 646 1631 819 1631 c 0,26,27
 951 1631 951 1631 1048 1610 c 128,-1,28
 1145 1589 1145 1589 1212.5 1554 c 128,-1,29
 1280 1519 1280 1519 1322 1473.5 c 128,-1,30
 1364 1428 1364 1428 1387.5 1379.5 c 128,-1,31
 1411 1331 1411 1331 1419 1283 c 128,-1,32
 1427 1235 1427 1235 1427 1194 c 0,33,34
 1427 1132 1427 1132 1408 1074 c 128,-1,35
 1389 1016 1389 1016 1347 968.5 c 128,-1,36
 1305 921 1305 921 1237.5 888 c 128,-1,37
 1170 855 1170 855 1073 844 c 1,38,39
 1334 818 1334 818 1462 697 c 128,-1,40
 1590 576 1590 576 1590 363 c 0,41,42
 1590 265 1590 265 1555.5 184 c 128,-1,43
 1521 103 1521 103 1459 39.5 c 128,-1,44
 1397 -24 1397 -24 1311.5 -71 c 128,-1,45
 1226 -118 1226 -118 1124.5 -149 c 128,-1,46
 1023 -180 1023 -180 909 -195 c 128,-1,47
 795 -210 795 -210 677 -210 c 1,48,-1
 677 93 l 1,49,50
 842 105 842 105 943 130.5 c 128,-1,51
 1044 156 1044 156 1099.5 192 c 128,-1,52
 1155 228 1155 228 1174 273 c 128,-1,53
 1193 318 1193 318 1193 369 c 0,54,55
 1193 539 1193 539 1072 621.5 c 128,-1,56
 951 704 951 704 714 704 c 1,0,1
EndSplineSet
EndChar

StartChar: ae
Encoding: 230 230 170
Width: 1893
GlyphClass: 2
Flags: W
HStem: -15 254<464.706 719.296 1222.64 1599.36> 512 185<1124 1505> 560 195<469.831 772> 956 269<338.501 735.119 1189.67 1449.64>
VStem: 70 352<278.146 513.659> 1505 306<697 895.675>
LayerCount: 2
Fore
SplineSet
1505 697 m 1,0,1
 1505 757 1505 757 1495 807 c 128,-1,2
 1485 857 1485 857 1463 893 c 128,-1,3
 1441 929 1441 929 1405 949.5 c 128,-1,4
 1369 970 1369 970 1317 970 c 0,5,6
 1266 970 1266 970 1230.5 947.5 c 128,-1,7
 1195 925 1195 925 1172.5 887.5 c 128,-1,8
 1150 850 1150 850 1138.5 800.5 c 128,-1,9
 1127 751 1127 751 1124 697 c 1,10,-1
 1505 697 l 1,0,1
1750 80 m 2,11,12
 1749 80 1749 80 1733.5 73 c 128,-1,13
 1718 66 1718 66 1691 55.5 c 128,-1,14
 1664 45 1664 45 1627 32.5 c 128,-1,15
 1590 20 1590 20 1546 9.5 c 128,-1,16
 1502 -1 1502 -1 1453.5 -8 c 128,-1,17
 1405 -15 1405 -15 1354 -15 c 0,18,19
 1280 -15 1280 -15 1219 -5.5 c 128,-1,20
 1158 4 1158 4 1106.5 27.5 c 128,-1,21
 1055 51 1055 51 1011.5 91 c 128,-1,22
 968 131 968 131 931 192 c 1,23,24
 893 126 893 126 841.5 85 c 128,-1,25
 790 44 790 44 730.5 21 c 128,-1,26
 671 -2 671 -2 607.5 -10.5 c 128,-1,27
 544 -19 544 -19 483 -19 c 0,28,29
 279 -19 279 -19 174.5 82.5 c 128,-1,30
 70 184 70 184 70 388 c 0,31,32
 70 467 70 467 92.5 524.5 c 128,-1,33
 115 582 115 582 154 622.5 c 128,-1,34
 193 663 193 663 247 689 c 128,-1,35
 301 715 301 715 364.5 729.5 c 128,-1,36
 428 744 428 744 498 749.5 c 128,-1,37
 568 755 568 755 640 755 c 256,38,39
 712 755 712 755 772 746 c 1,40,41
 772 785 772 785 769.5 822.5 c 128,-1,42
 767 860 767 860 752 889.5 c 128,-1,43
 737 919 737 919 705.5 937.5 c 128,-1,44
 674 956 674 956 616 956 c 0,45,46
 570 956 570 956 522 950 c 128,-1,47
 474 944 474 944 428 935 c 128,-1,48
 382 926 382 926 341 916 c 128,-1,49
 300 906 300 906 268.5 897 c 128,-1,50
 237 888 237 888 218 882 c 128,-1,51
 199 876 199 876 198 876 c 2,52,-1
 150 1118 l 2,53,54
 150 1117 150 1117 169.5 1124.5 c 128,-1,55
 189 1132 189 1132 223 1144 c 128,-1,56
 257 1156 257 1156 303 1170 c 128,-1,57
 349 1184 349 1184 402.5 1196.5 c 128,-1,58
 456 1209 456 1209 514.5 1217 c 128,-1,59
 573 1225 573 1225 631 1225 c 0,60,61
 881 1225 881 1225 980 1079 c 1,62,63
 1006 1116 1006 1116 1042 1143.5 c 128,-1,64
 1078 1171 1078 1171 1122.5 1189 c 128,-1,65
 1167 1207 1167 1207 1218 1216 c 128,-1,66
 1269 1225 1269 1225 1324 1225 c 0,67,68
 1439 1225 1439 1225 1530 1185.5 c 128,-1,69
 1621 1146 1621 1146 1683 1075 c 128,-1,70
 1745 1004 1745 1004 1778 905 c 128,-1,71
 1811 806 1811 806 1811 687 c 0,72,73
 1811 643 1811 643 1811 599 c 128,-1,74
 1811 555 1811 555 1812 512 c 1,75,-1
 1124 512 l 1,76,77
 1126 451 1126 451 1142.5 401 c 128,-1,78
 1159 351 1159 351 1189.5 315 c 128,-1,79
 1220 279 1220 279 1265 259 c 128,-1,80
 1310 239 1310 239 1370 239 c 0,81,82
 1429 239 1429 239 1484.5 251.5 c 128,-1,83
 1540 264 1540 264 1583.5 278.5 c 128,-1,84
 1627 293 1627 293 1653.5 305.5 c 128,-1,85
 1680 318 1680 318 1682 318 c 1,86,-1
 1750 80 l 2,11,12
422 401 m 0,87,88
 422 323 422 323 464 279 c 128,-1,89
 506 235 506 235 575 235 c 0,90,91
 632 235 632 235 678.5 259 c 128,-1,92
 725 283 725 283 772 324 c 1,93,-1
 772 554 l 1,94,95
 744 556 744 556 720 558 c 128,-1,96
 696 560 696 560 675 560 c 0,97,98
 612 560 612 560 564.5 552.5 c 128,-1,99
 517 545 517 545 485.5 527 c 128,-1,100
 454 509 454 509 438 478 c 128,-1,101
 422 447 422 447 422 401 c 0,87,88
EndSplineSet
EndChar

StartChar: igrave
Encoding: 236 236 176
Width: 772
GlyphClass: 2
Flags: W
HStem: 0 21G<225 604> 1178 20G<225 604>
VStem: 225 379<0 1198>
LayerCount: 2
Fore
SplineSet
24 1892 m 1,0,-1
 354 2048 l 1,1,-1
 568 1415 l 1,2,-1
 397 1334 l 1,3,-1
 24 1892 l 1,0,-1
225 0 m 1,4,-1
 225 1198 l 1,5,-1
 604 1198 l 1,6,-1
 604 0 l 1,7,-1
 225 0 l 1,4,-1
EndSplineSet
EndChar

StartChar: iacute
Encoding: 237 237 177
Width: 772
GlyphClass: 2
Flags: W
HStem: 0 21G<225 604> 1178 20G<225 604>
VStem: 225 379<0 1198>
LayerCount: 2
Fore
SplineSet
228 1372 m 1,0,-1
 442 2005 l 1,1,-1
 773 1850 l 1,2,-1
 400 1291 l 1,3,-1
 228 1372 l 1,0,-1
225 0 m 1,4,-1
 225 1198 l 1,5,-1
 604 1198 l 1,6,-1
 604 0 l 1,7,-1
 225 0 l 1,4,-1
EndSplineSet
EndChar

StartChar: icircumflex
Encoding: 238 238 178
Width: 772
GlyphClass: 2
Flags: W
HStem: 0 21G<225 604> 1178 20G<225 604>
VStem: 225 379<0 1198>
LayerCount: 2
Fore
SplineSet
526 1931 m 1,0,-1
 788 1289 l 1,1,-1
 490 1289 l 1,2,-1
 385 1685 l 1,3,-1
 280 1281 l 1,4,-1
 -16 1281 l 1,5,-1
 247 1931 l 1,6,-1
 526 1931 l 1,0,-1
225 0 m 1,7,-1
 225 1198 l 1,8,-1
 604 1198 l 1,9,-1
 604 0 l 1,10,-1
 225 0 l 1,7,-1
EndSplineSet
EndChar

StartChar: idieresis
Encoding: 239 239 179
Width: 772
GlyphClass: 2
Flags: W
HStem: 0 21G<225 604> 1178 20G<225 604> 1275 417<-96.7849 163.697 613.215 873.697>
VStem: -175 419<1354.48 1612.55> 225 379<0 1198> 535 419<1354.48 1612.55>
LayerCount: 2
Fore
SplineSet
-175 1483 m 0,0,1
 -175 1528 -175 1528 -159 1566 c 128,-1,2
 -143 1604 -143 1604 -114.5 1632 c 128,-1,3
 -86 1660 -86 1660 -48.5 1676 c 128,-1,4
 -11 1692 -11 1692 33 1692 c 0,5,6
 76 1692 76 1692 114.5 1676 c 128,-1,7
 153 1660 153 1660 181.5 1632 c 128,-1,8
 210 1604 210 1604 227 1566 c 128,-1,9
 244 1528 244 1528 244 1483 c 0,10,11
 244 1439 244 1439 227 1401 c 128,-1,12
 210 1363 210 1363 181.5 1335 c 128,-1,13
 153 1307 153 1307 114.5 1291 c 128,-1,14
 76 1275 76 1275 33 1275 c 0,15,16
 -12 1275 -12 1275 -50.5 1291.5 c 128,-1,17
 -89 1308 -89 1308 -116.5 1336 c 128,-1,18
 -144 1364 -144 1364 -159.5 1402 c 128,-1,19
 -175 1440 -175 1440 -175 1483 c 0,0,1
535 1483 m 0,20,21
 535 1528 535 1528 551 1566 c 128,-1,22
 567 1604 567 1604 595.5 1632 c 128,-1,23
 624 1660 624 1660 661.5 1676 c 128,-1,24
 699 1692 699 1692 743 1692 c 0,25,26
 786 1692 786 1692 824.5 1676 c 128,-1,27
 863 1660 863 1660 891.5 1632 c 128,-1,28
 920 1604 920 1604 937 1566 c 128,-1,29
 954 1528 954 1528 954 1483 c 0,30,31
 954 1439 954 1439 937 1401 c 128,-1,32
 920 1363 920 1363 891.5 1335 c 128,-1,33
 863 1307 863 1307 824.5 1291 c 128,-1,34
 786 1275 786 1275 743 1275 c 0,35,36
 698 1275 698 1275 660 1291.5 c 128,-1,37
 622 1308 622 1308 594 1336 c 128,-1,38
 566 1364 566 1364 550.5 1402 c 128,-1,39
 535 1440 535 1440 535 1483 c 0,20,21
225 0 m 1,40,-1
 225 1198 l 1,41,-1
 604 1198 l 1,42,-1
 604 0 l 1,43,-1
 225 0 l 1,40,-1
EndSplineSet
EndChar

StartChar: eth
Encoding: 240 240 180
Width: 1294
GlyphClass: 2
Flags: W
HStem: -16 253<540.436 759.992> 974 251<509.642 737.202> 1791 20G<528.037 565.5>
VStem: 72 379<344.086 904.947> 847 377<340.61 924.868>
DStem2: 384 1460 428 1300 0.951193 0.308598<0 160.011 549.379 778.958>
LayerCount: 2
Fore
SplineSet
1224 624 m 0,0,1
 1224 454 1224 454 1185 333 c 128,-1,2
 1146 212 1146 212 1071 134.5 c 128,-1,3
 996 57 996 57 885.5 20.5 c 128,-1,4
 775 -16 775 -16 632 -16 c 256,5,6
 489 -16 489 -16 384 34.5 c 128,-1,7
 279 85 279 85 209.5 171 c 128,-1,8
 140 257 140 257 106 372.5 c 128,-1,9
 72 488 72 488 72 619 c 0,10,11
 72 753 72 753 104 864.5 c 128,-1,12
 136 976 136 976 196 1056 c 128,-1,13
 256 1136 256 1136 341.5 1180.5 c 128,-1,14
 427 1225 427 1225 533 1225 c 256,15,16
 639 1225 639 1225 716 1190.5 c 128,-1,17
 793 1156 793 1156 847 1082 c 1,18,19
 842 1108 842 1108 828 1142.5 c 128,-1,20
 814 1177 814 1177 791 1216 c 128,-1,21
 768 1255 768 1255 737 1296.5 c 128,-1,22
 706 1338 706 1338 669 1378 c 1,23,-1
 428 1300 l 1,24,-1
 384 1460 l 1,25,-1
 536 1510 l 1,26,27
 496 1545 496 1545 458.5 1572 c 128,-1,28
 421 1599 421 1599 383 1620 c 1,29,-1
 545 1811 l 1,30,31
 586 1785 586 1785 618.5 1765 c 128,-1,32
 651 1745 651 1745 682.5 1722.5 c 128,-1,33
 714 1700 714 1700 748.5 1672 c 128,-1,34
 783 1644 783 1644 828 1604 c 1,35,-1
 1133 1703 l 1,36,-1
 1176 1543 l 1,37,-1
 958 1471 l 1,38,39
 1015 1397 1015 1397 1063.5 1312 c 128,-1,40
 1112 1227 1112 1227 1147.5 1124.5 c 128,-1,41
 1183 1022 1183 1022 1203.5 898 c 128,-1,42
 1224 774 1224 774 1224 624 c 0,0,1
451 606 m 0,43,44
 451 538 451 538 460 471.5 c 128,-1,45
 469 405 469 405 491.5 353 c 128,-1,46
 514 301 514 301 552.5 269 c 128,-1,47
 591 237 591 237 650 237 c 0,48,49
 705 237 705 237 743 266 c 128,-1,50
 781 295 781 295 804 342 c 128,-1,51
 827 389 827 389 837 448 c 128,-1,52
 847 507 847 507 847 566 c 0,53,54
 847 651 847 651 846.5 735 c 128,-1,55
 846 819 846 819 846 904 c 1,56,57
 790 936 790 936 735.5 955 c 128,-1,58
 681 974 681 974 612 974 c 0,59,60
 571 974 571 974 543 957.5 c 128,-1,61
 515 941 515 941 497 913 c 128,-1,62
 479 885 479 885 470 848 c 128,-1,63
 461 811 461 811 456.5 770 c 128,-1,64
 452 729 452 729 451.5 686.5 c 128,-1,65
 451 644 451 644 451 606 c 0,43,44
EndSplineSet
EndChar

StartChar: divide
Encoding: 247 247 187
Width: 1242
GlyphClass: 2
Flags: W
HStem: 108 417<495.957 752.148> 621 284<84 1153> 1004 417<492.137 750.043>
VStem: 421 407<183.354 448.384 1081.54 1340.77>
LayerCount: 2
Fore
SplineSet
418 1212 m 0,0,1
 418 1256 418 1256 433 1294.5 c 128,-1,2
 448 1333 448 1333 475 1361 c 128,-1,3
 502 1389 502 1389 539.5 1405 c 128,-1,4
 577 1421 577 1421 621 1421 c 256,5,6
 665 1421 665 1421 702.5 1405 c 128,-1,7
 740 1389 740 1389 767 1360.5 c 128,-1,8
 794 1332 794 1332 809.5 1294 c 128,-1,9
 825 1256 825 1256 825 1212 c 256,10,11
 825 1168 825 1168 810 1130 c 128,-1,12
 795 1092 795 1092 768 1064 c 128,-1,13
 741 1036 741 1036 703.5 1020 c 128,-1,14
 666 1004 666 1004 621 1004 c 256,15,16
 576 1004 576 1004 538.5 1020.5 c 128,-1,17
 501 1037 501 1037 474.5 1065 c 128,-1,18
 448 1093 448 1093 433 1131 c 128,-1,19
 418 1169 418 1169 418 1212 c 0,0,1
421 316 m 0,20,21
 421 360 421 360 436.5 398.5 c 128,-1,22
 452 437 452 437 479 465 c 128,-1,23
 506 493 506 493 543.5 509 c 128,-1,24
 581 525 581 525 625 525 c 256,25,26
 669 525 669 525 706 508.5 c 128,-1,27
 743 492 743 492 770 464 c 128,-1,28
 797 436 797 436 812.5 397.5 c 128,-1,29
 828 359 828 359 828 316 c 0,30,31
 828 272 828 272 813 234.5 c 128,-1,32
 798 197 798 197 771 168.5 c 128,-1,33
 744 140 744 140 707 124 c 128,-1,34
 670 108 670 108 625 108 c 256,35,36
 580 108 580 108 542.5 124.5 c 128,-1,37
 505 141 505 141 478 169.5 c 128,-1,38
 451 198 451 198 436 235.5 c 128,-1,39
 421 273 421 273 421 316 c 0,20,21
84 621 m 1,40,-1
 84 905 l 1,41,-1
 1153 905 l 1,42,-1
 1153 621 l 1,43,-1
 84 621 l 1,40,-1
EndSplineSet
EndChar

StartChar: oslash
Encoding: 248 248 188
Width: 1329
GlyphClass: 2
Flags: W
HStem: -16 218<592 809.892> 1005 220<510.97 730.465>
VStem: 72 323<364.268 871.817> 945 310<363.319 849.541>
DStem2: 350 -143 461 -180 0.314392 0.949293<0 183.213 444.302 1169.81 1432.97 1633.1>
LayerCount: 2
Fore
SplineSet
731 999 m 1,0,1
 708 1005 708 1005 664 1005 c 0,2,3
 640 1005 640 1005 611 1001.5 c 128,-1,4
 582 998 582 998 552.5 985 c 128,-1,5
 523 972 523 972 494.5 947.5 c 128,-1,6
 466 923 466 923 444 881 c 128,-1,7
 422 839 422 839 408.5 777 c 128,-1,8
 395 715 395 715 395 627 c 0,9,10
 395 532 395 532 409.5 465.5 c 128,-1,11
 424 399 424 399 442 357 c 128,-1,12
 460 315 460 315 474 296 c 1,13,-1
 489 278 l 1,14,-1
 489 279 l 1,15,-1
 731 999 l 1,0,1
461 -180 m 1,16,-1
 350 -143 l 1,17,-1
 408 27 l 1,18,19
 240 91 240 91 156 236 c 128,-1,20
 72 381 72 381 72 601 c 0,21,22
 72 748 72 748 112 863.5 c 128,-1,23
 152 979 152 979 227.5 1059.5 c 128,-1,24
 303 1140 303 1140 413 1182.5 c 128,-1,25
 523 1225 523 1225 664 1225 c 0,26,27
 700 1225 700 1225 732.5 1222 c 128,-1,28
 765 1219 765 1219 798 1214 c 1,29,-1
 864 1409 l 1,30,-1
 973 1371 l 1,31,-1
 911 1184 l 1,32,33
 995 1154 995 1154 1059 1100.5 c 128,-1,34
 1123 1047 1123 1047 1166.5 972.5 c 128,-1,35
 1210 898 1210 898 1232.5 804.5 c 128,-1,36
 1255 711 1255 711 1255 601 c 0,37,38
 1255 457 1255 457 1216 343 c 128,-1,39
 1177 229 1177 229 1102 149 c 128,-1,40
 1027 69 1027 69 916.5 26.5 c 128,-1,41
 806 -16 806 -16 664 -16 c 0,42,43
 587 -16 587 -16 521 -4 c 1,44,-1
 461 -180 l 1,16,-1
664 202 m 0,45,46
 727 202 727 202 779 228 c 128,-1,47
 831 254 831 254 867.5 305 c 128,-1,48
 904 356 904 356 924.5 431 c 128,-1,49
 945 506 945 506 945 604 c 0,50,51
 945 708 945 708 927.5 772 c 128,-1,52
 910 836 910 836 889 871 c 128,-1,53
 868 906 868 906 850 918 c 128,-1,54
 832 930 832 930 831 930 c 2,55,-1
 592 208 l 1,56,57
 603 204 603 204 620.5 203 c 128,-1,58
 638 202 638 202 664 202 c 0,45,46
EndSplineSet
EndChar

StartChar: thorn
Encoding: 254 254 194
Width: 1391
GlyphClass: 2
Flags: W
HStem: -411 21G<162 540> -16 251<632.531 872.189> 962 253<630.031 851.152> 1611 20G<162 536>
VStem: 162 378<-411 113 292.418 930.806 1079 1631> 936 383<306.298 863.59>
LayerCount: 2
Fore
SplineSet
936 613 m 0,0,1
 936 705 936 705 922.5 771 c 128,-1,2
 909 837 909 837 883.5 879.5 c 128,-1,3
 858 922 858 922 821 942 c 128,-1,4
 784 962 784 962 736 962 c 0,5,6
 686 962 686 962 654 955.5 c 128,-1,7
 622 949 622 949 600.5 939 c 128,-1,8
 579 929 579 929 565.5 916.5 c 128,-1,9
 552 904 552 904 540 891 c 1,10,-1
 540 331 l 1,11,12
 589 281 589 281 645 258 c 128,-1,13
 701 235 701 235 771 235 c 0,14,15
 813 235 813 235 841.5 253 c 128,-1,16
 870 271 870 271 888.5 300.5 c 128,-1,17
 907 330 907 330 916.5 369 c 128,-1,18
 926 408 926 408 930.5 450 c 128,-1,19
 935 492 935 492 935.5 534 c 128,-1,20
 936 576 936 576 936 613 c 0,0,1
813 -16 m 0,21,22
 633 -16 633 -16 540 113 c 1,23,-1
 540 -411 l 1,24,-1
 162 -411 l 1,25,-1
 162 1631 l 1,26,-1
 536 1631 l 1,27,-1
 536 1079 l 1,28,29
 555 1114 555 1114 585 1139.5 c 128,-1,30
 615 1165 615 1165 653 1182 c 128,-1,31
 691 1199 691 1199 735.5 1207 c 128,-1,32
 780 1215 780 1215 828 1215 c 0,33,34
 953 1215 953 1215 1045.5 1168.5 c 128,-1,35
 1138 1122 1138 1122 1198.5 1038.5 c 128,-1,36
 1259 955 1259 955 1289 838.5 c 128,-1,37
 1319 722 1319 722 1319 582 c 0,38,39
 1319 435 1319 435 1282 323.5 c 128,-1,40
 1245 212 1245 212 1178 136.5 c 128,-1,41
 1111 61 1111 61 1018 22.5 c 128,-1,42
 925 -16 925 -16 813 -16 c 0,21,22
EndSplineSet
EndChar

StartChar: dotlessi
Encoding: 305 305 196
Width: 694
GlyphClass: 2
Flags: W
HStem: 0 21G<159 536> 1178 20G<159 536>
VStem: 159 377<0 1198>
LayerCount: 2
Fore
SplineSet
159 0 m 1,0,-1
 159 1198 l 1,1,-1
 536 1198 l 1,2,-1
 536 0 l 1,3,-1
 159 0 l 1,0,-1
EndSplineSet
EndChar

StartChar: OE
Encoding: 338 338 197
Width: 2382
GlyphClass: 2
Flags: W
HStem: -28 286<674.251 1014.7> 0 245<1582 2310> 719 245<1582 2208> 1371 286<674.426 1014.69> 1379 251<1582 2300>
VStem: 106 398<474.461 1153.52> 1187 395<461 964>
LayerCount: 2
Fore
SplineSet
1185 0 m 1,0,-1
 1185 1630 l 1,1,-1
 2300 1630 l 1,2,-1
 2300 1379 l 1,3,-1
 1582 1379 l 1,4,-1
 1582 964 l 1,5,-1
 2208 964 l 1,6,-1
 2208 719 l 1,7,-1
 1582 719 l 1,8,-1
 1582 245 l 1,9,-1
 2310 245 l 1,10,-1
 2310 0 l 1,11,-1
 1185 0 l 1,0,-1
1584 814 m 256,12,13
 1584 617 1584 617 1539 461 c 128,-1,14
 1494 305 1494 305 1402.5 196.5 c 128,-1,15
 1311 88 1311 88 1172 30 c 128,-1,16
 1033 -28 1033 -28 845 -28 c 256,17,18
 657 -28 657 -28 518.5 29.5 c 128,-1,19
 380 87 380 87 288 195.5 c 128,-1,20
 196 304 196 304 151 459.5 c 128,-1,21
 106 615 106 615 106 811 c 0,22,23
 106 1010 106 1010 151.5 1167.5 c 128,-1,24
 197 1325 197 1325 289 1433.5 c 128,-1,25
 381 1542 381 1542 520 1599.5 c 128,-1,26
 659 1657 659 1657 845 1657 c 0,27,28
 1032 1657 1032 1657 1171 1599 c 128,-1,29
 1310 1541 1310 1541 1401.5 1432.5 c 128,-1,30
 1493 1324 1493 1324 1538.5 1167.5 c 128,-1,31
 1584 1011 1584 1011 1584 814 c 256,12,13
504 817 m 0,32,33
 504 704 504 704 518 602.5 c 128,-1,34
 532 501 532 501 570 424.5 c 128,-1,35
 608 348 608 348 674 303 c 128,-1,36
 740 258 740 258 845 258 c 0,37,38
 951 258 951 258 1018 304.5 c 128,-1,39
 1085 351 1085 351 1122.5 428.5 c 128,-1,40
 1160 506 1160 506 1173.5 607 c 128,-1,41
 1187 708 1187 708 1187 817 c 0,42,43
 1187 929 1187 929 1172.5 1029.5 c 128,-1,44
 1158 1130 1158 1130 1119.5 1206 c 128,-1,45
 1081 1282 1081 1282 1014.5 1326.5 c 128,-1,46
 948 1371 948 1371 844 1371 c 0,47,48
 739 1371 739 1371 673 1326 c 128,-1,49
 607 1281 607 1281 569.5 1204.5 c 128,-1,50
 532 1128 532 1128 518 1028 c 128,-1,51
 504 928 504 928 504 817 c 0,32,33
EndSplineSet
EndChar

StartChar: oe
Encoding: 339 339 198
Width: 2062
GlyphClass: 2
Flags: W
HStem: -25 254<540.558 791.973 1386.14 1770.53> 512 185<1271 1675> 986 252<540.215 790.241 1356.57 1602.04>
VStem: 72 379<331.868 879.709> 880 391<349.069 512 697 878.166> 1675 306<697 906.98>
LayerCount: 2
Fore
SplineSet
1675 697 m 1,0,1
 1675 846 1675 846 1626 914.5 c 128,-1,2
 1577 983 1577 983 1474 985 c 1,3,4
 1423 983 1423 983 1384.5 961 c 128,-1,5
 1346 939 1346 939 1320.5 901 c 128,-1,6
 1295 863 1295 863 1282.5 811 c 128,-1,7
 1270 759 1270 759 1270 697 c 1,8,-1
 1675 697 l 1,0,1
665 229 m 1,9,10
 718 229 718 229 758.5 249.5 c 128,-1,11
 799 270 799 270 826 315 c 128,-1,12
 853 360 853 360 866.5 431.5 c 128,-1,13
 880 503 880 503 880 605 c 0,14,15
 880 706 880 706 866.5 778 c 128,-1,16
 853 850 853 850 826 896.5 c 128,-1,17
 799 943 799 943 758.5 964.5 c 128,-1,18
 718 986 718 986 665 986 c 0,19,20
 611 986 611 986 571 964.5 c 128,-1,21
 531 943 531 943 504.5 896.5 c 128,-1,22
 478 850 478 850 464.5 778 c 128,-1,23
 451 706 451 706 451 605 c 0,24,25
 451 563 451 563 453 519 c 128,-1,26
 455 475 455 475 462.5 433.5 c 128,-1,27
 470 392 470 392 484 355.5 c 128,-1,28
 498 319 498 319 522 291 c 128,-1,29
 546 263 546 263 581 246.5 c 128,-1,30
 616 230 616 230 665 229 c 1,9,10
1920 69 m 1,31,32
 1823 21 1823 21 1724.5 -3 c 128,-1,33
 1626 -27 1626 -27 1517 -27 c 0,34,35
 1451 -27 1451 -27 1389.5 -20 c 128,-1,36
 1328 -13 1328 -13 1272 7 c 128,-1,37
 1216 27 1216 27 1166.5 62 c 128,-1,38
 1117 97 1117 97 1075 153 c 1,39,40
 1051 114 1051 114 1008.5 81.5 c 128,-1,41
 966 49 966 49 911.5 25 c 128,-1,42
 857 1 857 1 793.5 -12 c 128,-1,43
 730 -25 730 -25 665 -25 c 0,44,45
 522 -25 522 -25 412 16.5 c 128,-1,46
 302 58 302 58 226 138.5 c 128,-1,47
 150 219 150 219 111 335.5 c 128,-1,48
 72 452 72 452 72 602 c 0,49,50
 72 757 72 757 112.5 876 c 128,-1,51
 153 995 153 995 229.5 1075.5 c 128,-1,52
 306 1156 306 1156 416 1197 c 128,-1,53
 526 1238 526 1238 664 1238 c 0,54,55
 727 1238 727 1238 786.5 1229 c 128,-1,56
 846 1220 846 1220 899 1197 c 128,-1,57
 952 1174 952 1174 996 1135.5 c 128,-1,58
 1040 1097 1040 1097 1072 1038 c 1,59,60
 1116 1095 1116 1095 1160 1133 c 128,-1,61
 1204 1171 1204 1171 1253 1194 c 128,-1,62
 1302 1217 1302 1217 1358.5 1226.5 c 128,-1,63
 1415 1236 1415 1236 1484 1236 c 0,64,65
 1606 1236 1606 1236 1699 1195 c 128,-1,66
 1792 1154 1792 1154 1854.5 1081 c 128,-1,67
 1917 1008 1917 1008 1949 907 c 128,-1,68
 1981 806 1981 806 1981 686 c 2,69,-1
 1981 512 l 1,70,-1
 1271 512 l 1,71,72
 1273 450 1273 450 1292.5 397.5 c 128,-1,73
 1312 345 1312 345 1347.5 307 c 128,-1,74
 1383 269 1383 269 1433 248 c 128,-1,75
 1483 227 1483 227 1546 227 c 0,76,77
 1637 227 1637 227 1711.5 250.5 c 128,-1,78
 1786 274 1786 274 1851 321 c 1,79,-1
 1920 69 l 1,31,32
EndSplineSet
EndChar

StartChar: florin
Encoding: 402 402 204
Width: 909
GlyphClass: 2
Flags: W
HStem: 1055 154<16 207 587 874> 1475 280<627.153 863.94>
VStem: 207 380<100.031 1055 1209 1431.91>
DStem2: 604 270 221 389.5 0.0998994 -0.994998<-605.386 221.487>
LayerCount: 2
Fore
SplineSet
723 1475 m 0,0,1
 691 1475 691 1475 665.5 1463.5 c 128,-1,2
 640 1452 640 1452 622.5 1423.5 c 128,-1,3
 605 1395 605 1395 596 1347 c 128,-1,4
 587 1299 587 1299 587 1226 c 2,5,-1
 587 1209 l 1,6,-1
 874 1209 l 1,7,-1
 874 1055 l 1,8,-1
 586 1055 l 1,9,-1
 593 490 l 2,10,11
 595 387 595 387 604 270 c 128,-1,12
 613 153 613 153 629 25 c 1,13,14
 540 25 540 25 448.5 21 c 128,-1,15
 357 17 357 17 257 17 c 1,16,-1
 250 132 l 1,17,18
 250 164 250 164 244 199 c 128,-1,19
 238 234 238 234 232 266 c 1,20,21
 225 330 225 330 221 389.5 c 128,-1,22
 217 449 217 449 216 502 c 2,23,-1
 208 1055 l 1,24,-1
 16 1055 l 1,25,-1
 16 1209 l 1,26,-1
 207 1209 l 1,27,28
 207 1477 207 1477 310.5 1616 c 128,-1,29
 414 1755 414 1755 634 1755 c 0,30,31
 688 1755 688 1755 744 1751 c 128,-1,32
 800 1747 800 1747 866 1730 c 1,33,-1
 873 1452 l 1,34,35
 838 1467 838 1467 802 1471 c 128,-1,36
 766 1475 766 1475 723 1475 c 0,0,1
EndSplineSet
EndChar

StartChar: circumflex
Encoding: 710 710 205
Width: 1250
GlyphClass: 2
Flags: W
HStem: 205 652
LayerCount: 2
Fore
SplineSet
808 857 m 1,0,-1
 1072 213 l 1,1,-1
 774 213 l 1,2,-1
 669 611 l 1,3,-1
 562 205 l 1,4,-1
 267 205 l 1,5,-1
 531 857 l 1,6,-1
 808 857 l 1,0,-1
EndSplineSet
EndChar

StartChar: caron
Encoding: 711 711 206
Width: 1250
GlyphClass: 2
Flags: W
HStem: 217 652
LayerCount: 2
Fore
SplineSet
531 217 m 1,0,-1
 267 861 l 1,1,-1
 565 861 l 1,2,-1
 671 463 l 1,3,-1
 776 869 l 1,4,-1
 1072 869 l 1,5,-1
 808 217 l 1,6,-1
 531 217 l 1,0,-1
EndSplineSet
EndChar

StartChar: ring
Encoding: 730 730 207
Width: 881
GlyphClass: 2
Flags: W
HStem: 215 176<316.605 563.646> 762 175<317.924 561.259>
VStem: 51 200<455.89 695.463> 629 201<455.634 694.761>
LayerCount: 2
Fore
SplineSet
251 575 m 256,0,1
 251 536 251 536 266 502 c 128,-1,2
 281 468 281 468 307 443.5 c 128,-1,3
 333 419 333 419 367.5 405 c 128,-1,4
 402 391 402 391 440 391 c 0,5,6
 479 391 479 391 513 405 c 128,-1,7
 547 419 547 419 573 443.5 c 128,-1,8
 599 468 599 468 614 502 c 128,-1,9
 629 536 629 536 629 575 c 0,10,11
 629 615 629 615 613.5 649 c 128,-1,12
 598 683 598 683 572 708 c 128,-1,13
 546 733 546 733 512 747.5 c 128,-1,14
 478 762 478 762 440 762 c 0,15,16
 401 762 401 762 366.5 747.5 c 128,-1,17
 332 733 332 733 306.5 707.5 c 128,-1,18
 281 682 281 682 266 648 c 128,-1,19
 251 614 251 614 251 575 c 256,0,1
441 937 m 0,20,21
 519 937 519 937 589.5 910 c 128,-1,22
 660 883 660 883 713.5 834 c 128,-1,23
 767 785 767 785 798.5 718 c 128,-1,24
 830 651 830 651 830 571 c 0,25,26
 830 490 830 490 796 424 c 128,-1,27
 762 358 762 358 705.5 311.5 c 128,-1,28
 649 265 649 265 577 240 c 128,-1,29
 505 215 505 215 429 215 c 256,30,31
 353 215 353 215 284.5 244 c 128,-1,32
 216 273 216 273 164 323 c 128,-1,33
 112 373 112 373 81.5 439.5 c 128,-1,34
 51 506 51 506 51 582 c 0,35,36
 51 659 51 659 84 724 c 128,-1,37
 117 789 117 789 171.5 836.5 c 128,-1,38
 226 884 226 884 296.5 910.5 c 128,-1,39
 367 937 367 937 441 937 c 0,20,21
EndSplineSet
EndChar

StartChar: tilde
Encoding: 732 732 208
Width: 1214
GlyphClass: 2
Flags: W
HStem: 213 247<704.314 918> 362 237<398.929 571.496>
VStem: 167 220<242 354.173>
DStem2: 531.5 579.5 754 231.5 0.938879 -0.344247<0.674456 319.102>
LayerCount: 2
Fore
SplineSet
861 213 m 0,0,1
 812 213 812 213 754 231.5 c 128,-1,2
 696 250 696 250 636 282 c 0,3,4
 607 298 607 298 580 312.5 c 128,-1,5
 553 327 553 327 529.5 338 c 128,-1,6
 506 349 506 349 486.5 355.5 c 128,-1,7
 467 362 467 362 452 362 c 0,8,9
 440 362 440 362 428 356.5 c 128,-1,10
 416 351 416 351 407 337.5 c 128,-1,11
 398 324 398 324 392.5 301 c 128,-1,12
 387 278 387 278 387 242 c 1,13,-1
 167 242 l 1,14,15
 167 599 167 599 408 599 c 0,16,17
 443 599 443 599 473.5 593.5 c 128,-1,18
 504 588 504 588 531.5 579.5 c 128,-1,19
 559 571 559 571 584 560 c 128,-1,20
 609 549 609 549 634 538 c 0,21,22
 663 524 663 524 692 510.5 c 128,-1,23
 721 497 721 497 746.5 485.5 c 128,-1,24
 772 474 772 474 793 467 c 128,-1,25
 814 460 814 460 828 460 c 0,26,27
 836 460 836 460 842 463 c 128,-1,28
 848 466 848 466 851.5 475.5 c 128,-1,29
 855 485 855 485 857 504 c 128,-1,30
 859 523 859 523 859 556 c 1,31,-1
 1092 556 l 1,32,33
 1092 387 1092 387 1033.5 300 c 128,-1,34
 975 213 975 213 861 213 c 0,0,1
EndSplineSet
EndChar

StartChar: acutecomb
Encoding: 769 769 209
Width: 1097
GlyphClass: 2
Flags: W
HStem: 1639 637
VStem: 489 391
LayerCount: 2
Fore
SplineSet
489 1665 m 1,0,-1
 648 2276 l 1,1,-1
 880 2185 l 1,2,-1
 546 1639 l 1,3,-1
 489 1665 l 1,0,-1
EndSplineSet
EndChar

StartChar: uni0306
Encoding: 774 774 210
Width: 1373
GlyphClass: 2
Flags: W
HStem: 1340 162<579.69 794.479>
VStem: 325 226<1527.5 1693> 822 224<1527.5 1693>
LayerCount: 2
Fore
SplineSet
1046 1693 m 1,0,1
 1046 1512 1046 1512 956.5 1426 c 128,-1,2
 867 1340 867 1340 685 1340 c 0,3,4
 506 1340 506 1340 415.5 1426 c 128,-1,5
 325 1512 325 1512 325 1693 c 1,6,-1
 551 1693 l 1,7,8
 551 1640 551 1640 557.5 1603.5 c 128,-1,9
 564 1567 564 1567 579 1544.5 c 128,-1,10
 594 1522 594 1522 620 1512 c 128,-1,11
 646 1502 646 1502 685 1502 c 0,12,13
 725 1502 725 1502 751 1512 c 128,-1,14
 777 1522 777 1522 793 1544.5 c 128,-1,15
 809 1567 809 1567 815.5 1603.5 c 128,-1,16
 822 1640 822 1640 822 1693 c 1,17,-1
 1046 1693 l 1,0,1
EndSplineSet
EndChar

StartChar: uni0400
Encoding: 1024 1024 211
Width: 1349
GlyphClass: 2
Flags: W
HStem: 0 245<556 1283> 719 245<556 1181> 1379 251<556 1274> 1787 21G<780.655 835.951>
VStem: 158 398<245 719 964 1379>
LayerCount: 2
Fore
SplineSet
421 2346 m 1,0,-1
 750 2501 l 1,1,-1
 966 1869 l 1,2,-1
 794 1787 l 1,3,-1
 421 2346 l 1,0,-1
158 0 m 1,4,-1
 158 1630 l 1,5,-1
 1274 1630 l 1,6,-1
 1274 1379 l 1,7,-1
 556 1379 l 1,8,-1
 556 964 l 1,9,-1
 1181 964 l 1,10,-1
 1181 719 l 1,11,-1
 556 719 l 1,12,-1
 556 245 l 1,13,-1
 1283 245 l 1,14,-1
 1283 0 l 1,15,-1
 158 0 l 1,4,-1
EndSplineSet
EndChar

StartChar: afii10023
Encoding: 1025 1025 212
Width: 1382
GlyphClass: 2
Flags: W
HStem: 0 245<589 1316> 719 245<589 1214> 1379 251<589 1307> 1784 417<223.706 484.653 933.706 1194.65>
VStem: 145 420<1864.17 2120.77> 191 398<245 719 964 1379> 855 420<1864.17 2120.77>
LayerCount: 2
Fore
SplineSet
145 1992 m 256,0,1
 145 2036 145 2036 161 2074 c 128,-1,2
 177 2112 177 2112 205.5 2140.5 c 128,-1,3
 234 2169 234 2169 271.5 2185 c 128,-1,4
 309 2201 309 2201 353 2201 c 0,5,6
 396 2201 396 2201 435 2185 c 128,-1,7
 474 2169 474 2169 502.5 2140.5 c 128,-1,8
 531 2112 531 2112 548 2074 c 128,-1,9
 565 2036 565 2036 565 1992 c 256,10,11
 565 1948 565 1948 548 1910 c 128,-1,12
 531 1872 531 1872 502.5 1844 c 128,-1,13
 474 1816 474 1816 435 1800 c 128,-1,14
 396 1784 396 1784 353 1784 c 0,15,16
 308 1784 308 1784 269.5 1800 c 128,-1,17
 231 1816 231 1816 203.5 1844.5 c 128,-1,18
 176 1873 176 1873 160.5 1910.5 c 128,-1,19
 145 1948 145 1948 145 1992 c 256,0,1
855 1992 m 256,20,21
 855 2036 855 2036 871.5 2074 c 128,-1,22
 888 2112 888 2112 916 2140.5 c 128,-1,23
 944 2169 944 2169 982 2185 c 128,-1,24
 1020 2201 1020 2201 1063 2201 c 256,25,26
 1106 2201 1106 2201 1145 2185 c 128,-1,27
 1184 2169 1184 2169 1212.5 2140.5 c 128,-1,28
 1241 2112 1241 2112 1258 2074 c 128,-1,29
 1275 2036 1275 2036 1275 1992 c 256,30,31
 1275 1948 1275 1948 1258 1910 c 128,-1,32
 1241 1872 1241 1872 1212.5 1844 c 128,-1,33
 1184 1816 1184 1816 1145 1800 c 128,-1,34
 1106 1784 1106 1784 1063 1784 c 0,35,36
 1018 1784 1018 1784 979.5 1800 c 128,-1,37
 941 1816 941 1816 913.5 1844.5 c 128,-1,38
 886 1873 886 1873 870.5 1910.5 c 128,-1,39
 855 1948 855 1948 855 1992 c 256,20,21
191 0 m 1,40,-1
 191 1630 l 1,41,-1
 1307 1630 l 1,42,-1
 1307 1379 l 1,43,-1
 589 1379 l 1,44,-1
 589 964 l 1,45,-1
 1214 964 l 1,46,-1
 1214 719 l 1,47,-1
 589 719 l 1,48,-1
 589 245 l 1,49,-1
 1316 245 l 1,50,-1
 1316 0 l 1,51,-1
 191 0 l 1,40,-1
EndSplineSet
EndChar

StartChar: afii10051
Encoding: 1026 1026 213
Width: 1669
GlyphClass: 2
Flags: W
HStem: -296 248<932.344 1141> 0 21G<399 798> 985 251<911.976 1128> 1379 251<-18 399 798 1207>
VStem: 399 399<0 948.296 1098 1379> 1164 378<6.21875 931.038>
LayerCount: 2
Fore
SplineSet
932 -38 m 1,0,1
 943 -40 943 -40 955 -42.5 c 128,-1,2
 967 -45 967 -45 984 -48 c 1,3,4
 1078 -48 1078 -48 1122 8.5 c 128,-1,5
 1166 65 1166 65 1166 170 c 0,6,7
 1166 209 1166 209 1165 247.5 c 128,-1,8
 1164 286 1164 286 1164 324 c 2,9,-1
 1164 773 l 2,10,11
 1164 870 1164 870 1122 927.5 c 128,-1,12
 1080 985 1080 985 991 985 c 0,13,14
 958 985 958 985 934 982.5 c 128,-1,15
 910 980 910 980 889 972.5 c 128,-1,16
 868 965 868 965 847 951 c 128,-1,17
 826 937 826 937 798 914 c 1,18,-1
 798 0 l 1,19,-1
 399 0 l 1,20,-1
 399 1379 l 1,21,-1
 -18 1379 l 1,22,-1
 -18 1630 l 1,23,-1
 1207 1630 l 1,24,-1
 1207 1379 l 1,25,-1
 798 1379 l 1,26,-1
 798 1098 l 1,27,28
 806 1118 806 1118 833 1142 c 128,-1,29
 860 1166 860 1166 902.5 1187 c 128,-1,30
 945 1208 945 1208 1002.5 1222 c 128,-1,31
 1060 1236 1060 1236 1128 1236 c 0,32,33
 1223 1236 1223 1236 1299.5 1205.5 c 128,-1,34
 1376 1175 1376 1175 1430 1114 c 128,-1,35
 1484 1053 1484 1053 1513 961 c 128,-1,36
 1542 869 1542 869 1542 747 c 2,37,-1
 1542 191 l 2,38,39
 1542 68 1542 68 1514 -23 c 128,-1,40
 1486 -114 1486 -114 1434 -175 c 128,-1,41
 1382 -236 1382 -236 1308 -266 c 128,-1,42
 1234 -296 1234 -296 1141 -296 c 0,43,44
 1069 -296 1069 -296 1012 -284 c 128,-1,45
 955 -272 955 -272 909 -246 c 1,46,-1
 932 -38 l 1,0,1
EndSplineSet
EndChar

StartChar: afii10052
Encoding: 1027 1027 214
Width: 1147
GlyphClass: 2
Flags: W
HStem: 0 21G<158 557> 1380 250<557 1105> 1732 21G<647.154 703.234>
VStem: 158 399<0 1380>
LayerCount: 2
Fore
SplineSet
634 1758 m 1,0,-1
 793 2369 l 1,1,-1
 1025 2278 l 1,2,-1
 691 1732 l 1,3,-1
 634 1758 l 1,0,-1
557 1380 m 1,4,-1
 557 0 l 1,5,-1
 158 0 l 1,6,-1
 158 1630 l 1,7,-1
 1105 1630 l 1,8,-1
 1105 1380 l 1,9,-1
 557 1380 l 1,4,-1
EndSplineSet
EndChar

StartChar: afii10053
Encoding: 1028 1028 215
Width: 1340
GlyphClass: 2
Flags: W
HStem: -28 286<687.047 1088.58> 714 245<508 1062> 1370 287<679.229 1079.59>
VStem: 106 399<483.439 714 959 1155.38>
LayerCount: 2
Fore
SplineSet
106 821 m 0,0,1
 106 1015 106 1015 151.5 1170 c 128,-1,2
 197 1325 197 1325 287 1433 c 128,-1,3
 377 1541 377 1541 511.5 1599 c 128,-1,4
 646 1657 646 1657 824 1657 c 0,5,6
 907 1657 907 1657 985 1645.5 c 128,-1,7
 1063 1634 1063 1634 1128.5 1615.5 c 128,-1,8
 1194 1597 1194 1597 1243.5 1575 c 128,-1,9
 1293 1553 1293 1553 1320 1532 c 1,10,-1
 1211 1252 l 1,11,12
 1119 1316 1119 1316 1033.5 1343 c 128,-1,13
 948 1370 948 1370 854 1370 c 0,14,15
 765 1370 765 1370 703 1339.5 c 128,-1,16
 641 1309 641 1309 600.5 1254.5 c 128,-1,17
 560 1200 560 1200 538.5 1124.5 c 128,-1,18
 517 1049 517 1049 508 959 c 1,19,-1
 1062 959 l 1,20,-1
 1062 714 l 1,21,-1
 505 714 l 1,22,23
 533 258 533 258 865 258 c 0,24,25
 1054 258 1054 258 1210 371 c 1,26,-1
 1317 92 l 1,27,28
 1290 67 1290 67 1238.5 45.5 c 128,-1,29
 1187 24 1187 24 1120.5 7.5 c 128,-1,30
 1054 -9 1054 -9 978 -18.5 c 128,-1,31
 902 -28 902 -28 825 -28 c 0,32,33
 646 -28 646 -28 511.5 33 c 128,-1,34
 377 94 377 94 287 205 c 128,-1,35
 197 316 197 316 151.5 472.5 c 128,-1,36
 106 629 106 629 106 821 c 0,0,1
EndSplineSet
EndChar

StartChar: afii10056
Encoding: 1031 1031 218
Width: 903
GlyphClass: 2
Flags: W
HStem: 0 181<79 251 650 825> 1448 182<79 251 650 825> 1744 417<-33.5377 227.653 676.677 937.653>
VStem: -111 419<1824.45 2080.57> 251 399<181 1448> 599 419<1824.45 2080.57>
LayerCount: 2
Fore
SplineSet
-111 1953 m 256,0,1
 -111 1997 -111 1997 -95 2035 c 128,-1,2
 -79 2073 -79 2073 -51 2101 c 128,-1,3
 -23 2129 -23 2129 14.5 2145 c 128,-1,4
 52 2161 52 2161 96 2161 c 0,5,6
 139 2161 139 2161 178 2145 c 128,-1,7
 217 2129 217 2129 245.5 2100.5 c 128,-1,8
 274 2072 274 2072 291 2034 c 128,-1,9
 308 1996 308 1996 308 1953 c 0,10,11
 308 1909 308 1909 291 1871 c 128,-1,12
 274 1833 274 1833 245.5 1804.5 c 128,-1,13
 217 1776 217 1776 178.5 1760 c 128,-1,14
 140 1744 140 1744 97 1744 c 0,15,16
 51 1744 51 1744 13 1760.5 c 128,-1,17
 -25 1777 -25 1777 -52.5 1805 c 128,-1,18
 -80 1833 -80 1833 -95.5 1871 c 128,-1,19
 -111 1909 -111 1909 -111 1953 c 256,0,1
599 1953 m 256,20,21
 599 1997 599 1997 615 2035 c 128,-1,22
 631 2073 631 2073 659 2101 c 128,-1,23
 687 2129 687 2129 725 2145 c 128,-1,24
 763 2161 763 2161 806 2161 c 256,25,26
 849 2161 849 2161 888 2145 c 128,-1,27
 927 2129 927 2129 955.5 2100.5 c 128,-1,28
 984 2072 984 2072 1001 2034 c 128,-1,29
 1018 1996 1018 1996 1018 1953 c 0,30,31
 1018 1909 1018 1909 1001 1871 c 128,-1,32
 984 1833 984 1833 955.5 1804.5 c 128,-1,33
 927 1776 927 1776 888.5 1760 c 128,-1,34
 850 1744 850 1744 807 1744 c 0,35,36
 761 1744 761 1744 723 1760.5 c 128,-1,37
 685 1777 685 1777 657.5 1805 c 128,-1,38
 630 1833 630 1833 614.5 1871 c 128,-1,39
 599 1909 599 1909 599 1953 c 256,20,21
251 181 m 1,40,-1
 251 1448 l 1,41,-1
 79 1448 l 1,42,-1
 79 1630 l 1,43,-1
 825 1630 l 1,44,-1
 825 1448 l 1,45,-1
 650 1448 l 1,46,-1
 650 181 l 1,47,-1
 825 181 l 1,48,-1
 825 0 l 1,49,-1
 79 0 l 1,50,-1
 79 181 l 1,51,-1
 251 181 l 1,40,-1
EndSplineSet
EndChar

StartChar: afii10058
Encoding: 1033 1033 220
Width: 2566
GlyphClass: 2
Flags: W
HStem: 0 251<1639 1966.18> 833 236<1639 1950.07> 1380 249<707 1241>
VStem: 313 397<495.177 1380> 1241 398<251 833 1069 1380> 2094 399<368.335 707.681>
LayerCount: 2
Fore
SplineSet
2094 551 m 0,0,1
 2094 636 2094 636 2060.5 691 c 128,-1,2
 2027 746 2027 746 1971.5 777.5 c 128,-1,3
 1916 809 1916 809 1843 821 c 128,-1,4
 1770 833 1770 833 1692 833 c 2,5,-1
 1639 833 l 1,6,-1
 1639 251 l 1,7,-1
 1721 251 l 2,8,9
 1810 251 1810 251 1879.5 265 c 128,-1,10
 1949 279 1949 279 1996.5 313 c 128,-1,11
 2044 347 2044 347 2069 405 c 128,-1,12
 2094 463 2094 463 2094 551 c 0,0,1
1241 0 m 1,13,-1
 1241 1380 l 1,14,-1
 707 1380 l 1,15,-1
 710 847 l 2,16,17
 710 733 710 733 699.5 626.5 c 128,-1,18
 689 520 689 520 662 426 c 128,-1,19
 635 332 635 332 587.5 254 c 128,-1,20
 540 176 540 176 465.5 120 c 128,-1,21
 391 64 391 64 286.5 33 c 128,-1,22
 182 2 182 2 41 2 c 1,23,-1
 41 372 l 1,24,25
 135 372 135 372 189 406 c 128,-1,26
 243 440 243 440 270.5 497.5 c 128,-1,27
 298 555 298 555 305.5 630 c 128,-1,28
 313 705 313 705 313 788 c 2,29,-1
 313 827 l 1,30,-1
 308 1629 l 1,31,-1
 1639 1629 l 1,32,-1
 1639 1069 l 1,33,-1
 1694 1069 l 2,34,35
 1874 1069 1874 1069 2021.5 1046.5 c 128,-1,36
 2169 1024 2169 1024 2274 965.5 c 128,-1,37
 2379 907 2379 907 2436 806.5 c 128,-1,38
 2493 706 2493 706 2493 549 c 0,39,40
 2493 439 2493 439 2467 355.5 c 128,-1,41
 2441 272 2441 272 2393 211 c 128,-1,42
 2345 150 2345 150 2276 109.5 c 128,-1,43
 2207 69 2207 69 2121.5 44.5 c 128,-1,44
 2036 20 2036 20 1935 10 c 128,-1,45
 1834 0 1834 0 1722 0 c 2,46,-1
 1620 0 l 1,47,-1
 1241 0 l 1,13,-1
EndSplineSet
EndChar

StartChar: afii10059
Encoding: 1034 1034 221
Width: 2430
GlyphClass: 2
Flags: W
HStem: 0 251<1504 1832.04> 721 245<557 1104> 833 236<1504 1813.09> 1610 20G<158 557 1104 1504>
VStem: 158 399<0 721 966 1630> 1104 400<251 721 1069 1630> 1957 399<368.795 707.681>
LayerCount: 2
Fore
SplineSet
1957 551 m 0,0,1
 1957 636 1957 636 1923.5 691 c 128,-1,2
 1890 746 1890 746 1834.5 777.5 c 128,-1,3
 1779 809 1779 809 1706.5 821 c 128,-1,4
 1634 833 1634 833 1555 833 c 2,5,-1
 1504 833 l 1,6,-1
 1504 251 l 1,7,-1
 1585 251 l 2,8,9
 1674 251 1674 251 1743.5 265 c 128,-1,10
 1813 279 1813 279 1860.5 313 c 128,-1,11
 1908 347 1908 347 1932.5 405 c 128,-1,12
 1957 463 1957 463 1957 551 c 0,0,1
1104 721 m 1,13,-1
 557 721 l 1,14,-1
 557 0 l 1,15,-1
 158 0 l 1,16,-1
 158 1630 l 1,17,-1
 557 1630 l 1,18,-1
 557 966 l 1,19,-1
 1104 966 l 1,20,-1
 1104 1630 l 1,21,-1
 1504 1630 l 1,22,-1
 1504 1069 l 1,23,-1
 1557 1069 l 2,24,25
 1738 1069 1738 1069 1885.5 1046.5 c 128,-1,26
 2033 1024 2033 1024 2137.5 965.5 c 128,-1,27
 2242 907 2242 907 2299 806.5 c 128,-1,28
 2356 706 2356 706 2356 549 c 0,29,30
 2356 384 2356 384 2298.5 277.5 c 128,-1,31
 2241 171 2241 171 2139 109.5 c 128,-1,32
 2037 48 2037 48 1895.5 24 c 128,-1,33
 1754 0 1754 0 1586 0 c 2,34,-1
 1104 0 l 1,35,-1
 1104 721 l 1,13,-1
EndSplineSet
EndChar

StartChar: afii10060
Encoding: 1035 1035 222
Width: 1671
GlyphClass: 2
Flags: W
HStem: 0 21G<390 792 1155 1533> 813 252<792 1100.95> 1380 250<6 390 789 1233>
VStem: 390 402<0 813 1065 1380> 1155 378<0 755.175>
LayerCount: 2
Fore
SplineSet
792 0 m 1,0,-1
 390 0 l 1,1,-1
 390 1380 l 1,2,-1
 6 1380 l 1,3,-1
 6 1630 l 1,4,-1
 1233 1630 l 1,5,-1
 1233 1380 l 1,6,-1
 789 1380 l 1,7,-1
 789 1065 l 1,8,-1
 1123 1065 l 2,9,10
 1217 1065 1217 1065 1292.5 1033.5 c 128,-1,11
 1368 1002 1368 1002 1421.5 940.5 c 128,-1,12
 1475 879 1475 879 1504 787.5 c 128,-1,13
 1533 696 1533 696 1533 575 c 2,14,-1
 1533 0 l 1,15,-1
 1155 0 l 1,16,-1
 1155 440 l 2,17,18
 1155 476 1155 476 1156.5 515 c 128,-1,19
 1158 554 1158 554 1158 594 c 0,20,21
 1158 646 1158 646 1145.5 687 c 128,-1,22
 1133 728 1133 728 1111.5 756 c 128,-1,23
 1090 784 1090 784 1060 798.5 c 128,-1,24
 1030 813 1030 813 996 813 c 2,25,-1
 792 813 l 1,26,-1
 792 0 l 1,0,-1
EndSplineSet
EndChar

StartChar: afii10061
Encoding: 1036 1036 223
Width: 1537
GlyphClass: 2
Flags: W
HStem: 0 21G<158 557 1117.15 1548> 1610 20G<158 557 1072.79 1493>
VStem: 158 399<0 691 935 1630> 1086 407<1223 1630> 1132 416<0 416>
DStem2: 1100 609 619 691 0.596089 -0.802919<-262.015 508.052> 627 935 1110 1071 0.551093 0.834444<100.669 832.89>
LayerCount: 2
Fore
SplineSet
557 0 m 1,0,-1
 158 0 l 1,1,-1
 158 1630 l 1,2,-1
 557 1630 l 1,3,-1
 557 935 l 1,4,-1
 627 935 l 1,5,-1
 1086 1630 l 1,6,-1
 1493 1630 l 1,7,-1
 1110 1071 l 2,8,9
 1066 1008 1066 1008 1030 964 c 128,-1,10
 994 920 994 920 959.5 891.5 c 128,-1,11
 925 863 925 863 889 847 c 128,-1,12
 853 831 853 831 811 823 c 1,13,14
 852 815 852 815 887 801.5 c 128,-1,15
 922 788 922 788 956 764 c 128,-1,16
 990 740 990 740 1024.5 702 c 128,-1,17
 1059 664 1059 664 1100 609 c 2,18,-1
 1548 0 l 1,19,-1
 1132 0 l 1,20,-1
 619 691 l 1,21,-1
 557 691 l 1,22,-1
 557 0 l 1,0,-1
637 1751 m 1,23,-1
 851 2385 l 1,24,-1
 1182 2230 l 1,25,-1
 809 1670 l 1,26,-1
 637 1751 l 1,23,-1
EndSplineSet
EndChar

StartChar: afii10145
Encoding: 1039 1039 226
Width: 1707
GlyphClass: 2
Flags: W
HStem: -366 617<656 1055> 0 251<557 656 1055 1151> 1610 20G<158 557 1151 1550>
VStem: 158 399<251 1630> 656 399<-366 0> 1151 399<251 1630>
LayerCount: 2
Fore
SplineSet
158 1630 m 1,0,-1
 557 1630 l 1,1,-1
 557 251 l 1,2,-1
 1151 251 l 1,3,-1
 1151 1630 l 1,4,-1
 1550 1630 l 1,5,-1
 1550 0 l 1,6,-1
 1055 0 l 1,7,-1
 1055 -366 l 1,8,-1
 656 -366 l 1,9,-1
 656 0 l 1,10,-1
 158 0 l 1,11,-1
 158 1630 l 1,0,-1
EndSplineSet
EndChar

StartChar: afii10018
Encoding: 1041 1041 228
Width: 1677
GlyphClass: 2
Flags: W
HStem: 0 251<752 1072.03> 833 236<752 1061.64> 1385 245<158 353 752 1422>
VStem: 353 399<251 833 1069 1380> 1205 399<373.077 709.798>
LayerCount: 2
Fore
SplineSet
752 251 m 1,0,-1
 833 251 l 2,1,2
 920 251 920 251 989 265.5 c 128,-1,3
 1058 280 1058 280 1106 314.5 c 128,-1,4
 1154 349 1154 349 1179.5 407 c 128,-1,5
 1205 465 1205 465 1205 552 c 0,6,7
 1205 632 1205 632 1176 686 c 128,-1,8
 1147 740 1147 740 1094 772.5 c 128,-1,9
 1041 805 1041 805 967 819 c 128,-1,10
 893 833 893 833 803 833 c 2,11,-1
 752 833 l 1,12,-1
 752 251 l 1,0,-1
1604 550 m 1,13,14
 1604 385 1604 385 1547 278.5 c 128,-1,15
 1490 172 1490 172 1388 110 c 128,-1,16
 1286 48 1286 48 1144.5 24 c 128,-1,17
 1003 0 1003 0 834 0 c 2,18,-1
 660 0 l 1,19,-1
 353 0 l 1,20,-1
 353 1385 l 1,21,-1
 158 1385 l 1,22,-1
 158 1630 l 1,23,-1
 1422 1630 l 1,24,-1
 1422 1380 l 1,25,-1
 752 1380 l 1,26,-1
 752 1069 l 1,27,-1
 805 1069 l 2,28,29
 986 1069 986 1069 1132 1046.5 c 128,-1,30
 1278 1024 1278 1024 1382 965.5 c 128,-1,31
 1486 907 1486 907 1543.5 806.5 c 128,-1,32
 1601 706 1601 706 1604 550 c 1,13,14
EndSplineSet
EndChar

StartChar: afii10020
Encoding: 1043 1043 230
Width: 1120
GlyphClass: 2
Flags: W
HStem: 0 21G<158 557> 1380 250<557 1105>
VStem: 158 399<0 1380>
LayerCount: 2
Fore
SplineSet
557 1380 m 1,0,-1
 557 0 l 1,1,-1
 158 0 l 1,2,-1
 158 1630 l 1,3,-1
 1105 1630 l 1,4,-1
 1105 1380 l 1,5,-1
 557 1380 l 1,0,-1
EndSplineSet
EndChar

StartChar: afii10021
Encoding: 1044 1044 231
Width: 1796
GlyphClass: 2
Flags: W
HStem: 2 249<568 1248> 1380 251<685 1248>
VStem: 2 428<-486 2> 286 399<581.249 1380> 1248 400<251 1380> 1413 346<-488 2>
LayerCount: 2
Fore
SplineSet
1248 251 m 1,0,-1
 1248 1380 l 1,1,-1
 685 1380 l 1,2,-1
 685 964 l 2,3,4
 685 875 685 875 683 772.5 c 128,-1,5
 681 670 681 670 670 572 c 128,-1,6
 659 474 659 474 635.5 389.5 c 128,-1,7
 612 305 612 305 568 251 c 1,8,-1
 1248 251 l 1,0,-1
102 251 m 1,9,10
 100 247 100 247 100 248 c 1,11,-1
 101 248 l 2,12,13
 103 248 103 248 117.5 265 c 128,-1,14
 132 282 132 282 152.5 320.5 c 128,-1,15
 173 359 173 359 196.5 421.5 c 128,-1,16
 220 484 220 484 240 575.5 c 128,-1,17
 260 667 260 667 273 789.5 c 128,-1,18
 286 912 286 912 286 1071 c 2,19,-1
 286 1631 l 1,20,-1
 1648 1631 l 1,21,-1
 1648 141 l 1,22,-1
 1759 141 l 1,23,-1
 1759 -488 l 1,24,-1
 1413 -488 l 1,25,-1
 1413 2 l 1,26,-1
 430 2 l 1,27,-1
 430 -486 l 1,28,-1
 2 -486 l 1,29,-1
 2 251 l 1,30,-1
 102 251 l 1,9,10
EndSplineSet
EndChar

StartChar: afii10024
Encoding: 1046 1046 233
Width: 2377
GlyphClass: 2
Flags: W
HStem: 0 21G<-11 419.022 990 1388 1956.98 2389> 691 244<923 990 1388 1453> 1610 20G<44 464.353 990 1388 1913.59 2331>
VStem: -11 415<0 415> 44 407<1223 1630> 990 398<0 691 935 1630> 1927 404<1226 1630> 1972 417<0 417>
DStem2: -11 0 404 0 0.600555 0.799583<249.23 1033.76> 451 1630 44 1630 0.555252 -0.831682<0 708.225> 1938 606 1453 691 0.600555 -0.799583<-271.236 504.966> 1461 935 1947 1071 0.556905 0.830577<98.5807 836.768>
LayerCount: 2
Fore
SplineSet
990 691 m 1,0,-1
 923 691 l 1,1,-1
 404 0 l 1,2,-1
 -11 0 l 1,3,-1
 439 606 l 2,4,5
 481 662 481 662 515.5 700.5 c 128,-1,6
 550 739 550 739 583 763.5 c 128,-1,7
 616 788 616 788 651 802 c 128,-1,8
 686 816 686 816 729 823 c 1,9,10
 686 833 686 833 651 848.5 c 128,-1,11
 616 864 616 864 582 892 c 128,-1,12
 548 920 548 920 512 963 c 128,-1,13
 476 1006 476 1006 431 1071 c 2,14,-1
 44 1630 l 1,15,-1
 451 1630 l 1,16,-1
 915 935 l 1,17,-1
 990 935 l 1,18,-1
 990 1630 l 1,19,-1
 1388 1630 l 1,20,-1
 1388 935 l 1,21,-1
 1461 935 l 1,22,-1
 1927 1630 l 1,23,-1
 2331 1630 l 1,24,-1
 1947 1071 l 2,25,26
 1902 1006 1902 1006 1866 962.5 c 128,-1,27
 1830 919 1830 919 1795.5 890.5 c 128,-1,28
 1761 862 1761 862 1725.5 846.5 c 128,-1,29
 1690 831 1690 831 1648 823 c 1,30,31
 1690 816 1690 816 1725 802 c 128,-1,32
 1760 788 1760 788 1793 763 c 128,-1,33
 1826 738 1826 738 1861 699.5 c 128,-1,34
 1896 661 1896 661 1938 606 c 2,35,-1
 2389 0 l 1,36,-1
 1972 0 l 1,37,-1
 1453 691 l 1,38,-1
 1388 691 l 1,39,-1
 1388 0 l 1,40,-1
 990 0 l 1,41,-1
 990 691 l 1,0,-1
EndSplineSet
EndChar

StartChar: afii10025
Encoding: 1047 1047 234
Width: 1585
GlyphClass: 2
Flags: W
HStem: -28 286<435.206 920.635> 689 266<421 940.931> 1370 287<398.741 956.887>
VStem: 1023 389<349.545 627.297 1026.73 1307.45>
DStem2: 456.5 296.5 447.5 7 0.975608 -0.219518<-201.266 247.078>
LayerCount: 2
Fore
SplineSet
1130 833 m 1,0,1
 1170 829 1170 829 1219 804.5 c 128,-1,2
 1268 780 1268 780 1311 733 c 128,-1,3
 1354 686 1354 686 1383 616 c 128,-1,4
 1412 546 1412 546 1412 452 c 0,5,6
 1412 306 1412 306 1357.5 212.5 c 128,-1,7
 1303 119 1303 119 1206.5 65.5 c 128,-1,8
 1110 12 1110 12 979 -8 c 128,-1,9
 848 -28 848 -28 695 -28 c 0,10,11
 638 -28 638 -28 575.5 -18.5 c 128,-1,12
 513 -9 513 -9 447.5 7 c 128,-1,13
 382 23 382 23 315 44 c 128,-1,14
 248 65 248 65 184 88 c 1,15,-1
 264 363 l 1,16,17
 298 349 298 349 348 331 c 128,-1,18
 398 313 398 313 456.5 296.5 c 128,-1,19
 515 280 515 280 578.5 269 c 128,-1,20
 642 258 642 258 703 258 c 0,21,22
 859 258 859 258 941 314.5 c 128,-1,23
 1023 371 1023 371 1023 494 c 0,24,25
 1023 546 1023 546 1007.5 583.5 c 128,-1,26
 992 621 992 621 957.5 645 c 128,-1,27
 923 669 923 669 867.5 680 c 128,-1,28
 812 691 812 691 731 691 c 0,29,30
 690 691 690 691 650.5 690 c 128,-1,31
 611 689 611 689 571 689 c 2,32,-1
 421 689 l 1,33,-1
 421 955 l 1,34,-1
 691 955 l 2,35,36
 862 955 862 955 943.5 1000.5 c 128,-1,37
 1025 1046 1025 1046 1025 1148 c 0,38,39
 1025 1211 1025 1211 1011 1253.5 c 128,-1,40
 997 1296 997 1296 962.5 1322 c 128,-1,41
 928 1348 928 1348 869 1359 c 128,-1,42
 810 1370 810 1370 719 1370 c 0,43,44
 623 1370 623 1370 541.5 1356.5 c 128,-1,45
 460 1343 460 1343 398.5 1325 c 128,-1,46
 337 1307 337 1307 297 1290 c 128,-1,47
 257 1273 257 1273 244 1266 c 1,48,-1
 158 1526 l 1,49,50
 222 1565 222 1565 292 1590.5 c 128,-1,51
 362 1616 362 1616 435.5 1631 c 128,-1,52
 509 1646 509 1646 583.5 1651.5 c 128,-1,53
 658 1657 658 1657 731 1657 c 0,54,55
 878 1657 878 1657 1003.5 1637 c 128,-1,56
 1129 1617 1129 1617 1220.5 1565.5 c 128,-1,57
 1312 1514 1312 1514 1363.5 1424 c 128,-1,58
 1415 1334 1415 1334 1415 1194 c 0,59,60
 1415 1101 1415 1101 1384.5 1033 c 128,-1,61
 1354 965 1354 965 1310 920.5 c 128,-1,62
 1266 876 1266 876 1217 854.5 c 128,-1,63
 1168 833 1168 833 1130 833 c 1,0,1
EndSplineSet
EndChar

StartChar: afii10026
Encoding: 1048 1048 235
Width: 1700
GlyphClass: 2
Flags: W
HStem: 0 21G<158 513 1186 1542> 1610 20G<158 512 1109.16 1542>
VStem: 158 354<0 136 680 1630> 1186 356<0 1107>
LayerCount: 2
Fore
SplineSet
512 1630 m 1,0,-1
 512 680 l 1,1,-1
 1122 1630 l 1,2,-1
 1542 1630 l 1,3,-1
 1542 0 l 1,4,-1
 1186 0 l 1,5,-1
 1186 1107 l 1,6,-1
 513 136 l 1,7,-1
 513 0 l 1,8,-1
 158 0 l 1,9,-1
 158 1630 l 1,10,-1
 512 1630 l 1,0,-1
EndSplineSet
EndChar

StartChar: afii10028
Encoding: 1050 1050 237
Width: 1537
GlyphClass: 2
Flags: W
HStem: 0 21G<158 557 1117.15 1548> 1610 20G<158 557 1072.79 1493>
VStem: 158 399<0 691 935 1630> 1086 407<1223 1630> 1132 416<0 416>
DStem2: 1100 609 619 691 0.596089 -0.802919<-262.015 508.052> 627 935 1110 1071 0.551093 0.834444<100.669 832.89>
LayerCount: 2
Fore
SplineSet
557 0 m 1,0,-1
 158 0 l 1,1,-1
 158 1630 l 1,2,-1
 557 1630 l 1,3,-1
 557 935 l 1,4,-1
 627 935 l 1,5,-1
 1086 1630 l 1,6,-1
 1493 1630 l 1,7,-1
 1110 1071 l 2,8,9
 1066 1008 1066 1008 1030 964 c 128,-1,10
 994 920 994 920 959.5 891.5 c 128,-1,11
 925 863 925 863 889 847 c 128,-1,12
 853 831 853 831 811 823 c 1,13,14
 852 815 852 815 887 801.5 c 128,-1,15
 922 788 922 788 956 764 c 128,-1,16
 990 740 990 740 1024.5 702 c 128,-1,17
 1059 664 1059 664 1100 609 c 2,18,-1
 1548 0 l 1,19,-1
 1132 0 l 1,20,-1
 619 691 l 1,21,-1
 557 691 l 1,22,-1
 557 0 l 1,0,-1
EndSplineSet
EndChar

StartChar: afii10029
Encoding: 1051 1051 238
Width: 1758
GlyphClass: 2
Flags: W
HStem: 0 21G<5 75.5 1202 1601> 1380 250<671 1202>
VStem: 277 398<474.903 1380> 1202 399<0 1380>
LayerCount: 2
Fore
SplineSet
1601 0 m 1,0,-1
 1202 0 l 1,1,-1
 1202 1380 l 1,2,-1
 671 1380 l 1,3,-1
 675 861 l 2,4,5
 675 745 675 745 664.5 636.5 c 128,-1,6
 654 528 654 528 626.5 432.5 c 128,-1,7
 599 337 599 337 551.5 257.5 c 128,-1,8
 504 178 504 178 429.5 121 c 128,-1,9
 355 64 355 64 250.5 32.5 c 128,-1,10
 146 1 146 1 5 1 c 1,11,-1
 5 370 l 1,12,13
 78 370 78 370 129.5 387.5 c 128,-1,14
 181 405 181 405 214 447 c 128,-1,15
 247 489 247 489 262 558 c 128,-1,16
 277 627 277 627 277 731 c 2,17,-1
 272 1630 l 1,18,-1
 1601 1630 l 1,19,-1
 1601 0 l 1,0,-1
EndSplineSet
EndChar

StartChar: afii10033
Encoding: 1055 1055 242
Width: 1707
GlyphClass: 2
Flags: W
HStem: 0 21G<158 557 1151 1550> 1380 250<557 1151>
VStem: 158 399<0 1380> 1151 399<0 1380>
LayerCount: 2
Fore
SplineSet
1550 0 m 1,0,-1
 1151 0 l 1,1,-1
 1151 1380 l 1,2,-1
 557 1380 l 1,3,-1
 557 0 l 1,4,-1
 158 0 l 1,5,-1
 158 1630 l 1,6,-1
 1550 1630 l 1,7,-1
 1550 0 l 1,0,-1
EndSplineSet
EndChar

StartChar: afii10037
Encoding: 1059 1059 246
Width: 1288
GlyphClass: 2
Flags: W
HStem: -1 21G<474 870> 1610 20G<-74 333.52 952.36 1366>
VStem: 452 379<18.1169 544>
DStem2: 324 1630 -74 1630 0.435907 -0.899991<0 737.577> 641 964 831 544 0.441919 0.897055<0 739.295>
LayerCount: 2
Fore
SplineSet
962 1630 m 1,0,-1
 1366 1630 l 1,1,-1
 831 544 l 1,2,-1
 831 371 l 2,3,4
 831 208 831 208 870 12 c 1,5,-1
 480 -1 l 1,6,7
 468 98 468 98 460 192.5 c 128,-1,8
 452 287 452 287 452 371 c 2,9,-1
 452 544 l 1,10,-1
 -74 1630 l 1,11,-1
 324 1630 l 1,12,-1
 641 964 l 1,13,-1
 962 1630 l 1,0,-1
EndSplineSet
EndChar

StartChar: afii10038
Encoding: 1060 1060 247
Width: 2075
GlyphClass: 2
Flags: W
HStem: 77 286<666.609 839 1237 1404.65> 1266 287<647.574 839 1237 1429.16> 1701 20G<839 1237>
VStem: 106 399<550.891 1093.5> 839 398<-90 77 364 1266 1553 1721> 1571 398<551.481 1092.41>
LayerCount: 2
Fore
SplineSet
1237 -90 m 1,0,-1
 839 -90 l 1,1,-1
 839 77 l 1,2,3
 704 77 704 77 597 107 c 128,-1,4
 490 137 490 137 408.5 190 c 128,-1,5
 327 243 327 243 269.5 314 c 128,-1,6
 212 385 212 385 175.5 467 c 128,-1,7
 139 549 139 549 122.5 638 c 128,-1,8
 106 727 106 727 106 816 c 0,9,10
 106 996 106 996 167 1133.5 c 128,-1,11
 228 1271 228 1271 330 1364.5 c 128,-1,12
 432 1458 432 1458 564 1505.5 c 128,-1,13
 696 1553 696 1553 839 1553 c 1,14,-1
 839 1721 l 1,15,-1
 1237 1721 l 1,16,-1
 1237 1553 l 1,17,18
 1330 1553 1330 1553 1421 1532 c 128,-1,19
 1512 1511 1512 1511 1593 1469.5 c 128,-1,20
 1674 1428 1674 1428 1743 1366.5 c 128,-1,21
 1812 1305 1812 1305 1862.5 1223 c 128,-1,22
 1913 1141 1913 1141 1941 1039 c 128,-1,23
 1969 937 1969 937 1969 815 c 0,24,25
 1969 726 1969 726 1952 636.5 c 128,-1,26
 1935 547 1935 547 1898.5 465 c 128,-1,27
 1862 383 1862 383 1804.5 312 c 128,-1,28
 1747 241 1747 241 1665.5 189 c 128,-1,29
 1584 137 1584 137 1477.5 107 c 128,-1,30
 1371 77 1371 77 1237 77 c 1,31,-1
 1237 -90 l 1,0,-1
839 1266 m 1,32,33
 763 1264 763 1264 701.5 1246.5 c 128,-1,34
 640 1229 640 1229 596.5 1180.5 c 128,-1,35
 553 1132 553 1132 529 1044.5 c 128,-1,36
 505 957 505 957 505 815 c 0,37,38
 505 680 505 680 534 592.5 c 128,-1,39
 563 505 563 505 610.5 454 c 128,-1,40
 658 403 658 403 717.5 383 c 128,-1,41
 777 363 777 363 839 363 c 1,42,-1
 839 1266 l 1,32,33
1237 364 m 1,43,44
 1278 364 1278 364 1318 372.5 c 128,-1,45
 1358 381 1358 381 1395.5 401 c 128,-1,46
 1433 421 1433 421 1465 454.5 c 128,-1,47
 1497 488 1497 488 1520.5 538.5 c 128,-1,48
 1544 589 1544 589 1557.5 657.5 c 128,-1,49
 1571 726 1571 726 1571 816 c 0,50,51
 1571 912 1571 912 1560 982.5 c 128,-1,52
 1549 1053 1549 1053 1528 1102.5 c 128,-1,53
 1507 1152 1507 1152 1477 1183 c 128,-1,54
 1447 1214 1447 1214 1410 1232 c 128,-1,55
 1373 1250 1373 1250 1329.5 1257 c 128,-1,56
 1286 1264 1286 1264 1237 1266 c 1,57,-1
 1237 364 l 1,43,44
EndSplineSet
EndChar

StartChar: afii10040
Encoding: 1062 1062 249
Width: 1848
GlyphClass: 2
Flags: W
HStem: -366 21G<1291 1691> 0 251<557 1128> 1610 20G<158 557 1128 1527>
VStem: 158 399<251 1630> 1128 399<251 1630> 1291 400<-366 0>
LayerCount: 2
Fore
SplineSet
158 1630 m 1,0,-1
 557 1630 l 1,1,-1
 557 251 l 1,2,-1
 1128 251 l 1,3,-1
 1128 1630 l 1,4,-1
 1527 1630 l 1,5,-1
 1527 194 l 1,6,-1
 1691 194 l 1,7,-1
 1691 -366 l 1,8,-1
 1291 -366 l 1,9,-1
 1291 0 l 1,10,-1
 158 0 l 1,11,-1
 158 1630 l 1,0,-1
EndSplineSet
EndChar

StartChar: afii10041
Encoding: 1063 1063 250
Width: 1391
GlyphClass: 2
Flags: W
HStem: 0 21G<856 1234> 393 251<490 743.896> 1610 20G<111 489 856 1234>
VStem: 111 378<706.52 1630> 856 378<0 532 675.875 1630>
LayerCount: 2
Fore
SplineSet
856 532 m 1,0,1
 811 469 811 469 731 431 c 128,-1,2
 651 393 651 393 541 393 c 0,3,4
 439 393 439 393 359 424.5 c 128,-1,5
 279 456 279 456 224 517.5 c 128,-1,6
 169 579 169 579 140 671 c 128,-1,7
 111 763 111 763 111 884 c 2,8,-1
 111 1630 l 1,9,-1
 489 1630 l 1,10,-1
 489 856 l 2,11,12
 489 803 489 803 503 763.5 c 128,-1,13
 517 724 517 724 539.5 697.5 c 128,-1,14
 562 671 562 671 591.5 657.5 c 128,-1,15
 621 644 621 644 651 644 c 0,16,17
 707 644 707 644 739.5 649.5 c 128,-1,18
 772 655 772 655 792.5 665 c 128,-1,19
 813 675 813 675 826 688.5 c 128,-1,20
 839 702 839 702 856 717 c 1,21,-1
 856 1630 l 1,22,-1
 1234 1630 l 1,23,-1
 1234 0 l 1,24,-1
 856 0 l 1,25,-1
 856 532 l 1,0,1
EndSplineSet
EndChar

StartChar: afii10042
Encoding: 1064 1064 251
Width: 2497
GlyphClass: 2
Flags: W
HStem: 0 251<556 1049 1449 1942> 1610 20G<158 556 1049 1449 1942 2339>
VStem: 158 398<251 1630> 1049 400<251 1630> 1942 397<251 1630>
LayerCount: 2
Fore
SplineSet
1449 251 m 1,0,-1
 1942 251 l 1,1,-1
 1942 1630 l 1,2,-1
 2339 1630 l 1,3,-1
 2339 0 l 1,4,-1
 158 0 l 1,5,-1
 158 1630 l 1,6,-1
 556 1630 l 1,7,-1
 556 251 l 1,8,-1
 1049 251 l 1,9,-1
 1049 1630 l 1,10,-1
 1449 1630 l 1,11,-1
 1449 251 l 1,0,-1
EndSplineSet
EndChar

StartChar: afii10043
Encoding: 1065 1065 252
Width: 2486
GlyphClass: 2
Flags: W
HStem: -465 21G<2086 2428> 0 249<556 1049 1449 1943> 1610 20G<158 556 1049 1449 1943 2322>
VStem: 158 398<249 1630> 1049 400<249 1630> 1943 379<249 1630> 2086 342<-465 0>
LayerCount: 2
Fore
SplineSet
1449 249 m 1,0,-1
 1943 249 l 1,1,-1
 1943 1630 l 1,2,-1
 2322 1630 l 1,3,-1
 2322 87 l 1,4,-1
 2428 87 l 1,5,-1
 2428 -465 l 1,6,-1
 2086 -465 l 1,7,-1
 2086 0 l 1,8,-1
 158 0 l 1,9,-1
 158 1630 l 1,10,-1
 556 1630 l 1,11,-1
 556 249 l 1,12,-1
 1049 249 l 1,13,-1
 1049 1630 l 1,14,-1
 1449 1630 l 1,15,-1
 1449 249 l 1,0,-1
EndSplineSet
EndChar

